<svg version="1.1" viewBox="0.0 0.0 1920.0 1080.9606299212599" fill="none" stroke="none" stroke-linecap="square" stroke-miterlimit="10" xmlns:xlink="http://www.w3.org/1999/xlink" xmlns="http://www.w3.org/2000/svg"><clipPath id="g179c33eaec4_0_0.0"><path d="m0 0l1920.0 0l0 1080.9606l-1920.0 0l0 -1080.9606z" clip-rule="nonzero"/></clipPath><g clip-path="url(#g179c33eaec4_0_0.0)"><path fill="#ffffff" d="m0 0l1920.0 0l0 1080.9606l-1920.0 0z" fill-rule="evenodd"/><path fill="#eeeeee" d="m300.07562 408.5872l50.80313 0l0 50.834625l-50.80313 0z" fill-rule="evenodd"/><path stroke="#595959" stroke-width="1.0" stroke-linejoin="round" stroke-linecap="butt" d="m300.07562 408.5872l50.80313 0l0 50.834625l-50.80313 0z" fill-rule="evenodd"/><path fill="#595959" d="m330.42145 435.71887l0 -3.625q0 -1.46875 -0.34375 -2.578125q-0.34375 -1.125 -0.984375 -1.890625q-0.640625 -0.75 -1.5625 -1.125q-0.90625 -0.390625 -2.0625 -0.390625q-1.125 0 -2.046875 0.390625q-0.90625 0.375 -1.546875 1.125q-0.640625 0.765625 -0.984375 1.890625q-0.34375 1.109375 -0.34375 2.578125l0 3.625q0 1.46875 0.34375 2.59375q0.359375 1.109375 1.0 1.859375q0.640625 0.765625 1.546875 1.15625q0.921875 0.375 2.0625 0.375q1.140625 0 2.046875 -0.375q0.921875 -0.390625 1.5625 -1.15625q0.640625 -0.75 0.96875 -1.859375q0.34375 -1.125 0.34375 -2.59375zm-6.953125 -1.25q0 -0.328125 0 -0.484375q0 -0.171875 0 -0.671875l0 -1.6875q0 -0.828125 0.125 -1.4375q0.125 -0.625 0.40625 -1.015625q0.25 -0.359375 0.609375 -0.53125q0.375 -0.1875 0.859375 -0.1875q0.4375 0 0.78125 0.140625q0.359375 0.140625 0.59375 0.421875q0.3125 0.375 0.46875 0.984375q0.171875 0.609375 0.1875 1.453125l-4.03125 3.015625zm4.03125 1.6875q0 0.84375 -0.125 1.46875q-0.125 0.609375 -0.390625 1.0q-0.25 0.375 -0.625 0.5625q-0.375 0.1875 -0.859375 0.1875q-0.53125 0 -0.921875 -0.203125q-0.390625 -0.21875 -0.640625 -0.640625q-0.21875 -0.359375 -0.34375 -0.890625q-0.109375 -0.53125 -0.125 -1.21875l4.03125 -3.0q0 0.296875 0 0.46875q0 0.15625 0 0.5l0 1.765625z" fill-rule="nonzero"/><path fill="#eeeeee" d="m937.7324 812.3083l50.8031 0l0 50.834656l-50.8031 0z" fill-rule="evenodd"/><path stroke="#595959" stroke-width="1.0" stroke-linejoin="round" stroke-linecap="butt" d="m937.7324 812.3083l50.8031 0l0 50.834656l-50.8031 0z" fill-rule="evenodd"/><path fill="#595959" d="m968.07825 839.44l0 -3.625q0 -1.46875 -0.34375 -2.578125q-0.34375 -1.125 -0.984375 -1.890625q-0.640625 -0.75 -1.5625 -1.125q-0.90625 -0.390625 -2.0625 -0.390625q-1.125 0 -2.046875 0.390625q-0.90625 0.375 -1.546875 1.125q-0.640625 0.765625 -0.984375 1.890625q-0.34375 1.109375 -0.34375 2.578125l0 3.625q0 1.46875 0.34375 2.59375q0.359375 1.109375 1.0 1.859375q0.640625 0.765625 1.546875 1.15625q0.921875 0.375 2.0625 0.375q1.140625 0 2.046875 -0.375q0.921875 -0.390625 1.5625 -1.15625q0.640625 -0.75 0.96875 -1.859375q0.34375 -1.125 0.34375 -2.59375zm-6.953125 -1.25q0 -0.328125 0 -0.484375q0 -0.171875 0 -0.671875l0 -1.6875q0 -0.828125 0.125 -1.4375q0.125 -0.625 0.40625 -1.015625q0.25 -0.359375 0.609375 -0.53125q0.375 -0.1875 0.859375 -0.1875q0.4375 0 0.78125 0.140625q0.359375 0.140625 0.59375 0.421875q0.3125 0.375 0.46875 0.984375q0.171875 0.609375 0.1875 1.453125l-4.03125 3.015625zm4.03125 1.6875q0 0.84375 -0.125 1.46875q-0.125 0.609375 -0.390625 1.0q-0.25 0.375 -0.625 0.5625q-0.375 0.1875 -0.859375 0.1875q-0.53125 0 -0.921875 -0.203125q-0.390625 -0.21875 -0.640625 -0.640625q-0.21875 -0.359375 -0.34375 -0.890625q-0.109375 -0.53125 -0.125 -1.21875l4.03125 -3.0q0 0.296875 0 0.46875q0 0.15625 0 0.5l0 1.765625z" fill-rule="nonzero"/><path fill="#eeeeee" d="m300.0768 781.2519l50.80316 0l0 50.834656l-50.80316 0z" fill-rule="evenodd"/><path stroke="#595959" stroke-width="1.0" stroke-linejoin="round" stroke-linecap="butt" d="m300.0768 781.2519l50.80316 0l0 50.834656l-50.80316 0z" fill-rule="evenodd"/><path fill="#595959" d="m330.42267 808.3836l0 -3.625q0 -1.46875 -0.34375 -2.578125q-0.34375 -1.125 -0.984375 -1.890625q-0.640625 -0.75 -1.5625 -1.125q-0.90625 -0.390625 -2.0625 -0.390625q-1.125 0 -2.046875 0.390625q-0.90625 0.375 -1.546875 1.125q-0.640625 0.765625 -0.984375 1.890625q-0.34375 1.109375 -0.34375 2.578125l0 3.625q0 1.46875 0.34375 2.59375q0.359375 1.109375 1.0 1.859375q0.640625 0.765625 1.546875 1.15625q0.921875 0.375 2.0625 0.375q1.140625 0 2.046875 -0.375q0.921875 -0.390625 1.5625 -1.15625q0.640625 -0.75 0.96875 -1.859375q0.34375 -1.125 0.34375 -2.59375zm-6.953125 -1.25q0 -0.328125 0 -0.484375q0 -0.171875 0 -0.671875l0 -1.6875q0 -0.828125 0.125 -1.4375q0.125 -0.625 0.40625 -1.015625q0.25 -0.359375 0.609375 -0.53125q0.375 -0.1875 0.859375 -0.1875q0.4375 0 0.78125 0.140625q0.359375 0.140625 0.59375 0.421875q0.3125 0.375 0.46875 0.984375q0.171875 0.609375 0.1875 1.453125l-4.03125 3.015625zm4.03125 1.6875q0 0.84375 -0.125 1.46875q-0.125 0.609375 -0.390625 1.0q-0.25 0.375 -0.625 0.5625q-0.375 0.1875 -0.859375 0.1875q-0.53125 0 -0.921875 -0.203125q-0.390625 -0.21875 -0.640625 -0.640625q-0.21875 -0.359375 -0.34375 -0.890625q-0.109375 -0.53125 -0.125 -1.21875l4.03125 -3.0q0 0.296875 0 0.46875q0 0.15625 0 0.5l0 1.765625z" fill-rule="nonzero"/><path fill="#eeeeee" d="m937.68585 379.93756l50.80316 0l0 50.834656l-50.80316 0z" fill-rule="evenodd"/><path stroke="#595959" stroke-width="1.0" stroke-linejoin="round" stroke-linecap="butt" d="m937.68585 379.93756l50.80316 0l0 50.834656l-50.80316 0z" fill-rule="evenodd"/><path fill="#595959" d="m968.0317 407.06927l0 -3.625q0 -1.46875 -0.34375 -2.578125q-0.34375 -1.125 -0.984375 -1.890625q-0.640625 -0.75 -1.5625 -1.125q-0.90625 -0.390625 -2.0625 -0.390625q-1.125 0 -2.046875 0.390625q-0.90625 0.375 -1.546875 1.125q-0.640625 0.765625 -0.984375 1.890625q-0.34375 1.109375 -0.34375 2.578125l0 3.625q0 1.46875 0.34375 2.59375q0.359375 1.109375 1.0 1.859375q0.640625 0.765625 1.546875 1.15625q0.921875 0.375 2.0625 0.375q1.140625 0 2.046875 -0.375q0.921875 -0.390625 1.5625 -1.15625q0.640625 -0.75 0.96875 -1.859375q0.34375 -1.125 0.34375 -2.59375zm-6.953125 -1.25q0 -0.328125 0 -0.484375q0 -0.171875 0 -0.671875l0 -1.6875q0 -0.828125 0.125 -1.4375q0.125 -0.625 0.40625 -1.015625q0.25 -0.359375 0.609375 -0.53125q0.375 -0.1875 0.859375 -0.1875q0.4375 0 0.78125 0.140625q0.359375 0.140625 0.59375 0.421875q0.3125 0.375 0.46875 0.984375q0.171875 0.609375 0.1875 1.453125l-4.03125 3.015625zm4.03125 1.6875q0 0.84375 -0.125 1.46875q-0.125 0.609375 -0.390625 1.0q-0.25 0.375 -0.625 0.5625q-0.375 0.1875 -0.859375 0.1875q-0.53125 0 -0.921875 -0.203125q-0.390625 -0.21875 -0.640625 -0.640625q-0.21875 -0.359375 -0.34375 -0.890625q-0.109375 -0.53125 -0.125 -1.21875l4.03125 -3.0q0 0.296875 0 0.46875q0 0.15625 0 0.5l0 1.765625z" fill-rule="nonzero"/><path fill="#000000" fill-opacity="0.0" d="m750.5461 843.36017l50.80316 0l0 50.834595l-50.80316 0z" fill-rule="evenodd"/><path stroke="#b7b7b7" stroke-width="1.0" stroke-linejoin="round" stroke-linecap="butt" stroke-dasharray="4.0,3.0" d="m750.5461 843.36017l50.80316 0l0 50.834595l-50.80316 0z" fill-rule="evenodd"/><path fill="#eeeeee" d="m501.3587 843.3621l50.80316 0l0 50.834595l-50.80316 0z" fill-rule="evenodd"/><path stroke="#595959" stroke-width="1.0" stroke-linejoin="round" stroke-linecap="butt" d="m501.3587 843.3621l50.80316 0l0 50.834595l-50.80316 0z" fill-rule="evenodd"/><path fill="#595959" d="m527.2983 876.4625q1.640625 0 2.828125 -0.625q1.203125 -0.640625 1.75 -1.421875l-1.4375 -1.5625q-0.5 0.640625 -1.3125 0.96875q-0.796875 0.328125 -1.65625 0.328125q-0.59375 0 -1.109375 -0.1875q-0.515625 -0.1875 -0.90625 -0.53125q-0.390625 -0.34375 -0.625 -0.75q-0.21875 -0.40625 -0.359375 -1.09375l0 -0.03125l7.640625 0l0 -1.21875q0 -1.25 -0.34375 -2.265625q-0.34375 -1.03125 -1.0 -1.765625q-0.671875 -0.71875 -1.625 -1.109375q-0.953125 -0.40625 -2.171875 -0.40625q-1.171875 0 -2.171875 0.421875q-1.0 0.421875 -1.734375 1.1875q-0.71875 0.78125 -1.125 1.84375q-0.40625 1.0625 -0.40625 2.359375l0 0.421875q0 1.125 0.40625 2.125q0.40625 1.0 1.171875 1.71875q0.765625 0.75 1.828125 1.171875q1.0625 0.421875 2.359375 0.421875zm-0.34375 -9.34375q0.546875 0 0.96875 0.171875q0.421875 0.171875 0.71875 0.46875q0.296875 0.296875 0.453125 0.703125q0.171875 0.40625 0.171875 0.875l0 0.21875l-4.75 0q0.109375 -0.546875 0.3125 -0.984375q0.203125 -0.453125 0.515625 -0.78125q0.3125 -0.328125 0.71875 -0.5q0.40625 -0.171875 0.890625 -0.171875z" fill-rule="nonzero"/><path fill="#000000" fill-opacity="0.0" d="m750.5461 781.2551l50.80316 0l0 50.834656l-50.80316 0z" fill-rule="evenodd"/><path stroke="#b7b7b7" stroke-width="1.0" stroke-linejoin="round" stroke-linecap="butt" stroke-dasharray="4.0,3.0" d="m750.5461 781.2551l50.80316 0l0 50.834656l-50.80316 0z" fill-rule="evenodd"/><path fill="#eeeeee" d="m501.3587 781.2571l50.80316 0l0 50.834656l-50.80316 0z" fill-rule="evenodd"/><path stroke="#595959" stroke-width="1.0" stroke-linejoin="round" stroke-linecap="butt" d="m501.3587 781.2571l50.80316 0l0 50.834656l-50.80316 0z" fill-rule="evenodd"/><path fill="#595959" d="m527.2983 814.35754q1.640625 0 2.828125 -0.625q1.203125 -0.640625 1.75 -1.421875l-1.4375 -1.5625q-0.5 0.640625 -1.3125 0.96875q-0.796875 0.328125 -1.65625 0.328125q-0.59375 0 -1.109375 -0.1875q-0.515625 -0.1875 -0.90625 -0.53125q-0.390625 -0.34375 -0.625 -0.75q-0.21875 -0.40625 -0.359375 -1.09375l0 -0.03125l7.640625 0l0 -1.21875q0 -1.25 -0.34375 -2.265625q-0.34375 -1.03125 -1.0 -1.765625q-0.671875 -0.71875 -1.625 -1.109375q-0.953125 -0.40625 -2.171875 -0.40625q-1.171875 0 -2.171875 0.421875q-1.0 0.421875 -1.734375 1.1875q-0.71875 0.78125 -1.125 1.84375q-0.40625 1.0625 -0.40625 2.359375l0 0.421875q0 1.125 0.40625 2.125q0.40625 1.0 1.171875 1.71875q0.765625 0.75 1.828125 1.171875q1.0625 0.421875 2.359375 0.421875zm-0.34375 -9.34375q0.546875 0 0.96875 0.171875q0.421875 0.171875 0.71875 0.46875q0.296875 0.296875 0.453125 0.703125q0.171875 0.40625 0.171875 0.875l0 0.21875l-4.75 0q0.109375 -0.546875 0.3125 -0.984375q0.203125 -0.453125 0.515625 -0.78125q0.3125 -0.328125 0.71875 -0.5q0.40625 -0.171875 0.890625 -0.171875z" fill-rule="nonzero"/><path fill="#eeeeee" d="m300.07492 346.47626l50.80313 0l0 50.834656l-50.80313 0z" fill-rule="evenodd"/><path stroke="#595959" stroke-width="1.0" stroke-linejoin="round" stroke-linecap="butt" d="m300.07492 346.47626l50.80313 0l0 50.834656l-50.80313 0z" fill-rule="evenodd"/><path fill="#595959" d="m327.6395 379.3736l0 -15.15625l-0.15625 0l-6.609375 2.375l0 2.515625l3.84375 -1.359375l0 11.625l2.921875 0z" fill-rule="nonzero"/><path fill="#000000" fill-opacity="0.0" d="m1124.3522 625.977l50.8031 0l0 50.834656l-50.8031 0z" fill-rule="evenodd"/><path stroke="#b7b7b7" stroke-width="1.0" stroke-linejoin="round" stroke-linecap="butt" stroke-dasharray="4.0,3.0" d="m1124.3522 625.977l50.8031 0l0 50.834656l-50.8031 0z" fill-rule="evenodd"/><path fill="#000000" fill-opacity="0.0" d="m1248.9242 563.8661l50.8031 0l0 50.834595l-50.8031 0z" fill-rule="evenodd"/><path stroke="#b7b7b7" stroke-width="1.0" stroke-linejoin="round" stroke-linecap="butt" stroke-dasharray="4.0,3.0" d="m1248.9242 563.8661l50.8031 0l0 50.834595l-50.8031 0z" fill-rule="evenodd"/><path fill="#eeeeee" d="m1248.9242 625.977l50.8031 0l0 50.834656l-50.8031 0z" fill-rule="evenodd"/><path stroke="#595959" stroke-width="1.0" stroke-linejoin="round" stroke-linecap="butt" d="m1248.9242 625.977l50.8031 0l0 50.834656l-50.8031 0z" fill-rule="evenodd"/><path fill="#595959" d="m1269.395 658.87427l2.90625 0l0 -8.015625q0.140625 -0.21875 0.3125 -0.40625q0.1875 -0.1875 0.40625 -0.328125q0.265625 -0.1875 0.609375 -0.28125q0.359375 -0.09375 0.78125 -0.09375q0.5 0 0.890625 0.109375q0.390625 0.09375 0.671875 0.34375q0.28125 0.25 0.4375 0.6875q0.15625 0.421875 0.15625 1.09375l0 6.890625l2.890625 0l0 -6.9375q0 -1.234375 -0.296875 -2.09375q-0.28125 -0.859375 -0.78125 -1.40625q-0.53125 -0.53125 -1.234375 -0.78125q-0.703125 -0.25 -1.5625 -0.25q-0.671875 0 -1.265625 0.1875q-0.59375 0.1875 -1.09375 0.53125q-0.28125 0.203125 -0.546875 0.46875q-0.265625 0.265625 -0.484375 0.578125l-0.171875 -1.5625l-2.625 0l0 11.265625z" fill-rule="nonzero"/><path fill="#000000" fill-opacity="0.0" d="m1373.4451 563.8661l50.8031 0l0 50.834595l-50.8031 0z" fill-rule="evenodd"/><path stroke="#b7b7b7" stroke-width="1.0" stroke-linejoin="round" stroke-linecap="butt" stroke-dasharray="4.0,3.0" d="m1373.4451 563.8661l50.8031 0l0 50.834595l-50.8031 0z" fill-rule="evenodd"/><path fill="#000000" fill-opacity="0.0" d="m1373.4451 625.977l50.8031 0l0 50.834656l-50.8031 0z" fill-rule="evenodd"/><path stroke="#b7b7b7" stroke-width="1.0" stroke-linejoin="round" stroke-linecap="butt" stroke-dasharray="4.0,3.0" d="m1373.4451 625.977l50.8031 0l0 50.834656l-50.8031 0z" fill-rule="evenodd"/><path fill="#000000" fill-opacity="0.0" d="m1124.0497 222.25839l50.8031 0l0 50.834625l-50.8031 0z" fill-rule="evenodd"/><path stroke="#b7b7b7" stroke-width="1.0" stroke-linejoin="round" stroke-linecap="butt" stroke-dasharray="4.0,3.0" d="m1124.0497 222.25839l50.8031 0l0 50.834625l-50.8031 0z" fill-rule="evenodd"/><path fill="#b7b7b7" d="m1151.6143 255.15572l0 -15.15625l-0.15625 0l-6.609375 2.375l0 2.515625l3.84375 -1.359375l0 11.625l2.921875 0z" fill-rule="nonzero"/><path fill="#000000" fill-opacity="0.0" d="m1248.3137 222.25839l50.803223 0l0 50.834625l-50.803223 0z" fill-rule="evenodd"/><path stroke="#b7b7b7" stroke-width="1.0" stroke-linejoin="round" stroke-linecap="butt" stroke-dasharray="4.0,3.0" d="m1248.3137 222.25839l50.803223 0l0 50.834625l-50.803223 0z" fill-rule="evenodd"/><path fill="#b7b7b7" d="m1278.6595 249.39009l0 -3.625q0 -1.46875 -0.34375 -2.578125q-0.34375 -1.125 -0.984375 -1.890625q-0.640625 -0.75 -1.5625 -1.125q-0.90625 -0.390625 -2.0625 -0.390625q-1.125 0 -2.046875 0.390625q-0.90625 0.375 -1.546875 1.125q-0.640625 0.765625 -0.984375 1.890625q-0.34375 1.109375 -0.34375 2.578125l0 3.625q0 1.46875 0.34375 2.59375q0.359375 1.109375 1.0 1.859375q0.640625 0.765625 1.546875 1.15625q0.921875 0.375 2.0625 0.375q1.140625 0 2.046875 -0.375q0.921875 -0.390625 1.5625 -1.15625q0.640625 -0.75 0.96875 -1.859375q0.34375 -1.125 0.34375 -2.59375zm-6.953125 -1.25q0 -0.328125 0 -0.484375q0 -0.171875 0 -0.671875l0 -1.6875q0 -0.828125 0.125 -1.4375q0.125 -0.625 0.40625 -1.015625q0.25 -0.359375 0.609375 -0.53125q0.375 -0.1875 0.859375 -0.1875q0.4375 0 0.78125 0.140625q0.359375 0.140625 0.59375 0.421875q0.3125 0.375 0.46875 0.984375q0.171875 0.609375 0.1875 1.453125l-4.03125 3.015625zm4.03125 1.6875q0 0.84375 -0.125 1.46875q-0.125 0.609375 -0.390625 1.0q-0.25 0.375 -0.625 0.5625q-0.375 0.1875 -0.859375 0.1875q-0.53125 0 -0.921875 -0.203125q-0.390625 -0.21875 -0.640625 -0.640625q-0.21875 -0.359375 -0.34375 -0.890625q-0.109375 -0.53125 -0.125 -1.21875l4.03125 -3.0q0 0.296875 0 0.46875q0 0.15625 0 0.5l0 1.765625z" fill-rule="nonzero"/><path fill="#000000" fill-opacity="0.0" d="m1372.7313 222.25839l50.8031 0l0 50.834625l-50.8031 0z" fill-rule="evenodd"/><path stroke="#b7b7b7" stroke-width="1.0" stroke-linejoin="round" stroke-linecap="butt" stroke-dasharray="4.0,3.0" d="m1372.7313 222.25839l50.8031 0l0 50.834625l-50.8031 0z" fill-rule="evenodd"/><path fill="#b7b7b7" d="m1400.2959 255.15572l0 -15.15625l-0.15625 0l-6.609375 2.375l0 2.515625l3.84375 -1.359375l0 11.625l2.921875 0z" fill-rule="nonzero"/><path fill="#000000" fill-opacity="0.0" d="m1124.3518 160.14615l50.8031 0l0 50.83464l-50.8031 0z" fill-rule="evenodd"/><path fill="#b7b7b7" d="m1154.9633 187.52785l0 -2.34375l-8.671875 0l0 2.34375l8.671875 0z" fill-rule="nonzero"/><path fill="#000000" fill-opacity="0.0" d="m1373.4464 160.14615l50.803223 0l0 50.83464l-50.803223 0z" fill-rule="evenodd"/><path fill="#b7b7b7" d="m1400.0579 184.59035l0 -4.109375l-2.75 0l0 4.109375l-3.828125 0l0 2.640625l3.828125 0l0 4.296875l2.75 0l0 -4.296875l3.8125 0l0 -2.640625l-3.8125 0z" fill-rule="nonzero"/><path fill="#eeeeee" d="m1574.8297 594.92053l50.803223 0l0 50.834595l-50.803223 0z" fill-rule="evenodd"/><path stroke="#595959" stroke-width="1.0" stroke-linejoin="round" stroke-linecap="butt" d="m1574.8297 594.92053l50.803223 0l0 50.834595l-50.803223 0z" fill-rule="evenodd"/><path fill="#595959" d="m1605.1757 622.0522l0 -3.625q0 -1.46875 -0.34375 -2.578125q-0.34375 -1.125 -0.984375 -1.890625q-0.640625 -0.75 -1.5625 -1.125q-0.90625 -0.390625 -2.0625 -0.390625q-1.125 0 -2.046875 0.390625q-0.90625 0.375 -1.546875 1.125q-0.640625 0.765625 -0.984375 1.890625q-0.34375 1.109375 -0.34375 2.578125l0 3.625q0 1.46875 0.34375 2.59375q0.359375 1.109375 1.0 1.859375q0.640625 0.765625 1.546875 1.15625q0.921875 0.375 2.0625 0.375q1.140625 0 2.046875 -0.375q0.921875 -0.390625 1.5625 -1.15625q0.640625 -0.75 0.96875 -1.859375q0.34375 -1.125 0.34375 -2.59375zm-6.953125 -1.25q0 -0.328125 0 -0.484375q0 -0.171875 0 -0.671875l0 -1.6875q0 -0.828125 0.125 -1.4375q0.125 -0.625 0.40625 -1.015625q0.25 -0.359375 0.609375 -0.53125q0.375 -0.1875 0.859375 -0.1875q0.4375 0 0.78125 0.140625q0.359375 0.140625 0.59375 0.421875q0.3125 0.375 0.46875 0.984375q0.171875 0.609375 0.1875 1.453125l-4.03125 3.015625zm4.03125 1.6875q0 0.84375 -0.125 1.46875q-0.125 0.609375 -0.390625 1.0q-0.25 0.375 -0.625 0.5625q-0.375 0.1875 -0.859375 0.1875q-0.53125 0 -0.921875 -0.203125q-0.390625 -0.21875 -0.640625 -0.640625q-0.21875 -0.359375 -0.34375 -0.890625q-0.109375 -0.53125 -0.125 -1.21875l4.03125 -3.0q0 0.296875 0 0.46875q0 0.15625 0 0.5l0 1.765625z" fill-rule="nonzero"/><path fill="#000000" fill-opacity="0.0" d="m1574.8295 222.25839l50.8031 0l0 50.834625l-50.8031 0z" fill-rule="evenodd"/><path stroke="#b7b7b7" stroke-width="1.0" stroke-linejoin="round" stroke-linecap="butt" stroke-dasharray="4.0,3.0" d="m1574.8295 222.25839l50.8031 0l0 50.834625l-50.8031 0z" fill-rule="evenodd"/><path fill="#b7b7b7" d="m1605.1909 255.15572l0 -15.15625l-2.9375 0l0 9.734375l-4.1875 -9.734375l-2.953125 0l0 15.15625l2.953125 0l0 -9.78125l4.21875 9.78125l2.90625 0z" fill-rule="nonzero"/><path fill="#000000" fill-opacity="0.0" d="m300.0683 222.25708l50.80316 0l0 50.834625l-50.80316 0z" fill-rule="evenodd"/><path stroke="#b7b7b7" stroke-width="1.0" stroke-linejoin="round" stroke-linecap="butt" stroke-dasharray="4.0,3.0" d="m300.0683 222.25708l50.80316 0l0 50.834625l-50.80316 0z" fill-rule="evenodd"/><path fill="#b7b7b7" d="m325.5704 245.42003l-2.65625 -5.421875l-3.421875 0l4.265625 7.515625l-4.375 7.640625l3.453125 0l2.78125 -5.515625l2.78125 5.515625l3.40625 0l-4.375 -7.640625l4.265625 -7.515625l-3.421875 0l-2.703125 5.421875z" fill-rule="nonzero"/><path fill="#eeeeee" d="m501.35345 346.4802l50.80316 0l0 50.834656l-50.80316 0z" fill-rule="evenodd"/><path stroke="#595959" stroke-width="1.0" stroke-linejoin="round" stroke-linecap="butt" d="m501.35345 346.4802l50.80316 0l0 50.834656l-50.80316 0z" fill-rule="evenodd"/><path fill="#595959" d="m527.293 379.58066q1.640625 0 2.828125 -0.625q1.203125 -0.640625 1.75 -1.421875l-1.4375 -1.5625q-0.5 0.640625 -1.3125 0.96875q-0.796875 0.328125 -1.65625 0.328125q-0.59375 0 -1.109375 -0.1875q-0.515625 -0.1875 -0.90625 -0.53125q-0.390625 -0.34375 -0.625 -0.75q-0.21875 -0.40625 -0.359375 -1.09375l0 -0.03125l7.640625 0l0 -1.21875q0 -1.25 -0.34375 -2.265625q-0.34375 -1.03125 -1.0 -1.765625q-0.671875 -0.71875 -1.625 -1.109375q-0.953125 -0.40625 -2.171875 -0.40625q-1.171875 0 -2.171875 0.421875q-1.0 0.421875 -1.734375 1.1875q-0.71875 0.78125 -1.125 1.84375q-0.40625 1.0625 -0.40625 2.359375l0 0.421875q0 1.125 0.40625 2.125q0.40625 1.0 1.171875 1.71875q0.765625 0.75 1.828125 1.171875q1.0625 0.421875 2.359375 0.421875zm-0.34375 -9.34375q0.546875 0 0.96875 0.171875q0.421875 0.171875 0.71875 0.46875q0.296875 0.296875 0.453125 0.703125q0.171875 0.40625 0.171875 0.875l0 0.21875l-4.75 0q0.109375 -0.546875 0.3125 -0.984375q0.203125 -0.453125 0.515625 -0.78125q0.3125 -0.328125 0.71875 -0.5q0.40625 -0.171875 0.890625 -0.171875z" fill-rule="nonzero"/><path fill="#000000" fill-opacity="0.0" d="m501.35345 408.59113l50.80316 0l0 50.834625l-50.80316 0z" fill-rule="evenodd"/><path stroke="#b7b7b7" stroke-width="1.0" stroke-linejoin="round" stroke-linecap="butt" stroke-dasharray="4.0,3.0" d="m501.35345 408.59113l50.80316 0l0 50.834625l-50.80316 0z" fill-rule="evenodd"/><path fill="#000000" fill-opacity="0.0" d="m625.89923 346.47888l50.80316 0l0 50.834656l-50.80316 0z" fill-rule="evenodd"/><path stroke="#b7b7b7" stroke-width="1.0" stroke-linejoin="round" stroke-linecap="butt" stroke-dasharray="4.0,3.0" d="m625.89923 346.47888l50.80316 0l0 50.834656l-50.80316 0z" fill-rule="evenodd"/><path fill="#000000" fill-opacity="0.0" d="m750.44635 346.4802l50.80316 0l0 50.834656l-50.80316 0z" fill-rule="evenodd"/><path stroke="#b7b7b7" stroke-width="1.0" stroke-linejoin="round" stroke-linecap="butt" stroke-dasharray="4.0,3.0" d="m750.44635 346.4802l50.80316 0l0 50.834656l-50.80316 0z" fill-rule="evenodd"/><path fill="#000000" fill-opacity="0.0" d="m750.44635 408.59113l50.80316 0l0 50.834625l-50.80316 0z" fill-rule="evenodd"/><path stroke="#b7b7b7" stroke-width="1.0" stroke-linejoin="round" stroke-linecap="butt" stroke-dasharray="4.0,3.0" d="m750.44635 408.59113l50.80316 0l0 50.834625l-50.80316 0z" fill-rule="evenodd"/><path fill="#000000" fill-opacity="0.0" d="m501.051 222.25839l50.80313 0l0 50.834625l-50.80313 0z" fill-rule="evenodd"/><path stroke="#b7b7b7" stroke-width="1.0" stroke-linejoin="round" stroke-linecap="butt" stroke-dasharray="4.0,3.0" d="m501.051 222.25839l50.80313 0l0 50.834625l-50.80313 0z" fill-rule="evenodd"/><path fill="#b7b7b7" d="m528.6156 255.15572l0 -15.15625l-0.15625 0l-6.609375 2.375l0 2.515625l3.84375 -1.359375l0 11.625l2.921875 0z" fill-rule="nonzero"/><path fill="#000000" fill-opacity="0.0" d="m625.31506 222.25839l50.80316 0l0 50.834625l-50.80316 0z" fill-rule="evenodd"/><path stroke="#b7b7b7" stroke-width="1.0" stroke-linejoin="round" stroke-linecap="butt" stroke-dasharray="4.0,3.0" d="m625.31506 222.25839l50.80316 0l0 50.834625l-50.80316 0z" fill-rule="evenodd"/><path fill="#b7b7b7" d="m655.6609 249.39009l0 -3.625q0 -1.46875 -0.34375 -2.578125q-0.34375 -1.125 -0.984375 -1.890625q-0.640625 -0.75 -1.5625 -1.125q-0.90625 -0.390625 -2.0625 -0.390625q-1.125 0 -2.046875 0.390625q-0.90625 0.375 -1.546875 1.125q-0.640625 0.765625 -0.984375 1.890625q-0.34375 1.109375 -0.34375 2.578125l0 3.625q0 1.46875 0.34375 2.59375q0.359375 1.109375 1.0 1.859375q0.640625 0.765625 1.546875 1.15625q0.921875 0.375 2.0625 0.375q1.140625 0 2.046875 -0.375q0.921875 -0.390625 1.5625 -1.15625q0.640625 -0.75 0.96875 -1.859375q0.34375 -1.125 0.34375 -2.59375zm-6.953125 -1.25q0 -0.328125 0 -0.484375q0 -0.171875 0 -0.671875l0 -1.6875q0 -0.828125 0.125 -1.4375q0.125 -0.625 0.40625 -1.015625q0.25 -0.359375 0.609375 -0.53125q0.375 -0.1875 0.859375 -0.1875q0.4375 0 0.78125 0.140625q0.359375 0.140625 0.59375 0.421875q0.3125 0.375 0.46875 0.984375q0.171875 0.609375 0.1875 1.453125l-4.03125 3.015625zm4.03125 1.6875q0 0.84375 -0.125 1.46875q-0.125 0.609375 -0.390625 1.0q-0.25 0.375 -0.625 0.5625q-0.375 0.1875 -0.859375 0.1875q-0.53125 0 -0.921875 -0.203125q-0.390625 -0.21875 -0.640625 -0.640625q-0.21875 -0.359375 -0.34375 -0.890625q-0.109375 -0.53125 -0.125 -1.21875l4.03125 -3.0q0 0.296875 0 0.46875q0 0.15625 0 0.5l0 1.765625z" fill-rule="nonzero"/><path fill="#000000" fill-opacity="0.0" d="m749.73267 222.25839l50.8031 0l0 50.834625l-50.8031 0z" fill-rule="evenodd"/><path stroke="#b7b7b7" stroke-width="1.0" stroke-linejoin="round" stroke-linecap="butt" stroke-dasharray="4.0,3.0" d="m749.73267 222.25839l50.8031 0l0 50.834625l-50.8031 0z" fill-rule="evenodd"/><path fill="#b7b7b7" d="m777.29724 255.15572l0 -15.15625l-0.15625 0l-6.609375 2.375l0 2.515625l3.84375 -1.359375l0 11.625l2.921875 0z" fill-rule="nonzero"/><path fill="#000000" fill-opacity="0.0" d="m501.35306 160.14615l50.803192 0l0 50.83464l-50.803192 0z" fill-rule="evenodd"/><path fill="#b7b7b7" d="m531.96454 187.52785l0 -2.34375l-8.671875 0l0 2.34375l8.671875 0z" fill-rule="nonzero"/><path fill="#000000" fill-opacity="0.0" d="m750.44775 160.14615l50.80316 0l0 50.83464l-50.80316 0z" fill-rule="evenodd"/><path fill="#b7b7b7" d="m777.0592 184.59035l0 -4.109375l-2.75 0l0 4.109375l-3.828125 0l0 2.640625l3.828125 0l0 4.296875l2.75 0l0 -4.296875l3.8125 0l0 -2.640625l-3.8125 0z" fill-rule="nonzero"/><path fill="#eeeeee" d="m625.9006 408.58984l50.80316 0l0 50.834625l-50.80316 0z" fill-rule="evenodd"/><path stroke="#595959" stroke-width="1.0" stroke-linejoin="round" stroke-linecap="butt" d="m625.9006 408.58984l50.80316 0l0 50.834625l-50.80316 0z" fill-rule="evenodd"/><path fill="#595959" d="m646.3714 441.48715l2.90625 0l0 -8.015625q0.140625 -0.21875 0.3125 -0.40625q0.1875 -0.1875 0.40625 -0.328125q0.265625 -0.1875 0.609375 -0.28125q0.359375 -0.09375 0.78125 -0.09375q0.5 0 0.890625 0.109375q0.390625 0.09375 0.671875 0.34375q0.28125 0.25 0.4375 0.6875q0.15625 0.421875 0.15625 1.09375l0 6.890625l2.890625 0l0 -6.9375q0 -1.234375 -0.296875 -2.09375q-0.28125 -0.859375 -0.78125 -1.40625q-0.53125 -0.53125 -1.234375 -0.78125q-0.703125 -0.25 -1.5625 -0.25q-0.671875 0 -1.265625 0.1875q-0.59375 0.1875 -1.09375 0.53125q-0.28125 0.203125 -0.546875 0.46875q-0.265625 0.265625 -0.484375 0.578125l-0.171875 -1.5625l-2.625 0l0 11.265625z" fill-rule="nonzero"/><path fill="#eeeeee" d="m1124.297 563.866l50.803223 0l0 50.834656l-50.803223 0z" fill-rule="evenodd"/><path stroke="#595959" stroke-width="1.0" stroke-linejoin="round" stroke-linecap="butt" d="m1124.297 563.866l50.803223 0l0 50.834656l-50.803223 0z" fill-rule="evenodd"/><path fill="#595959" d="m1150.2366 596.9665q1.640625 0 2.828125 -0.625q1.203125 -0.640625 1.75 -1.421875l-1.4375 -1.5625q-0.5 0.640625 -1.3125 0.96875q-0.796875 0.328125 -1.65625 0.328125q-0.59375 0 -1.109375 -0.1875q-0.515625 -0.1875 -0.90625 -0.53125q-0.390625 -0.34375 -0.625 -0.75q-0.21875 -0.40625 -0.359375 -1.09375l0 -0.03125l7.640625 0l0 -1.21875q0 -1.25 -0.34375 -2.265625q-0.34375 -1.03125 -1.0 -1.765625q-0.671875 -0.71875 -1.625 -1.109375q-0.953125 -0.40625 -2.171875 -0.40625q-1.171875 0 -2.171875 0.421875q-1.0 0.421875 -1.734375 1.1875q-0.71875 0.78125 -1.125 1.84375q-0.40625 1.0625 -0.40625 2.359375l0 0.421875q0 1.125 0.40625 2.125q0.40625 1.0 1.171875 1.71875q0.765625 0.75 1.828125 1.171875q1.0625 0.421875 2.359375 0.421875zm-0.34375 -9.34375q0.546875 0 0.96875 0.171875q0.421875 0.171875 0.71875 0.46875q0.296875 0.296875 0.453125 0.703125q0.171875 0.40625 0.171875 0.875l0 0.21875l-4.75 0q0.109375 -0.546875 0.3125 -0.984375q0.203125 -0.453125 0.515625 -0.78125q0.3125 -0.328125 0.71875 -0.5q0.40625 -0.171875 0.890625 -0.171875z" fill-rule="nonzero"/><path fill="#eeeeee" d="m300.0775 843.3628l50.80316 0l0 50.834656l-50.80316 0z" fill-rule="evenodd"/><path stroke="#595959" stroke-width="1.0" stroke-linejoin="round" stroke-linecap="butt" d="m300.0775 843.3628l50.80316 0l0 50.834656l-50.80316 0z" fill-rule="evenodd"/><path fill="#595959" d="m327.64212 876.26013l0 -15.15625l-0.15625 0l-6.609375 2.375l0 2.515625l3.84375 -1.359375l0 11.625l2.921875 0z" fill-rule="nonzero"/><path fill="#000000" fill-opacity="0.0" d="m625.93335 781.2558l50.80316 0l0 50.834656l-50.80316 0z" fill-rule="evenodd"/><path stroke="#b7b7b7" stroke-width="1.0" stroke-linejoin="round" stroke-linecap="butt" stroke-dasharray="4.0,3.0" d="m625.93335 781.2558l50.80316 0l0 50.834656l-50.80316 0z" fill-rule="evenodd"/><path fill="#000000" fill-opacity="0.0" d="m625.9071 843.3661l50.80316 0l0 50.834595l-50.80316 0z" fill-rule="evenodd"/><path stroke="#b7b7b7" stroke-width="1.0" stroke-linejoin="round" stroke-linecap="butt" stroke-dasharray="4.0,3.0" d="m625.9071 843.3661l50.80316 0l0 50.834595l-50.80316 0z" fill-rule="evenodd"/><path fill="#000000" fill-opacity="0.0" d="m859.98553 346.479l0 0c2.501831 0 4.901184 0.99383545 6.670227 2.7628784c1.769043 1.769043 2.7628784 4.1683655 2.7628784 6.6701965l0 37.606293c0 5.2097473 4.2233276 9.433075 9.433044 9.433075l0 0c-5.209717 0 -9.433044 4.2233276 -9.433044 9.433075l0 37.606293c0 5.2097473 -4.2233276 9.433075 -9.433105 9.433075z" fill-rule="evenodd"/><path fill="#000000" fill-opacity="0.0" d="m859.98553 346.479l0 0c2.501831 0 4.901184 0.99383545 6.670227 2.7628784c1.769043 1.769043 2.7628784 4.1683655 2.7628784 6.6701965l0 37.606293c0 5.2097473 4.2233276 9.433075 9.433044 9.433075l0 0c-5.209717 0 -9.433044 4.2233276 -9.433044 9.433075l0 37.606293c0 5.2097473 -4.2233276 9.433075 -9.433105 9.433075" fill-rule="evenodd"/><path stroke="#b7b7b7" stroke-width="1.0" stroke-linejoin="round" stroke-linecap="butt" stroke-dasharray="4.0,3.0" d="m859.98553 346.479l0 0c2.501831 0 4.901184 0.99383545 6.670227 2.7628784c1.769043 1.769043 2.7628784 4.1683655 2.7628784 6.6701965l0 37.606293c0 5.2097473 4.2233276 9.433075 9.433044 9.433075l0 0c-5.209717 0 -9.433044 4.2233276 -9.433044 9.433075l0 37.606293c0 5.2097473 -4.2233276 9.433075 -9.433105 9.433075" fill-rule="evenodd"/><path fill="#000000" fill-opacity="0.0" d="m860.0801 781.2533l0 0c2.50177 0 4.901123 0.99383545 6.670166 2.7628784c1.769043 1.769043 2.7628784 4.168396 2.7628784 6.670166l0 37.606323c0 5.209717 4.2233276 9.433044 9.433044 9.433044l0 0c-5.209717 0 -9.433044 4.2233276 -9.433044 9.433105l0 37.606262c0 5.209778 -4.2233276 9.433105 -9.433044 9.433105z" fill-rule="evenodd"/><path fill="#000000" fill-opacity="0.0" d="m860.0801 781.2533l0 0c2.50177 0 4.901123 0.99383545 6.670166 2.7628784c1.769043 1.769043 2.7628784 4.168396 2.7628784 6.670166l0 37.606323c0 5.209717 4.2233276 9.433044 9.433044 9.433044l0 0c-5.209717 0 -9.433044 4.2233276 -9.433044 9.433105l0 37.606262c0 5.209778 -4.2233276 9.433105 -9.433044 9.433105" fill-rule="evenodd"/><path stroke="#b7b7b7" stroke-width="1.0" stroke-linejoin="round" stroke-linecap="butt" stroke-dasharray="4.0,3.0" d="m860.0801 781.2533l0 0c2.50177 0 4.901123 0.99383545 6.670166 2.7628784c1.769043 1.769043 2.7628784 4.168396 2.7628784 6.670166l0 37.606323c0 5.209717 4.2233276 9.433044 9.433044 9.433044l0 0c-5.209717 0 -9.433044 4.2233276 -9.433044 9.433105l0 37.606262c0 5.209778 -4.2233276 9.433105 -9.433044 9.433105" fill-rule="evenodd"/><path fill="#000000" fill-opacity="0.0" d="m1047.3215 376.51706l0 0c2.501831 0 4.901123 0.99383545 6.670166 2.7628784c1.769043 1.769043 2.7629395 4.1683655 2.7629395 6.6701965l0 223.93701c0 5.209717 4.2232666 9.433044 9.432983 9.433044l0 0c-5.209717 0 -9.432983 4.2233276 -9.432983 9.433105l0 223.93701c0 5.209717 -4.2233887 9.433044 -9.433105 9.433044z" fill-rule="evenodd"/><path fill="#000000" fill-opacity="0.0" d="m1047.3215 376.51706l0 0c2.501831 0 4.901123 0.99383545 6.670166 2.7628784c1.769043 1.769043 2.7629395 4.1683655 2.7629395 6.6701965l0 223.93701c0 5.209717 4.2232666 9.433044 9.432983 9.433044l0 0c-5.209717 0 -9.432983 4.2233276 -9.432983 9.433105l0 223.93701c0 5.209717 -4.2233887 9.433044 -9.433105 9.433044" fill-rule="evenodd"/><path stroke="#b7b7b7" stroke-width="1.0" stroke-linejoin="round" stroke-linecap="butt" stroke-dasharray="4.0,3.0" d="m1047.3215 376.51706l0 0c2.501831 0 4.901123 0.99383545 6.670166 2.7628784c1.769043 1.769043 2.7629395 4.1683655 2.7629395 6.6701965l0 223.93701c0 5.209717 4.2232666 9.433044 9.432983 9.433044l0 0c-5.209717 0 -9.432983 4.2233276 -9.432983 9.433105l0 223.93701c0 5.209717 -4.2233887 9.433044 -9.433105 9.433044" fill-rule="evenodd"/><path fill="#000000" fill-opacity="0.0" d="m1490.1063 563.86615l0 0c2.501831 0 4.901123 0.99383545 6.670166 2.7628784c1.769043 1.769043 2.7629395 4.168396 2.7629395 6.670166l0 37.606323c0 5.209717 4.2232666 9.433044 9.432983 9.433044l0 0c-5.209717 0 -9.432983 4.2233276 -9.432983 9.433105l0 37.606262c0 5.209778 -4.2233887 9.433105 -9.433105 9.433105z" fill-rule="evenodd"/><path fill="#000000" fill-opacity="0.0" d="m1490.1063 563.86615l0 0c2.501831 0 4.901123 0.99383545 6.670166 2.7628784c1.769043 1.769043 2.7629395 4.168396 2.7629395 6.670166l0 37.606323c0 5.209717 4.2232666 9.433044 9.432983 9.433044l0 0c-5.209717 0 -9.432983 4.2233276 -9.432983 9.433105l0 37.606262c0 5.209778 -4.2233887 9.433105 -9.433105 9.433105" fill-rule="evenodd"/><path stroke="#b7b7b7" stroke-width="1.0" stroke-linejoin="round" stroke-linecap="butt" stroke-dasharray="4.0,3.0" d="m1490.1063 563.86615l0 0c2.501831 0 4.901123 0.99383545 6.670166 2.7628784c1.769043 1.769043 2.7629395 4.168396 2.7629395 6.670166l0 37.606323c0 5.209717 4.2232666 9.433044 9.432983 9.433044l0 0c-5.209717 0 -9.432983 4.2233276 -9.432983 9.433105l0 37.606262c0 5.209778 -4.2233887 9.433105 -9.433105 9.433105" fill-rule="evenodd"/><path fill="#000000" fill-opacity="0.0" d="m416.6824 346.479l0 0c2.501831 0 4.9011536 0.99383545 6.6701965 2.7628784c1.769043 1.769043 2.7628784 4.1683655 2.7628784 6.6701965l0 37.606293c0 5.2097473 4.2233276 9.433075 9.433075 9.433075l0 0c-5.2097473 0 -9.433075 4.2233276 -9.433075 9.433075l0 37.606293c0 5.2097473 -4.2233276 9.433075 -9.433075 9.433075z" fill-rule="evenodd"/><path fill="#000000" fill-opacity="0.0" d="m416.6824 346.479l0 0c2.501831 0 4.9011536 0.99383545 6.6701965 2.7628784c1.769043 1.769043 2.7628784 4.1683655 2.7628784 6.6701965l0 37.606293c0 5.2097473 4.2233276 9.433075 9.433075 9.433075l0 0c-5.2097473 0 -9.433075 4.2233276 -9.433075 9.433075l0 37.606293c0 5.2097473 -4.2233276 9.433075 -9.433075 9.433075" fill-rule="evenodd"/><path stroke="#b7b7b7" stroke-width="1.0" stroke-linejoin="round" stroke-linecap="butt" stroke-dasharray="4.0,3.0" d="m416.6824 346.479l0 0c2.501831 0 4.9011536 0.99383545 6.6701965 2.7628784c1.769043 1.769043 2.7628784 4.1683655 2.7628784 6.6701965l0 37.606293c0 5.2097473 4.2233276 9.433075 9.433075 9.433075l0 0c-5.2097473 0 -9.433075 4.2233276 -9.433075 9.433075l0 37.606293c0 5.2097473 -4.2233276 9.433075 -9.433075 9.433075" fill-rule="evenodd"/><path fill="#000000" fill-opacity="0.0" d="m416.68634 781.2533l0 0c2.501831 0 4.9011536 0.99383545 6.6701965 2.7628784c1.769043 1.769043 2.7628784 4.168396 2.7628784 6.670166l0 37.606323c0 5.209717 4.2233276 9.433044 9.433075 9.433044l0 0c-5.2097473 0 -9.433075 4.2233276 -9.433075 9.433105l0 37.606262c0 5.209778 -4.2233276 9.433105 -9.433075 9.433105z" fill-rule="evenodd"/><path fill="#000000" fill-opacity="0.0" d="m416.68634 781.2533l0 0c2.501831 0 4.9011536 0.99383545 6.6701965 2.7628784c1.769043 1.769043 2.7628784 4.168396 2.7628784 6.670166l0 37.606323c0 5.209717 4.2233276 9.433044 9.433075 9.433044l0 0c-5.2097473 0 -9.433075 4.2233276 -9.433075 9.433105l0 37.606262c0 5.209778 -4.2233276 9.433105 -9.433075 9.433105" fill-rule="evenodd"/><path stroke="#b7b7b7" stroke-width="1.0" stroke-linejoin="round" stroke-linecap="butt" stroke-dasharray="4.0,3.0" d="m416.68634 781.2533l0 0c2.501831 0 4.9011536 0.99383545 6.6701965 2.7628784c1.769043 1.769043 2.7628784 4.168396 2.7628784 6.670166l0 37.606323c0 5.209717 4.2233276 9.433044 9.433075 9.433044l0 0c-5.2097473 0 -9.433075 4.2233276 -9.433075 9.433105l0 37.606262c0 5.209778 -4.2233276 9.433105 -9.433075 9.433105" fill-rule="evenodd"/><path fill="#000000" fill-opacity="0.0" d="m937.23236 221.24002l50.8031 0l0 50.834625l-50.8031 0z" fill-rule="evenodd"/><path stroke="#b7b7b7" stroke-width="1.0" stroke-linejoin="round" stroke-linecap="butt" stroke-dasharray="4.0,3.0" d="m937.23236 221.24002l50.8031 0l0 50.834625l-50.8031 0z" fill-rule="evenodd"/><path fill="#b7b7b7" d="m967.5938 254.13734l0 -15.15625l-2.9375 0l0 9.734375l-4.1875 -9.734375l-2.953125 0l0 15.15625l2.953125 0l0 -9.78125l4.21875 9.78125l2.90625 0z" fill-rule="nonzero"/><path fill="#000000" fill-opacity="0.0" d="m469.6769 967.5854l362.0787 0l0 50.834656l-362.0787 0z" fill-rule="evenodd"/><path fill="#595959" d="m611.411 995.7327l-2.921875 0q-0.046875 0.6875 -0.234375 1.1875q-0.1875 0.484375 -0.5 0.796875q-0.328125 0.3125 -0.796875 0.453125q-0.453125 0.140625 -1.015625 0.140625q-0.4375 0 -0.78125 -0.09375q-0.34375 -0.09375 -0.625 -0.3125q-0.265625 -0.1875 -0.46875 -0.46875q-0.203125 -0.28125 -0.34375 -0.640625q-0.21875 -0.53125 -0.3125 -1.234375q-0.09375 -0.71875 -0.09375 -1.625l0 -2.0625q0 -0.671875 0.0625 -1.25q0.0625 -0.578125 0.1875 -1.046875q0.1875 -0.625 0.484375 -1.078125q0.296875 -0.46875 0.71875 -0.71875q0.25 -0.140625 0.546875 -0.21875q0.296875 -0.078125 0.640625 -0.078125q0.640625 0 1.109375 0.171875q0.46875 0.171875 0.78125 0.515625q0.296875 0.34375 0.453125 0.859375q0.171875 0.5 0.203125 1.171875l2.921875 0q-0.109375 -1.1875 -0.515625 -2.125q-0.390625 -0.953125 -1.0625 -1.609375q-0.6875 -0.65625 -1.671875 -1.0q-0.96875 -0.359375 -2.21875 -0.359375q-0.84375 0 -1.578125 0.21875q-0.734375 0.203125 -1.34375 0.59375q-0.6875 0.46875 -1.234375 1.15625q-0.546875 0.671875 -0.875 1.53125q-0.296875 0.71875 -0.4375 1.546875q-0.140625 0.8125 -0.140625 1.734375l0 2.046875q0 0.96875 0.15625 1.84375q0.15625 0.875 0.46875 1.609375q0.3125 0.734375 0.765625 1.34375q0.453125 0.59375 1.03125 1.015625q0.640625 0.46875 1.4375 0.71875q0.796875 0.234375 1.734375 0.234375q1.1875 0 2.15625 -0.34375q0.984375 -0.359375 1.6875 -1.0q0.703125 -0.640625 1.125 -1.5625q0.421875 -0.921875 0.5 -2.0625zm2.9865112 -11.25l0 2.375l3.375 0l0 11.265625l-3.375 0l0 2.359375l9.515625 0l0 -2.359375l-3.21875 0l0 -13.640625l-6.296875 0zm19.23645 16.0l2.921875 0l0 -0.171875q-0.21875 -0.4375 -0.328125 -1.03125q-0.109375 -0.59375 -0.109375 -1.5l0 -4.828125q0 -0.984375 -0.375 -1.71875q-0.359375 -0.75 -1.0 -1.234375q-0.640625 -0.484375 -1.53125 -0.734375q-0.875 -0.25 -1.890625 -0.25q-1.140625 0 -2.03125 0.28125q-0.875 0.28125 -1.46875 0.765625q-0.625 0.5 -0.9375 1.140625q-0.3125 0.640625 -0.3125 1.359375l2.890625 0q0 -0.296875 0.078125 -0.546875q0.09375 -0.25 0.28125 -0.421875q0.21875 -0.203125 0.546875 -0.3125q0.328125 -0.109375 0.796875 -0.109375q0.515625 0 0.90625 0.140625q0.390625 0.125 0.65625 0.359375q0.25 0.234375 0.375 0.546875q0.125 0.3125 0.125 0.71875l0 0.65625l-1.625 0q-1.25 0 -2.21875 0.234375q-0.953125 0.21875 -1.609375 0.640625q-0.734375 0.46875 -1.09375 1.203125q-0.359375 0.71875 -0.359375 1.65625q0 0.734375 0.28125 1.359375q0.296875 0.609375 0.8125 1.0625q0.53125 0.4375 1.25 0.6875q0.71875 0.25 1.59375 0.25q0.53125 0 0.984375 -0.09375q0.453125 -0.09375 0.84375 -0.28125q0.375 -0.15625 0.6875 -0.390625q0.3125 -0.234375 0.546875 -0.484375q0.0625 0.296875 0.125 0.578125q0.078125 0.265625 0.1875 0.46875zm-2.765625 -2.03125q-0.40625 0 -0.71875 -0.09375q-0.296875 -0.109375 -0.515625 -0.265625q-0.203125 -0.1875 -0.3125 -0.4375q-0.109375 -0.25 -0.109375 -0.5625q0 -0.375 0.140625 -0.703125q0.15625 -0.328125 0.453125 -0.578125q0.296875 -0.21875 0.78125 -0.34375q0.484375 -0.140625 1.15625 -0.140625l1.484375 0l0 1.9375q-0.125 0.21875 -0.34375 0.4375q-0.21875 0.203125 -0.53125 0.375q-0.296875 0.171875 -0.671875 0.28125q-0.375 0.09375 -0.8125 0.09375zm15.877075 2.03125l2.609375 0l0 -11.265625l-2.890625 0l0 7.90625q-0.140625 0.265625 -0.328125 0.484375q-0.1875 0.21875 -0.421875 0.375q-0.28125 0.171875 -0.65625 0.265625q-0.375 0.09375 -0.828125 0.09375q-0.515625 0 -0.875 -0.125q-0.34375 -0.125 -0.5625 -0.40625q-0.21875 -0.28125 -0.328125 -0.75q-0.09375 -0.46875 -0.09375 -1.15625l0 -6.6875l-2.890625 0l0 6.65625q0 1.28125 0.28125 2.203125q0.296875 0.90625 0.8125 1.484375q0.515625 0.59375 1.25 0.875q0.734375 0.265625 1.609375 0.265625q0.953125 0 1.75 -0.46875q0.8125 -0.484375 1.390625 -1.328125l0.171875 1.578125zm12.7052 -3.09375q0 0.265625 -0.125 0.484375q-0.125 0.21875 -0.390625 0.375q-0.265625 0.171875 -0.6875 0.28125q-0.421875 0.09375 -0.984375 0.09375q-0.46875 0 -0.921875 -0.09375q-0.4375 -0.09375 -0.78125 -0.3125q-0.34375 -0.1875 -0.5625 -0.515625q-0.21875 -0.328125 -0.25 -0.796875l-2.765625 0q0 0.6875 0.34375 1.375q0.34375 0.6875 1.0 1.21875q0.65625 0.53125 1.625 0.875q0.96875 0.328125 2.25 0.328125q1.15625 0 2.09375 -0.25q0.9375 -0.265625 1.59375 -0.71875q0.65625 -0.453125 1.015625 -1.078125q0.359375 -0.640625 0.359375 -1.390625q0 -0.8125 -0.359375 -1.390625q-0.359375 -0.59375 -0.984375 -1.015625q-0.640625 -0.40625 -1.515625 -0.65625q-0.875 -0.265625 -1.890625 -0.4375q-0.71875 -0.109375 -1.171875 -0.25q-0.453125 -0.140625 -0.71875 -0.3125q-0.265625 -0.171875 -0.375 -0.375q-0.109375 -0.21875 -0.109375 -0.46875q0 -0.25 0.125 -0.46875q0.125 -0.234375 0.34375 -0.390625q0.25 -0.1875 0.640625 -0.296875q0.40625 -0.109375 0.9375 -0.109375q0.625 0 1.0625 0.15625q0.453125 0.15625 0.703125 0.421875q0.1875 0.203125 0.28125 0.453125q0.09375 0.234375 0.09375 0.515625l2.890625 0q0 -0.78125 -0.34375 -1.4375q-0.34375 -0.671875 -0.984375 -1.171875q-0.65625 -0.46875 -1.59375 -0.734375q-0.9375 -0.28125 -2.109375 -0.28125q-1.125 0 -2.03125 0.28125q-0.890625 0.28125 -1.515625 0.75q-0.625 0.484375 -0.953125 1.125q-0.328125 0.625 -0.328125 1.328125q0 0.71875 0.328125 1.265625q0.328125 0.546875 0.90625 0.96875q0.578125 0.421875 1.390625 0.71875q0.828125 0.296875 1.8125 0.5q0.78125 0.140625 1.296875 0.296875q0.515625 0.140625 0.828125 0.3125q0.296875 0.171875 0.40625 0.375q0.125 0.1875 0.125 0.453125zm11.002136 3.296875q1.640625 0 2.828125 -0.625q1.203125 -0.640625 1.75 -1.421875l-1.4375 -1.5625q-0.5 0.640625 -1.3125 0.96875q-0.796875 0.328125 -1.65625 0.328125q-0.59375 0 -1.109375 -0.1875q-0.515625 -0.1875 -0.90625 -0.53125q-0.390625 -0.34375 -0.625 -0.75q-0.21875 -0.40625 -0.359375 -1.09375l0 -0.03125l7.640625 0l0 -1.21875q0 -1.25 -0.34375 -2.265625q-0.34375 -1.03125 -1.0 -1.765625q-0.671875 -0.71875 -1.625 -1.109375q-0.953125 -0.40625 -2.171875 -0.40625q-1.171875 0 -2.171875 0.421875q-1.0 0.421875 -1.734375 1.1875q-0.71875 0.78125 -1.125 1.84375q-0.40625 1.0625 -0.40625 2.359375l0 0.421875q0 1.125 0.40625 2.125q0.40625 1.0 1.171875 1.71875q0.765625 0.75 1.828125 1.171875q1.0625 0.421875 2.359375 0.421875zm-0.34375 -9.34375q0.546875 0 0.96875 0.171875q0.421875 0.171875 0.71875 0.46875q0.296875 0.296875 0.453125 0.703125q0.171875 0.40625 0.171875 0.875l0 0.21875l-4.75 0q0.109375 -0.546875 0.3125 -0.984375q0.203125 -0.453125 0.515625 -0.78125q0.3125 -0.328125 0.71875 -0.5q0.40625 -0.171875 0.890625 -0.171875zm30.37915 9.140625l0 -2.328125l-6.640625 0l2.84375 -3.015625q0.75 -0.765625 1.34375 -1.453125q0.609375 -0.6875 1.046875 -1.359375q0.421875 -0.671875 0.65625 -1.34375q0.234375 -0.6875 0.234375 -1.4375q0 -0.984375 -0.3125 -1.796875q-0.3125 -0.828125 -0.90625 -1.40625q-0.59375 -0.578125 -1.484375 -0.90625q-0.890625 -0.328125 -2.046875 -0.328125q-1.21875 0 -2.21875 0.390625q-0.984375 0.390625 -1.6875 1.078125q-0.703125 0.671875 -1.09375 1.578125q-0.375 0.890625 -0.375 1.90625l2.90625 0q0 -0.609375 0.15625 -1.09375q0.15625 -0.484375 0.453125 -0.796875q0.296875 -0.3125 0.734375 -0.46875q0.4375 -0.171875 1.03125 -0.171875q0.4375 0 0.8125 0.15625q0.375 0.140625 0.640625 0.40625q0.265625 0.28125 0.40625 0.6875q0.140625 0.390625 0.140625 0.890625q0 0.34375 -0.109375 0.71875q-0.109375 0.359375 -0.34375 0.765625q-0.25 0.4375 -0.65625 0.953125q-0.390625 0.5 -0.953125 1.125l-4.90625 5.265625l0 1.984375l10.328125 0z" fill-rule="nonzero"/><path fill="#000000" fill-opacity="0.0" d="m801.3058 930.0525l0 0c0 3.211853 -1.2758789 6.2921143 -3.546997 8.563232c-2.2711182 2.2711182 -5.3514404 3.546997 -8.563232 3.546997l-125.41736 0c-6.6882935 0 -12.1102295 5.421936 -12.1102295 12.1102295l0 0c0 -6.6882935 -5.421936 -12.1102295 -12.1102295 -12.1102295l-125.4173 0c-6.688324 0 -12.11026 -5.421936 -12.11026 -12.1102295z" fill-rule="evenodd"/><path fill="#000000" fill-opacity="0.0" d="m801.3058 930.0525l0 0c0 3.211853 -1.2758789 6.2921143 -3.546997 8.563232c-2.2711182 2.2711182 -5.3514404 3.546997 -8.563232 3.546997l-125.41736 0c-6.6882935 0 -12.1102295 5.421936 -12.1102295 12.1102295l0 0c0 -6.6882935 -5.421936 -12.1102295 -12.1102295 -12.1102295l-125.4173 0c-6.688324 0 -12.11026 -5.421936 -12.11026 -12.1102295" fill-rule="evenodd"/><path stroke="#595959" stroke-width="1.0" stroke-linejoin="round" stroke-linecap="butt" d="m801.3058 930.0525l0 0c0 3.211853 -1.2758789 6.2921143 -3.546997 8.563232c-2.2711182 2.2711182 -5.3514404 3.546997 -8.563232 3.546997l-125.41736 0c-6.6882935 0 -12.1102295 5.421936 -12.1102295 12.1102295l0 0c0 -6.6882935 -5.421936 -12.1102295 -12.1102295 -12.1102295l-125.4173 0c-6.688324 0 -12.11026 -5.421936 -12.11026 -12.1102295" fill-rule="evenodd"/><path fill="#000000" fill-opacity="0.0" d="m469.6769 532.8098l362.0787 0l0 50.834656l-362.0787 0z" fill-rule="evenodd"/><path fill="#595959" d="m611.411 560.95715l-2.921875 0q-0.046875 0.6875 -0.234375 1.1875q-0.1875 0.484375 -0.5 0.796875q-0.328125 0.3125 -0.796875 0.453125q-0.453125 0.140625 -1.015625 0.140625q-0.4375 0 -0.78125 -0.09375q-0.34375 -0.09375 -0.625 -0.3125q-0.265625 -0.1875 -0.46875 -0.46875q-0.203125 -0.28125 -0.34375 -0.640625q-0.21875 -0.53125 -0.3125 -1.234375q-0.09375 -0.71875 -0.09375 -1.625l0 -2.0625q0 -0.671875 0.0625 -1.25q0.0625 -0.578125 0.1875 -1.046875q0.1875 -0.625 0.484375 -1.078125q0.296875 -0.46875 0.71875 -0.71875q0.25 -0.140625 0.546875 -0.21875q0.296875 -0.078125 0.640625 -0.078125q0.640625 0 1.109375 0.171875q0.46875 0.171875 0.78125 0.515625q0.296875 0.34375 0.453125 0.859375q0.171875 0.5 0.203125 1.171875l2.921875 0q-0.109375 -1.1875 -0.515625 -2.125q-0.390625 -0.953125 -1.0625 -1.609375q-0.6875 -0.65625 -1.671875 -1.0q-0.96875 -0.359375 -2.21875 -0.359375q-0.84375 0 -1.578125 0.21875q-0.734375 0.203125 -1.34375 0.59375q-0.6875 0.46875 -1.234375 1.15625q-0.546875 0.671875 -0.875 1.53125q-0.296875 0.71875 -0.4375 1.546875q-0.140625 0.8125 -0.140625 1.734375l0 2.046875q0 0.96875 0.15625 1.84375q0.15625 0.875 0.46875 1.609375q0.3125 0.734375 0.765625 1.34375q0.453125 0.59375 1.03125 1.015625q0.640625 0.46875 1.4375 0.71875q0.796875 0.234375 1.734375 0.234375q1.1875 0 2.15625 -0.34375q0.984375 -0.359375 1.6875 -1.0q0.703125 -0.640625 1.125 -1.5625q0.421875 -0.921875 0.5 -2.0625zm2.9865112 -11.25l0 2.375l3.375 0l0 11.265625l-3.375 0l0 2.359375l9.515625 0l0 -2.359375l-3.21875 0l0 -13.640625l-6.296875 0zm19.23645 16.0l2.921875 0l0 -0.171875q-0.21875 -0.4375 -0.328125 -1.03125q-0.109375 -0.59375 -0.109375 -1.5l0 -4.828125q0 -0.984375 -0.375 -1.71875q-0.359375 -0.75 -1.0 -1.234375q-0.640625 -0.484375 -1.53125 -0.734375q-0.875 -0.25 -1.890625 -0.25q-1.140625 0 -2.03125 0.28125q-0.875 0.28125 -1.46875 0.765625q-0.625 0.5 -0.9375 1.140625q-0.3125 0.640625 -0.3125 1.359375l2.890625 0q0 -0.296875 0.078125 -0.546875q0.09375 -0.25 0.28125 -0.421875q0.21875 -0.203125 0.546875 -0.3125q0.328125 -0.109375 0.796875 -0.109375q0.515625 0 0.90625 0.140625q0.390625 0.125 0.65625 0.359375q0.25 0.234375 0.375 0.546875q0.125 0.3125 0.125 0.71875l0 0.65625l-1.625 0q-1.25 0 -2.21875 0.234375q-0.953125 0.21875 -1.609375 0.640625q-0.734375 0.46875 -1.09375 1.203125q-0.359375 0.71875 -0.359375 1.65625q0 0.734375 0.28125 1.359375q0.296875 0.609375 0.8125 1.0625q0.53125 0.4375 1.25 0.6875q0.71875 0.25 1.59375 0.25q0.53125 0 0.984375 -0.09375q0.453125 -0.09375 0.84375 -0.28125q0.375 -0.15625 0.6875 -0.390625q0.3125 -0.234375 0.546875 -0.484375q0.0625 0.296875 0.125 0.578125q0.078125 0.265625 0.1875 0.46875zm-2.765625 -2.03125q-0.40625 0 -0.71875 -0.09375q-0.296875 -0.109375 -0.515625 -0.265625q-0.203125 -0.1875 -0.3125 -0.4375q-0.109375 -0.25 -0.109375 -0.5625q0 -0.375 0.140625 -0.703125q0.15625 -0.328125 0.453125 -0.578125q0.296875 -0.21875 0.78125 -0.34375q0.484375 -0.140625 1.15625 -0.140625l1.484375 0l0 1.9375q-0.125 0.21875 -0.34375 0.4375q-0.21875 0.203125 -0.53125 0.375q-0.296875 0.171875 -0.671875 0.28125q-0.375 0.09375 -0.8125 0.09375zm15.877075 2.03125l2.609375 0l0 -11.265625l-2.890625 0l0 7.90625q-0.140625 0.265625 -0.328125 0.484375q-0.1875 0.21875 -0.421875 0.375q-0.28125 0.171875 -0.65625 0.265625q-0.375 0.09375 -0.828125 0.09375q-0.515625 0 -0.875 -0.125q-0.34375 -0.125 -0.5625 -0.40625q-0.21875 -0.28125 -0.328125 -0.75q-0.09375 -0.46875 -0.09375 -1.15625l0 -6.6875l-2.890625 0l0 6.65625q0 1.28125 0.28125 2.203125q0.296875 0.90625 0.8125 1.484375q0.515625 0.59375 1.25 0.875q0.734375 0.265625 1.609375 0.265625q0.953125 0 1.75 -0.46875q0.8125 -0.484375 1.390625 -1.328125l0.171875 1.578125zm12.7052 -3.09375q0 0.265625 -0.125 0.484375q-0.125 0.21875 -0.390625 0.375q-0.265625 0.171875 -0.6875 0.28125q-0.421875 0.09375 -0.984375 0.09375q-0.46875 0 -0.921875 -0.09375q-0.4375 -0.09375 -0.78125 -0.3125q-0.34375 -0.1875 -0.5625 -0.515625q-0.21875 -0.328125 -0.25 -0.796875l-2.765625 0q0 0.6875 0.34375 1.375q0.34375 0.6875 1.0 1.21875q0.65625 0.53125 1.625 0.875q0.96875 0.328125 2.25 0.328125q1.15625 0 2.09375 -0.25q0.9375 -0.265625 1.59375 -0.71875q0.65625 -0.453125 1.015625 -1.078125q0.359375 -0.640625 0.359375 -1.390625q0 -0.8125 -0.359375 -1.390625q-0.359375 -0.59375 -0.984375 -1.015625q-0.640625 -0.40625 -1.515625 -0.65625q-0.875 -0.265625 -1.890625 -0.4375q-0.71875 -0.109375 -1.171875 -0.25q-0.453125 -0.140625 -0.71875 -0.3125q-0.265625 -0.171875 -0.375 -0.375q-0.109375 -0.21875 -0.109375 -0.46875q0 -0.25 0.125 -0.46875q0.125 -0.234375 0.34375 -0.390625q0.25 -0.1875 0.640625 -0.296875q0.40625 -0.109375 0.9375 -0.109375q0.625 0 1.0625 0.15625q0.453125 0.15625 0.703125 0.421875q0.1875 0.203125 0.28125 0.453125q0.09375 0.234375 0.09375 0.515625l2.890625 0q0 -0.78125 -0.34375 -1.4375q-0.34375 -0.671875 -0.984375 -1.171875q-0.65625 -0.46875 -1.59375 -0.734375q-0.9375 -0.28125 -2.109375 -0.28125q-1.125 0 -2.03125 0.28125q-0.890625 0.28125 -1.515625 0.75q-0.625 0.484375 -0.953125 1.125q-0.328125 0.625 -0.328125 1.328125q0 0.71875 0.328125 1.265625q0.328125 0.546875 0.90625 0.96875q0.578125 0.421875 1.390625 0.71875q0.828125 0.296875 1.8125 0.5q0.78125 0.140625 1.296875 0.296875q0.515625 0.140625 0.828125 0.3125q0.296875 0.171875 0.40625 0.375q0.125 0.1875 0.125 0.453125zm11.002136 3.296875q1.640625 0 2.828125 -0.625q1.203125 -0.640625 1.75 -1.421875l-1.4375 -1.5625q-0.5 0.640625 -1.3125 0.96875q-0.796875 0.328125 -1.65625 0.328125q-0.59375 0 -1.109375 -0.1875q-0.515625 -0.1875 -0.90625 -0.53125q-0.390625 -0.34375 -0.625 -0.75q-0.21875 -0.40625 -0.359375 -1.09375l0 -0.03125l7.640625 0l0 -1.21875q0 -1.25 -0.34375 -2.265625q-0.34375 -1.03125 -1.0 -1.765625q-0.671875 -0.71875 -1.625 -1.109375q-0.953125 -0.40625 -2.171875 -0.40625q-1.171875 0 -2.171875 0.421875q-1.0 0.421875 -1.734375 1.1875q-0.71875 0.78125 -1.125 1.84375q-0.40625 1.0625 -0.40625 2.359375l0 0.421875q0 1.125 0.40625 2.125q0.40625 1.0 1.171875 1.71875q0.765625 0.75 1.828125 1.171875q1.0625 0.421875 2.359375 0.421875zm-0.34375 -9.34375q0.546875 0 0.96875 0.171875q0.421875 0.171875 0.71875 0.46875q0.296875 0.296875 0.453125 0.703125q0.171875 0.40625 0.171875 0.875l0 0.21875l-4.75 0q0.109375 -0.546875 0.3125 -0.984375q0.203125 -0.453125 0.515625 -0.78125q0.3125 -0.328125 0.71875 -0.5q0.40625 -0.171875 0.890625 -0.171875zm27.56665 9.140625l0 -15.15625l-0.15625 0l-6.609375 2.375l0 2.515625l3.84375 -1.359375l0 11.625l2.921875 0z" fill-rule="nonzero"/><path fill="#000000" fill-opacity="0.0" d="m801.3058 495.27692l0 0c0 3.2118225 -1.2758789 6.2921143 -3.546997 8.563202c-2.2711182 2.2711182 -5.3514404 3.5470276 -8.563232 3.5470276l-125.41736 0c-6.6882935 0 -12.1102295 5.421936 -12.1102295 12.1102295l0 0c0 -6.6882935 -5.421936 -12.1102295 -12.1102295 -12.1102295l-125.4173 0c-6.688324 0 -12.11026 -5.421936 -12.11026 -12.1102295z" fill-rule="evenodd"/><path fill="#000000" fill-opacity="0.0" d="m801.3058 495.27692l0 0c0 3.2118225 -1.2758789 6.2921143 -3.546997 8.563202c-2.2711182 2.2711182 -5.3514404 3.5470276 -8.563232 3.5470276l-125.41736 0c-6.6882935 0 -12.1102295 5.421936 -12.1102295 12.1102295l0 0c0 -6.6882935 -5.421936 -12.1102295 -12.1102295 -12.1102295l-125.4173 0c-6.688324 0 -12.11026 -5.421936 -12.11026 -12.1102295" fill-rule="evenodd"/><path stroke="#595959" stroke-width="1.0" stroke-linejoin="round" stroke-linecap="butt" d="m801.3058 495.27692l0 0c0 3.2118225 -1.2758789 6.2921143 -3.546997 8.563202c-2.2711182 2.2711182 -5.3514404 3.5470276 -8.563232 3.5470276l-125.41736 0c-6.6882935 0 -12.1102295 5.421936 -12.1102295 12.1102295l0 0c0 -6.6882935 -5.421936 -12.1102295 -12.1102295 -12.1102295l-125.4173 0c-6.688324 0 -12.11026 -5.421936 -12.11026 -12.1102295" fill-rule="evenodd"/><path fill="#000000" fill-opacity="0.0" d="m1092.6769 749.17334l362.07874 0l0 50.834656l-362.07874 0z" fill-rule="evenodd"/><path fill="#595959" d="m1234.411 777.3207l-2.921875 0q-0.046875 0.6875 -0.234375 1.1875q-0.1875 0.484375 -0.5 0.796875q-0.328125 0.3125 -0.796875 0.453125q-0.453125 0.140625 -1.015625 0.140625q-0.4375 0 -0.78125 -0.09375q-0.34375 -0.09375 -0.625 -0.3125q-0.265625 -0.1875 -0.46875 -0.46875q-0.203125 -0.28125 -0.34375 -0.640625q-0.21875 -0.53125 -0.3125 -1.234375q-0.09375 -0.71875 -0.09375 -1.625l0 -2.0625q0 -0.671875 0.0625 -1.25q0.0625 -0.578125 0.1875 -1.046875q0.1875 -0.625 0.484375 -1.078125q0.296875 -0.46875 0.71875 -0.71875q0.25 -0.140625 0.546875 -0.21875q0.296875 -0.078125 0.640625 -0.078125q0.640625 0 1.109375 0.171875q0.46875 0.171875 0.78125 0.515625q0.296875 0.34375 0.453125 0.859375q0.171875 0.5 0.203125 1.171875l2.921875 0q-0.109375 -1.1875 -0.515625 -2.125q-0.390625 -0.953125 -1.0625 -1.609375q-0.6875 -0.65625 -1.671875 -1.0q-0.96875 -0.359375 -2.21875 -0.359375q-0.84375 0 -1.578125 0.21875q-0.734375 0.203125 -1.34375 0.59375q-0.6875 0.46875 -1.234375 1.15625q-0.546875 0.671875 -0.875 1.53125q-0.296875 0.71875 -0.4375 1.546875q-0.140625 0.8125 -0.140625 1.734375l0 2.046875q0 0.96875 0.15625 1.84375q0.15625 0.875 0.46875 1.609375q0.3125 0.734375 0.765625 1.34375q0.453125 0.59375 1.03125 1.015625q0.640625 0.46875 1.4375 0.71875q0.796875 0.234375 1.734375 0.234375q1.1875 0 2.15625 -0.34375q0.984375 -0.359375 1.6875 -1.0q0.703125 -0.640625 1.125 -1.5625q0.421875 -0.921875 0.5 -2.0625zm2.9864502 -11.25l0 2.375l3.375 0l0 11.265625l-3.375 0l0 2.359375l9.515625 0l0 -2.359375l-3.21875 0l0 -13.640625l-6.296875 0zm19.23645 16.0l2.921875 0l0 -0.171875q-0.21875 -0.4375 -0.328125 -1.03125q-0.109375 -0.59375 -0.109375 -1.5l0 -4.828125q0 -0.984375 -0.375 -1.71875q-0.359375 -0.75 -1.0 -1.234375q-0.640625 -0.484375 -1.53125 -0.734375q-0.875 -0.25 -1.890625 -0.25q-1.140625 0 -2.03125 0.28125q-0.875 0.28125 -1.46875 0.765625q-0.625 0.5 -0.9375 1.140625q-0.3125 0.640625 -0.3125 1.359375l2.890625 0q0 -0.296875 0.078125 -0.546875q0.09375 -0.25 0.28125 -0.421875q0.21875 -0.203125 0.546875 -0.3125q0.328125 -0.109375 0.796875 -0.109375q0.515625 0 0.90625 0.140625q0.390625 0.125 0.65625 0.359375q0.25 0.234375 0.375 0.546875q0.125 0.3125 0.125 0.71875l0 0.65625l-1.625 0q-1.25 0 -2.21875 0.234375q-0.953125 0.21875 -1.609375 0.640625q-0.734375 0.46875 -1.09375 1.203125q-0.359375 0.71875 -0.359375 1.65625q0 0.734375 0.28125 1.359375q0.296875 0.609375 0.8125 1.0625q0.53125 0.4375 1.25 0.6875q0.71875 0.25 1.59375 0.25q0.53125 0 0.984375 -0.09375q0.453125 -0.09375 0.84375 -0.28125q0.375 -0.15625 0.6875 -0.390625q0.3125 -0.234375 0.546875 -0.484375q0.0625 0.296875 0.125 0.578125q0.078125 0.265625 0.1875 0.46875zm-2.765625 -2.03125q-0.40625 0 -0.71875 -0.09375q-0.296875 -0.109375 -0.515625 -0.265625q-0.203125 -0.1875 -0.3125 -0.4375q-0.109375 -0.25 -0.109375 -0.5625q0 -0.375 0.140625 -0.703125q0.15625 -0.328125 0.453125 -0.578125q0.296875 -0.21875 0.78125 -0.34375q0.484375 -0.140625 1.15625 -0.140625l1.484375 0l0 1.9375q-0.125 0.21875 -0.34375 0.4375q-0.21875 0.203125 -0.53125 0.375q-0.296875 0.171875 -0.671875 0.28125q-0.375 0.09375 -0.8125 0.09375zm15.877197 2.03125l2.609375 0l0 -11.265625l-2.890625 0l0 7.90625q-0.140625 0.265625 -0.328125 0.484375q-0.1875 0.21875 -0.421875 0.375q-0.28125 0.171875 -0.65625 0.265625q-0.375 0.09375 -0.828125 0.09375q-0.515625 0 -0.875 -0.125q-0.34375 -0.125 -0.5625 -0.40625q-0.21875 -0.28125 -0.328125 -0.75q-0.09375 -0.46875 -0.09375 -1.15625l0 -6.6875l-2.890625 0l0 6.65625q0 1.28125 0.28125 2.203125q0.296875 0.90625 0.8125 1.484375q0.515625 0.59375 1.25 0.875q0.734375 0.265625 1.609375 0.265625q0.953125 0 1.75 -0.46875q0.8125 -0.484375 1.390625 -1.328125l0.171875 1.578125zm12.7052 -3.09375q0 0.265625 -0.125 0.484375q-0.125 0.21875 -0.390625 0.375q-0.265625 0.171875 -0.6875 0.28125q-0.421875 0.09375 -0.984375 0.09375q-0.46875 0 -0.921875 -0.09375q-0.4375 -0.09375 -0.78125 -0.3125q-0.34375 -0.1875 -0.5625 -0.515625q-0.21875 -0.328125 -0.25 -0.796875l-2.765625 0q0 0.6875 0.34375 1.375q0.34375 0.6875 1.0 1.21875q0.65625 0.53125 1.625 0.875q0.96875 0.328125 2.25 0.328125q1.15625 0 2.09375 -0.25q0.9375 -0.265625 1.59375 -0.71875q0.65625 -0.453125 1.015625 -1.078125q0.359375 -0.640625 0.359375 -1.390625q0 -0.8125 -0.359375 -1.390625q-0.359375 -0.59375 -0.984375 -1.015625q-0.640625 -0.40625 -1.515625 -0.65625q-0.875 -0.265625 -1.890625 -0.4375q-0.71875 -0.109375 -1.171875 -0.25q-0.453125 -0.140625 -0.71875 -0.3125q-0.265625 -0.171875 -0.375 -0.375q-0.109375 -0.21875 -0.109375 -0.46875q0 -0.25 0.125 -0.46875q0.125 -0.234375 0.34375 -0.390625q0.25 -0.1875 0.640625 -0.296875q0.40625 -0.109375 0.9375 -0.109375q0.625 0 1.0625 0.15625q0.453125 0.15625 0.703125 0.421875q0.1875 0.203125 0.28125 0.453125q0.09375 0.234375 0.09375 0.515625l2.890625 0q0 -0.78125 -0.34375 -1.4375q-0.34375 -0.671875 -0.984375 -1.171875q-0.65625 -0.46875 -1.59375 -0.734375q-0.9375 -0.28125 -2.109375 -0.28125q-1.125 0 -2.03125 0.28125q-0.890625 0.28125 -1.515625 0.75q-0.625 0.484375 -0.953125 1.125q-0.328125 0.625 -0.328125 1.328125q0 0.71875 0.328125 1.265625q0.328125 0.546875 0.90625 0.96875q0.578125 0.421875 1.390625 0.71875q0.828125 0.296875 1.8125 0.5q0.78125 0.140625 1.296875 0.296875q0.515625 0.140625 0.828125 0.3125q0.296875 0.171875 0.40625 0.375q0.125 0.1875 0.125 0.453125zm11.002075 3.296875q1.640625 0 2.828125 -0.625q1.203125 -0.640625 1.75 -1.421875l-1.4375 -1.5625q-0.5 0.640625 -1.3125 0.96875q-0.796875 0.328125 -1.65625 0.328125q-0.59375 0 -1.109375 -0.1875q-0.515625 -0.1875 -0.90625 -0.53125q-0.390625 -0.34375 -0.625 -0.75q-0.21875 -0.40625 -0.359375 -1.09375l0 -0.03125l7.640625 0l0 -1.21875q0 -1.25 -0.34375 -2.265625q-0.34375 -1.03125 -1.0 -1.765625q-0.671875 -0.71875 -1.625 -1.109375q-0.953125 -0.40625 -2.171875 -0.40625q-1.171875 0 -2.171875 0.421875q-1.0 0.421875 -1.734375 1.1875q-0.71875 0.78125 -1.125 1.84375q-0.40625 1.0625 -0.40625 2.359375l0 0.421875q0 1.125 0.40625 2.125q0.40625 1.0 1.171875 1.71875q0.765625 0.75 1.828125 1.171875q1.0625 0.421875 2.359375 0.421875zm-0.34375 -9.34375q0.546875 0 0.96875 0.171875q0.421875 0.171875 0.71875 0.46875q0.296875 0.296875 0.453125 0.703125q0.171875 0.40625 0.171875 0.875l0 0.21875l-4.75 0q0.109375 -0.546875 0.3125 -0.984375q0.203125 -0.453125 0.515625 -0.78125q0.3125 -0.328125 0.71875 -0.5q0.40625 -0.171875 0.890625 -0.171875zm23.394775 0.28125l0 2.25l1.5625 0q0.59375 0 1.0625 0.140625q0.484375 0.140625 0.828125 0.421875q0.328125 0.28125 0.5 0.71875q0.1875 0.4375 0.1875 1.046875q0 0.484375 -0.15625 0.890625q-0.140625 0.390625 -0.4375 0.65625q-0.296875 0.3125 -0.75 0.46875q-0.453125 0.15625 -1.015625 0.15625q-0.5 0 -0.921875 -0.15625q-0.40625 -0.15625 -0.703125 -0.421875q-0.3125 -0.265625 -0.484375 -0.625q-0.171875 -0.375 -0.171875 -0.8125l-2.890625 0q0 1.109375 0.421875 1.921875q0.4375 0.8125 1.15625 1.34375q0.71875 0.53125 1.640625 0.796875q0.921875 0.265625 1.890625 0.265625q1.125 0 2.09375 -0.296875q0.984375 -0.296875 1.6875 -0.859375q0.71875 -0.5625 1.109375 -1.390625q0.40625 -0.84375 0.40625 -1.90625q0 -0.609375 -0.140625 -1.140625q-0.140625 -0.546875 -0.453125 -1.0q-0.296875 -0.453125 -0.765625 -0.796875q-0.453125 -0.359375 -1.09375 -0.59375q0.546875 -0.265625 0.953125 -0.625q0.421875 -0.359375 0.703125 -0.78125q0.28125 -0.421875 0.421875 -0.890625q0.15625 -0.484375 0.15625 -0.96875q0 -1.0625 -0.375 -1.859375q-0.359375 -0.8125 -1.03125 -1.375q-0.671875 -0.53125 -1.609375 -0.8125q-0.9375 -0.28125 -2.0625 -0.28125q-1.03125 0 -1.9375 0.3125q-0.90625 0.296875 -1.5625 0.84375q-0.671875 0.546875 -1.0625 1.3125q-0.375 0.75 -0.375 1.6875l2.90625 0q0 -0.421875 0.15625 -0.75q0.171875 -0.34375 0.46875 -0.578125q0.28125 -0.234375 0.65625 -0.359375q0.375 -0.125 0.8125 -0.125q0.53125 0 0.9375 0.15625q0.40625 0.140625 0.65625 0.40625q0.265625 0.265625 0.390625 0.640625q0.140625 0.359375 0.140625 0.8125q0 0.453125 -0.140625 0.84375q-0.125 0.390625 -0.390625 0.65625q-0.28125 0.3125 -0.734375 0.484375q-0.453125 0.171875 -1.078125 0.171875l-1.5625 0z" fill-rule="nonzero"/><path fill="#000000" fill-opacity="0.0" d="m1424.3058 712.6588l0 0c0 3.211792 -1.2758789 6.2921143 -3.546997 8.563232c-2.2711182 2.2710571 -5.3514404 3.546997 -8.563232 3.546997l-125.41736 0c-6.6882324 0 -12.1102295 5.421936 -12.1102295 12.1102295l0 0c0 -6.6882935 -5.421875 -12.1102295 -12.1102295 -12.1102295l-125.41736 0c-6.6882324 0 -12.1102295 -5.421936 -12.1102295 -12.1102295z" fill-rule="evenodd"/><path fill="#000000" fill-opacity="0.0" d="m1424.3058 712.6588l0 0c0 3.211792 -1.2758789 6.2921143 -3.546997 8.563232c-2.2711182 2.2710571 -5.3514404 3.546997 -8.563232 3.546997l-125.41736 0c-6.6882324 0 -12.1102295 5.421936 -12.1102295 12.1102295l0 0c0 -6.6882935 -5.421875 -12.1102295 -12.1102295 -12.1102295l-125.41736 0c-6.6882324 0 -12.1102295 -5.421936 -12.1102295 -12.1102295" fill-rule="evenodd"/><path stroke="#595959" stroke-width="1.0" stroke-linejoin="round" stroke-linecap="butt" d="m1424.3058 712.6588l0 0c0 3.211792 -1.2758789 6.2921143 -3.546997 8.563232c-2.2711182 2.2710571 -5.3514404 3.546997 -8.563232 3.546997l-125.41736 0c-6.6882324 0 -12.1102295 5.421936 -12.1102295 12.1102295l0 0c0 -6.6882935 -5.421875 -12.1102295 -12.1102295 -12.1102295l-125.41736 0c-6.6882324 0 -12.1102295 -5.421936 -12.1102295 -12.1102295" fill-rule="evenodd"/><path fill="#000000" fill-opacity="0.0" d="m234.27296 894.19684c-6.6882935 0 -12.1102295 -5.421936 -12.1102295 -12.1102295l0 -249.63782c0 -6.6882935 -5.421936 -12.1102295 -12.110245 -12.1102295l0 0c6.6883087 0 12.110245 -5.421936 12.110245 -12.1102295l0 -249.63779l0 0c0 -6.6882935 5.421936 -12.1102295 12.1102295 -12.1102295z" fill-rule="evenodd"/><path fill="#000000" fill-opacity="0.0" d="m234.27296 894.19684c-6.6882935 0 -12.1102295 -5.421936 -12.1102295 -12.1102295l0 -249.63782c0 -6.6882935 -5.421936 -12.1102295 -12.110245 -12.1102295l0 0c6.6883087 0 12.110245 -5.421936 12.110245 -12.1102295l0 -249.63779l0 0c0 -6.6882935 5.421936 -12.1102295 12.1102295 -12.1102295" fill-rule="evenodd"/><path stroke="#595959" stroke-width="1.0" stroke-linejoin="round" stroke-linecap="butt" d="m234.27296 894.19684c-6.6882935 0 -12.1102295 -5.421936 -12.1102295 -12.1102295l0 -249.63782c0 -6.6882935 -5.421936 -12.1102295 -12.110245 -12.1102295l0 0c6.6883087 0 12.110245 -5.421936 12.110245 -12.1102295l0 -249.63779l0 0c0 -6.6882935 5.421936 -12.1102295 12.1102295 -12.1102295" fill-rule="evenodd"/><path fill="#000000" fill-opacity="0.0" d="m-163.689 594.92114l362.07874 0l0 50.834656l-362.07874 0z" fill-rule="evenodd"/><path fill="#595959" d="m17.503185 625.45905l0 -12.796875l-2.937501 0l0 15.15625l10.031251 0l0 -2.359375l-7.09375 0zm10.53334 -8.90625l0 2.359375l3.21875 0l0 6.546875l-3.21875 0l0 2.359375l9.1875 0l0 -2.359375l-3.046875 0l0 -8.90625l-6.140625 0zm3.0 -2.890625q0 0.34375 0.125 0.625q0.125 0.28125 0.34375 0.484375q0.21875 0.203125 0.515625 0.328125q0.3125 0.109375 0.6875 0.109375q0.765625 0 1.21875 -0.421875q0.453125 -0.4375 0.453125 -1.125q0 -0.671875 -0.453125 -1.09375q-0.453125 -0.4375 -1.21875 -0.4375q-0.375 0 -0.6875 0.109375q-0.296875 0.109375 -0.515625 0.3125q-0.21875 0.203125 -0.34375 0.5q-0.125 0.28125 -0.125 0.609375zm9.03334 14.15625l2.90625 0l0 -8.015625q0.140625 -0.21875 0.3125 -0.40625q0.1875 -0.1875 0.40625 -0.328125q0.265625 -0.1875 0.609375 -0.28125q0.359375 -0.09375 0.78125 -0.09375q0.5 0 0.890625 0.109375q0.390625 0.09375 0.671875 0.34375q0.28125 0.25 0.4375 0.6875q0.15625 0.421875 0.15625 1.09375l0 6.890625l2.890625 0l0 -6.9375q0 -1.234375 -0.296875 -2.09375q-0.28125 -0.859375 -0.78125 -1.40625q-0.53125 -0.53125 -1.234375 -0.78125q-0.703125 -0.25 -1.5625 -0.25q-0.671875 0 -1.265625 0.1875q-0.59375 0.1875 -1.09375 0.53125q-0.28125 0.203125 -0.546875 0.46875q-0.265625 0.265625 -0.484375 0.578125l-0.171875 -1.5625l-2.625 0l0 11.265625zm18.267715 0.203125q1.640625 0 2.828125 -0.625q1.203125 -0.640625 1.75 -1.421875l-1.4375 -1.5625q-0.5 0.640625 -1.3125 0.96875q-0.796875 0.328125 -1.65625 0.328125q-0.59375 0 -1.109375 -0.1875q-0.515625 -0.1875 -0.90625 -0.53125q-0.390625 -0.34375 -0.625 -0.75q-0.21875 -0.40625 -0.359375 -1.09375l0 -0.03125l7.640625 0l0 -1.21875q0 -1.25 -0.34375 -2.265625q-0.34375 -1.03125 -1.0 -1.765625q-0.671875 -0.71875 -1.625 -1.109375q-0.953125 -0.40625 -2.171875 -0.40625q-1.171875 0 -2.171875 0.421875q-1.0 0.421875 -1.734375 1.1875q-0.71875 0.78125 -1.125 1.84375q-0.40625 1.0625 -0.40625 2.359375l0 0.421875q0 1.125 0.40625 2.125q0.40625 1.0 1.171875 1.71875q0.765625 0.75 1.828125 1.171875q1.0625 0.421875 2.359375 0.421875zm-0.34375 -9.34375q0.546875 0 0.96875 0.171875q0.421875 0.171875 0.71875 0.46875q0.296875 0.296875 0.453125 0.703125q0.171875 0.40625 0.171875 0.875l0 0.21875l-4.75 0q0.109375 -0.546875 0.3125 -0.984375q0.203125 -0.453125 0.515625 -0.78125q0.3125 -0.328125 0.71875 -0.5q0.40625 -0.171875 0.890625 -0.171875zm14.720837 9.140625l2.921875 0l0 -0.171875q-0.21875 -0.4375 -0.328125 -1.03125q-0.109375 -0.59375 -0.109375 -1.5l0 -4.828125q0 -0.984375 -0.375 -1.71875q-0.359375 -0.75 -1.0 -1.234375q-0.640625 -0.484375 -1.53125 -0.734375q-0.875 -0.25 -1.890625 -0.25q-1.140625 0 -2.03125 0.28125q-0.875 0.28125 -1.46875 0.765625q-0.625 0.5 -0.9375 1.140625q-0.3125 0.640625 -0.3125 1.359375l2.890625 0q0 -0.296875 0.078125 -0.546875q0.09375 -0.25 0.28125 -0.421875q0.21875 -0.203125 0.546875 -0.3125q0.328125 -0.109375 0.796875 -0.109375q0.515625 0 0.90625 0.140625q0.390625 0.125 0.65625 0.359375q0.25 0.234375 0.375 0.546875q0.125 0.3125 0.125 0.71875l0 0.65625l-1.625 0q-1.25 0 -2.21875 0.234375q-0.953125 0.21875 -1.609375 0.640625q-0.734375 0.46875 -1.09375 1.203125q-0.359375 0.71875 -0.359375 1.65625q0 0.734375 0.28125 1.359375q0.296875 0.609375 0.8125 1.0625q0.53125 0.4375 1.25 0.6875q0.71875 0.25 1.59375 0.25q0.53125 0 0.984375 -0.09375q0.453125 -0.09375 0.84375 -0.28125q0.375 -0.15625 0.6875 -0.390625q0.3125 -0.234375 0.546875 -0.484375q0.0625 0.296875 0.125 0.578125q0.078125 0.265625 0.1875 0.46875zm-2.765625 -2.03125q-0.40625 0 -0.71875 -0.09375q-0.296875 -0.109375 -0.515625 -0.265625q-0.203125 -0.1875 -0.3125 -0.4375q-0.109375 -0.25 -0.109375 -0.5625q0 -0.375 0.140625 -0.703125q0.15625 -0.328125 0.453125 -0.578125q0.296875 -0.21875 0.78125 -0.34375q0.484375 -0.140625 1.15625 -0.140625l1.484375 0l0 1.9375q-0.125 0.21875 -0.34375 0.4375q-0.21875 0.203125 -0.53125 0.375q-0.296875 0.171875 -0.671875 0.28125q-0.375 0.09375 -0.8125 0.09375zm16.611465 -9.4375q-1.140625 0 -2.09375 0.546875q-0.953125 0.53125 -1.640625 1.5l-0.03125 -0.25l-0.109375 -1.59375l-2.703125 0l0 11.265625l2.90625 0l0 -6.765625q0.1875 -0.484375 0.484375 -0.828125q0.3125 -0.359375 0.734375 -0.59375q0.359375 -0.203125 0.8125 -0.296875q0.453125 -0.09375 1.015625 -0.09375q0.546875 0 1.140625 0.0625q0.59375 0.0625 1.171875 0.203125l0.421875 -2.875q-0.34375 -0.109375 -0.90625 -0.1875q-0.546875 -0.09375 -1.203125 -0.09375zm20.988556 -3.6875l-3.625 0l0 15.15625l2.6875 0l0 -4.484375l-0.125 -6.8125l1.78125 6.296875l1.4375 0l2.0 -6.578125l-0.125 7.09375l0 4.484375l2.671875 0l0 -15.15625l-3.625 0l-1.640625 5.6875l-1.4375 -5.6875zm8.923981 9.421875l0 0.21875q0 1.234375 0.34375 2.28125q0.359375 1.046875 1.046875 1.8125q0.671875 0.78125 1.671875 1.21875q1.0 0.421875 2.265625 0.421875q1.265625 0 2.25 -0.421875q0.984375 -0.4375 1.671875 -1.21875q0.671875 -0.765625 1.015625 -1.8125q0.359375 -1.046875 0.359375 -2.28125l0 -0.21875q0 -1.234375 -0.359375 -2.28125q-0.34375 -1.046875 -1.015625 -1.8125q-0.6875 -0.78125 -1.6875 -1.203125q-0.984375 -0.4375 -2.25 -0.4375q-1.28125 0 -2.265625 0.4375q-0.984375 0.421875 -1.65625 1.203125q-0.6875 0.765625 -1.046875 1.8125q-0.34375 1.046875 -0.34375 2.28125zm2.890625 0.21875l0 -0.21875q0 -0.6875 0.125 -1.296875q0.140625 -0.625 0.4375 -1.09375q0.296875 -0.46875 0.75 -0.734375q0.453125 -0.28125 1.109375 -0.28125q0.65625 0 1.109375 0.28125q0.453125 0.265625 0.75 0.734375q0.28125 0.46875 0.40625 1.09375q0.140625 0.609375 0.140625 1.296875l0 0.21875q0 0.703125 -0.140625 1.328125q-0.125 0.609375 -0.40625 1.078125q-0.296875 0.46875 -0.75 0.734375q-0.453125 0.265625 -1.09375 0.265625q-0.65625 0 -1.125 -0.265625q-0.453125 -0.265625 -0.75 -0.734375q-0.296875 -0.46875 -0.4375 -1.078125q-0.125 -0.625 -0.125 -1.328125zm10.002083 -0.203125l0 0.21875q0 1.234375 0.296875 2.28125q0.296875 1.046875 0.875 1.796875q0.5625 0.765625 1.375 1.203125q0.828125 0.421875 1.859375 0.421875q0.9375 0 1.65625 -0.359375q0.71875 -0.359375 1.25 -1.015625l0.15625 1.171875l2.609375 0l0 -16.0l-2.90625 0l0 5.734375q-0.515625 -0.578125 -1.1875 -0.890625q-0.671875 -0.3125 -1.5625 -0.3125q-1.046875 0 -1.875 0.421875q-0.8125 0.40625 -1.390625 1.15625q-0.5625 0.765625 -0.859375 1.828125q-0.296875 1.0625 -0.296875 2.34375zm2.890625 0.21875l0 -0.21875q0 -0.703125 0.125 -1.328125q0.125 -0.625 0.390625 -1.09375q0.28125 -0.453125 0.703125 -0.71875q0.4375 -0.265625 1.046875 -0.265625q0.75 0 1.234375 0.328125q0.484375 0.3125 0.78125 0.875l0 4.5625q-0.296875 0.5625 -0.796875 0.890625q-0.484375 0.328125 -1.234375 0.328125q-0.609375 0 -1.046875 -0.265625q-0.421875 -0.265625 -0.6875 -0.71875q-0.28125 -0.453125 -0.40625 -1.0625q-0.109375 -0.609375 -0.109375 -1.3125zm17.564575 5.5l2.609375 0l0 -11.265625l-2.890625 0l0 7.90625q-0.140625 0.265625 -0.328125 0.484375q-0.1875 0.21875 -0.421875 0.375q-0.28125 0.171875 -0.65625 0.265625q-0.375 0.09375 -0.828125 0.09375q-0.515625 0 -0.875 -0.125q-0.34375 -0.125 -0.5625 -0.40625q-0.21875 -0.28125 -0.328125 -0.75q-0.09375 -0.46875 -0.09375 -1.15625l0 -6.6875l-2.890625 0l0 6.65625q0 1.28125 0.28125 2.203125q0.296875 0.90625 0.8125 1.484375q0.515625 0.59375 1.25 0.875q0.734375 0.265625 1.609375 0.265625q0.953125 0 1.75 -0.46875q0.8125 -0.484375 1.390625 -1.328125l0.171875 1.578125zm6.0489807 -16.0l0 2.375l3.375 0l0 11.265625l-3.375 0l0 2.359375l9.515625 0l0 -2.359375l-3.21875 0l0 -13.640625l-6.296875 0zm17.658356 16.203125q1.640625 0 2.828125 -0.625q1.203125 -0.640625 1.75 -1.421875l-1.4375 -1.5625q-0.5 0.640625 -1.3125 0.96875q-0.796875 0.328125 -1.65625 0.328125q-0.59375 0 -1.109375 -0.1875q-0.515625 -0.1875 -0.90625 -0.53125q-0.390625 -0.34375 -0.625 -0.75q-0.21875 -0.40625 -0.359375 -1.09375l0 -0.03125l7.640625 0l0 -1.21875q0 -1.25 -0.34375 -2.265625q-0.34375 -1.03125 -1.0 -1.765625q-0.671875 -0.71875 -1.625 -1.109375q-0.953125 -0.40625 -2.171875 -0.40625q-1.171875 0 -2.171875 0.421875q-1.0 0.421875 -1.734375 1.1875q-0.71875 0.78125 -1.125 1.84375q-0.40625 1.0625 -0.40625 2.359375l0 0.421875q0 1.125 0.40625 2.125q0.40625 1.0 1.171875 1.71875q0.765625 0.75 1.828125 1.171875q1.0625 0.421875 2.359375 0.421875zm-0.34375 -9.34375q0.546875 0 0.96875 0.171875q0.421875 0.171875 0.71875 0.46875q0.296875 0.296875 0.453125 0.703125q0.171875 0.40625 0.171875 0.875l0 0.21875l-4.75 0q0.109375 -0.546875 0.3125 -0.984375q0.203125 -0.453125 0.515625 -0.78125q0.3125 -0.328125 0.71875 -0.5q0.40625 -0.171875 0.890625 -0.171875z" fill-rule="nonzero"/><path fill="#000000" fill-opacity="0.0" d="m501.94357 148.87138c0 -6.6882935 5.421936 -12.1102295 12.11026 -12.1102295l436.9134 0c6.6882935 0 12.1102295 -5.421936 12.1102295 -12.110237l0 0c0 6.688301 5.421936 12.110237 12.1102295 12.110237l436.9134 0l0 0c6.6882324 0 12.1102295 5.421936 12.1102295 12.1102295z" fill-rule="evenodd"/><path fill="#000000" fill-opacity="0.0" d="m501.94357 148.87138c0 -6.6882935 5.421936 -12.1102295 12.11026 -12.1102295l436.9134 0c6.6882935 0 12.1102295 -5.421936 12.1102295 -12.110237l0 0c0 6.688301 5.421936 12.110237 12.1102295 12.110237l436.9134 0l0 0c6.6882324 0 12.1102295 5.421936 12.1102295 12.1102295" fill-rule="evenodd"/><path stroke="#595959" stroke-width="1.0" stroke-linejoin="round" stroke-linecap="butt" d="m501.94357 148.87138c0 -6.6882935 5.421936 -12.1102295 12.11026 -12.1102295l436.9134 0c6.6882935 0 12.1102295 -5.421936 12.1102295 -12.110237l0 0c0 6.688301 5.421936 12.110237 12.1102295 12.110237l436.9134 0l0 0c6.6882324 0 12.1102295 5.421936 12.1102295 12.1102295" fill-rule="evenodd"/><path fill="#000000" fill-opacity="0.0" d="m781.5955 62.540787l362.0788 0l0 50.83465l-362.0788 0z" fill-rule="evenodd"/><path fill="#595959" d="m891.2229 93.672485l0 -5.984375l-5.421875 0l0 2.1875l2.5 0l0 2.75q-0.125 0.140625 -0.34375 0.265625q-0.21875 0.109375 -0.515625 0.203125q-0.296875 0.09375 -0.625 0.15625q-0.328125 0.046875 -0.671875 0.046875q-0.5625 -0.015625 -1.015625 -0.1875q-0.4375 -0.171875 -0.765625 -0.5q-0.203125 -0.203125 -0.375 -0.453125q-0.15625 -0.265625 -0.28125 -0.5625q-0.1875 -0.515625 -0.296875 -1.1875q-0.109375 -0.6875 -0.109375 -1.515625l0 -2.078125q0 -0.65625 0.078125 -1.21875q0.078125 -0.5625 0.21875 -1.015625q0.1875 -0.59375 0.46875 -1.03125q0.296875 -0.4375 0.640625 -0.703125q0.28125 -0.203125 0.59375 -0.296875q0.3125 -0.109375 0.640625 -0.109375q0.609375 0 1.046875 0.15625q0.453125 0.15625 0.75 0.484375q0.25 0.296875 0.40625 0.71875q0.15625 0.421875 0.21875 0.96875l2.859375 0q-0.125 -1.078125 -0.5 -1.953125q-0.359375 -0.875 -1.015625 -1.5q-0.65625 -0.59375 -1.609375 -0.921875q-0.953125 -0.328125 -2.234375 -0.328125q-0.828125 0 -1.578125 0.234375q-0.75 0.234375 -1.390625 0.671875q-0.53125 0.40625 -0.984375 0.953125q-0.453125 0.53125 -0.796875 1.203125q-0.375 0.765625 -0.578125 1.703125q-0.1875 0.921875 -0.1875 2.0l0 2.0625q0 1.140625 0.203125 2.109375q0.203125 0.96875 0.59375 1.734375q0.34375 0.703125 0.84375 1.25q0.5 0.53125 1.09375 0.90625q0.625 0.375 1.359375 0.5625q0.734375 0.1875 1.5625 0.1875q0.953125 0 1.78125 -0.171875q0.84375 -0.171875 1.515625 -0.46875q0.671875 -0.28125 1.15625 -0.625q0.484375 -0.359375 0.765625 -0.703125zm10.5802 -9.703125q-1.140625 0 -2.09375 0.546875q-0.953125 0.53125 -1.640625 1.5l-0.03125 -0.25l-0.109375 -1.59375l-2.703125 0l0 11.265625l2.90625 0l0 -6.765625q0.1875 -0.484375 0.484375 -0.828125q0.3125 -0.359375 0.734375 -0.59375q0.359375 -0.203125 0.8125 -0.296875q0.453125 -0.09375 1.015625 -0.09375q0.546875 0 1.140625 0.0625q0.59375 0.0625 1.171875 0.203125l0.421875 -2.875q-0.34375 -0.109375 -0.90625 -0.1875q-0.546875 -0.09375 -1.203125 -0.09375zm11.752075 11.46875l2.921875 0l0 -0.171875q-0.21875 -0.4375 -0.328125 -1.03125q-0.109375 -0.59375 -0.109375 -1.5l0 -4.828125q0 -0.984375 -0.375 -1.71875q-0.359375 -0.75 -1.0 -1.234375q-0.640625 -0.484375 -1.53125 -0.734375q-0.875 -0.25 -1.890625 -0.25q-1.140625 0 -2.03125 0.28125q-0.875 0.28125 -1.46875 0.765625q-0.625 0.5 -0.9375 1.140625q-0.3125 0.640625 -0.3125 1.359375l2.890625 0q0 -0.296875 0.078125 -0.546875q0.09375 -0.25 0.28125 -0.421875q0.21875 -0.203125 0.546875 -0.3125q0.328125 -0.109375 0.796875 -0.109375q0.515625 0 0.90625 0.140625q0.390625 0.125 0.65625 0.359375q0.25 0.234375 0.375 0.546875q0.125 0.3125 0.125 0.71875l0 0.65625l-1.625 0q-1.25 0 -2.21875 0.234375q-0.953125 0.21875 -1.609375 0.640625q-0.734375 0.46875 -1.09375 1.203125q-0.359375 0.71875 -0.359375 1.65625q0 0.734375 0.28125 1.359375q0.296875 0.609375 0.8125 1.0625q0.53125 0.4375 1.25 0.6875q0.71875 0.25 1.59375 0.25q0.53125 0 0.984375 -0.09375q0.453125 -0.09375 0.84375 -0.28125q0.375 -0.15625 0.6875 -0.390625q0.3125 -0.234375 0.546875 -0.484375q0.0625 0.296875 0.125 0.578125q0.078125 0.265625 0.1875 0.46875zm-2.765625 -2.03125q-0.40625 0 -0.71875 -0.09375q-0.296875 -0.109375 -0.515625 -0.265625q-0.203125 -0.1875 -0.3125 -0.4375q-0.109375 -0.25 -0.109375 -0.5625q0 -0.375 0.140625 -0.703125q0.15625 -0.328125 0.453125 -0.578125q0.296875 -0.21875 0.78125 -0.34375q0.484375 -0.140625 1.15625 -0.140625l1.484375 0l0 1.9375q-0.125 0.21875 -0.34375 0.4375q-0.21875 0.203125 -0.53125 0.375q-0.296875 0.171875 -0.671875 0.28125q-0.375 0.09375 -0.8125 0.09375zm8.564575 6.359375l2.890625 0l0 -5.3125q0.203125 0.21875 0.421875 0.40625q0.21875 0.171875 0.453125 0.3125q0.40625 0.234375 0.875 0.34375q0.484375 0.125 1.046875 0.125q1.0625 0 1.875 -0.4375q0.828125 -0.4375 1.390625 -1.203125q0.546875 -0.765625 0.828125 -1.8125q0.296875 -1.046875 0.296875 -2.28125l0 -0.21875q0 -1.28125 -0.296875 -2.328125q-0.28125 -1.0625 -0.84375 -1.828125q-0.5625 -0.75 -1.390625 -1.15625q-0.8125 -0.40625 -1.890625 -0.40625q-0.515625 0 -0.96875 0.109375q-0.453125 0.109375 -0.828125 0.296875q-0.3125 0.171875 -0.59375 0.390625q-0.265625 0.21875 -0.484375 0.5l-0.109375 -1.09375l-2.671875 0l0 15.59375zm7.1875 -10.078125l0 0.21875q0 0.703125 -0.125 1.328125q-0.125 0.609375 -0.40625 1.078125q-0.265625 0.46875 -0.703125 0.75q-0.421875 0.265625 -1.046875 0.265625q-0.375 0 -0.6875 -0.078125q-0.3125 -0.078125 -0.5625 -0.234375q-0.25 -0.15625 -0.4375 -0.375q-0.1875 -0.21875 -0.328125 -0.484375l0 -4.703125q0.140625 -0.296875 0.34375 -0.515625q0.203125 -0.21875 0.484375 -0.359375q0.234375 -0.125 0.515625 -0.1875q0.296875 -0.078125 0.65625 -0.078125q0.609375 0 1.046875 0.265625q0.4375 0.25 0.71875 0.703125q0.265625 0.453125 0.390625 1.078125q0.140625 0.625 0.140625 1.328125zm8.455261 -3.96875l0 -6.28125l-2.890625 0l0 16.0l2.890625 0l0 -8.140625q0.171875 -0.21875 0.375 -0.390625q0.203125 -0.171875 0.453125 -0.296875q0.265625 -0.15625 0.59375 -0.21875q0.34375 -0.078125 0.734375 -0.078125q0.5 0 0.890625 0.140625q0.390625 0.125 0.671875 0.390625q0.28125 0.265625 0.4375 0.703125q0.15625 0.4375 0.15625 1.046875l0 6.84375l2.890625 0l0 -6.828125q0 -1.234375 -0.296875 -2.109375q-0.296875 -0.890625 -0.828125 -1.453125q-0.53125 -0.546875 -1.28125 -0.8125q-0.734375 -0.265625 -1.609375 -0.265625q-0.609375 0 -1.15625 0.171875q-0.53125 0.171875 -0.984375 0.5q-0.296875 0.203125 -0.5625 0.484375q-0.265625 0.265625 -0.484375 0.59375zm17.17395 6.625q0 0.265625 -0.125 0.484375q-0.125 0.21875 -0.390625 0.375q-0.265625 0.171875 -0.6875 0.28125q-0.421875 0.09375 -0.984375 0.09375q-0.46875 0 -0.921875 -0.09375q-0.4375 -0.09375 -0.78125 -0.3125q-0.34375 -0.1875 -0.5625 -0.515625q-0.21875 -0.328125 -0.25 -0.796875l-2.765625 0q0 0.6875 0.34375 1.375q0.34375 0.6875 1.0 1.21875q0.65625 0.53125 1.625 0.875q0.96875 0.328125 2.25 0.328125q1.15625 0 2.09375 -0.25q0.9375 -0.265625 1.59375 -0.71875q0.65625 -0.453125 1.015625 -1.078125q0.359375 -0.640625 0.359375 -1.390625q0 -0.8125 -0.359375 -1.390625q-0.359375 -0.59375 -0.984375 -1.015625q-0.640625 -0.40625 -1.515625 -0.65625q-0.875 -0.265625 -1.890625 -0.4375q-0.71875 -0.109375 -1.171875 -0.25q-0.453125 -0.140625 -0.71875 -0.3125q-0.265625 -0.171875 -0.375 -0.375q-0.109375 -0.21875 -0.109375 -0.46875q0 -0.25 0.125 -0.46875q0.125 -0.234375 0.34375 -0.390625q0.25 -0.1875 0.640625 -0.296875q0.40625 -0.109375 0.9375 -0.109375q0.625 0 1.0625 0.15625q0.453125 0.15625 0.703125 0.421875q0.1875 0.203125 0.28125 0.453125q0.09375 0.234375 0.09375 0.515625l2.890625 0q0 -0.78125 -0.34375 -1.4375q-0.34375 -0.671875 -0.984375 -1.171875q-0.65625 -0.46875 -1.59375 -0.734375q-0.9375 -0.28125 -2.109375 -0.28125q-1.125 0 -2.03125 0.28125q-0.890625 0.28125 -1.515625 0.75q-0.625 0.484375 -0.953125 1.125q-0.328125 0.625 -0.328125 1.328125q0 0.71875 0.328125 1.265625q0.328125 0.546875 0.90625 0.96875q0.578125 0.421875 1.390625 0.71875q0.828125 0.296875 1.8125 0.5q0.78125 0.140625 1.296875 0.296875q0.515625 0.140625 0.828125 0.3125q0.296875 0.171875 0.40625 0.375q0.125 0.1875 0.125 0.453125zm21.81665 -12.0625l-3.625 0l0 15.15625l2.6875 0l0 -4.484375l-0.125 -6.8125l1.78125 6.296875l1.4375 0l2.0 -6.578125l-0.125 7.09375l0 4.484375l2.671875 0l0 -15.15625l-3.625 0l-1.640625 5.6875l-1.4375 -5.6875zm8.924011 9.421875l0 0.21875q0 1.234375 0.34375 2.28125q0.359375 1.046875 1.046875 1.8125q0.671875 0.78125 1.671875 1.21875q1.0 0.421875 2.265625 0.421875q1.265625 0 2.25 -0.421875q0.984375 -0.4375 1.671875 -1.21875q0.671875 -0.765625 1.015625 -1.8125q0.359375 -1.046875 0.359375 -2.28125l0 -0.21875q0 -1.234375 -0.359375 -2.28125q-0.34375 -1.046875 -1.015625 -1.8125q-0.6875 -0.78125 -1.6875 -1.203125q-0.984375 -0.4375 -2.25 -0.4375q-1.28125 0 -2.265625 0.4375q-0.984375 0.421875 -1.65625 1.203125q-0.6875 0.765625 -1.046875 1.8125q-0.34375 1.046875 -0.34375 2.28125zm2.890625 0.21875l0 -0.21875q0 -0.6875 0.125 -1.296875q0.140625 -0.625 0.4375 -1.09375q0.296875 -0.46875 0.75 -0.734375q0.453125 -0.28125 1.109375 -0.28125q0.65625 0 1.109375 0.28125q0.453125 0.265625 0.75 0.734375q0.28125 0.46875 0.40625 1.09375q0.140625 0.609375 0.140625 1.296875l0 0.21875q0 0.703125 -0.140625 1.328125q-0.125 0.609375 -0.40625 1.078125q-0.296875 0.46875 -0.75 0.734375q-0.453125 0.265625 -1.09375 0.265625q-0.65625 0 -1.125 -0.265625q-0.453125 -0.265625 -0.75 -0.734375q-0.296875 -0.46875 -0.4375 -1.078125q-0.125 -0.625 -0.125 -1.328125zm10.002075 -0.203125l0 0.21875q0 1.234375 0.296875 2.28125q0.296875 1.046875 0.875 1.796875q0.5625 0.765625 1.375 1.203125q0.828125 0.421875 1.859375 0.421875q0.9375 0 1.65625 -0.359375q0.71875 -0.359375 1.25 -1.015625l0.15625 1.171875l2.609375 0l0 -16.0l-2.90625 0l0 5.734375q-0.515625 -0.578125 -1.1875 -0.890625q-0.671875 -0.3125 -1.5625 -0.3125q-1.046875 0 -1.875 0.421875q-0.8125 0.40625 -1.390625 1.15625q-0.5625 0.765625 -0.859375 1.828125q-0.296875 1.0625 -0.296875 2.34375zm2.890625 0.21875l0 -0.21875q0 -0.703125 0.125 -1.328125q0.125 -0.625 0.390625 -1.09375q0.28125 -0.453125 0.703125 -0.71875q0.4375 -0.265625 1.046875 -0.265625q0.75 0 1.234375 0.328125q0.484375 0.3125 0.78125 0.875l0 4.5625q-0.296875 0.5625 -0.796875 0.890625q-0.484375 0.328125 -1.234375 0.328125q-0.609375 0 -1.046875 -0.265625q-0.421875 -0.265625 -0.6875 -0.71875q-0.28125 -0.453125 -0.40625 -1.0625q-0.109375 -0.609375 -0.109375 -1.3125zm17.564575 5.5l2.609375 0l0 -11.265625l-2.890625 0l0 7.90625q-0.140625 0.265625 -0.328125 0.484375q-0.1875 0.21875 -0.421875 0.375q-0.28125 0.171875 -0.65625 0.265625q-0.375 0.09375 -0.828125 0.09375q-0.515625 0 -0.875 -0.125q-0.34375 -0.125 -0.5625 -0.40625q-0.21875 -0.28125 -0.328125 -0.75q-0.09375 -0.46875 -0.09375 -1.15625l0 -6.6875l-2.890625 0l0 6.65625q0 1.28125 0.28125 2.203125q0.296875 0.90625 0.8125 1.484375q0.515625 0.59375 1.25 0.875q0.734375 0.265625 1.609375 0.265625q0.953125 0 1.75 -0.46875q0.8125 -0.484375 1.390625 -1.328125l0.171875 1.578125zm6.04895 -16.0l0 2.375l3.375 0l0 11.265625l-3.375 0l0 2.359375l9.515625 0l0 -2.359375l-3.21875 0l0 -13.640625l-6.296875 0zm17.658325 16.203125q1.640625 0 2.828125 -0.625q1.203125 -0.640625 1.75 -1.421875l-1.4375 -1.5625q-0.5 0.640625 -1.3125 0.96875q-0.796875 0.328125 -1.65625 0.328125q-0.59375 0 -1.109375 -0.1875q-0.515625 -0.1875 -0.90625 -0.53125q-0.390625 -0.34375 -0.625 -0.75q-0.21875 -0.40625 -0.359375 -1.09375l0 -0.03125l7.640625 0l0 -1.21875q0 -1.25 -0.34375 -2.265625q-0.34375 -1.03125 -1.0 -1.765625q-0.671875 -0.71875 -1.625 -1.109375q-0.953125 -0.40625 -2.171875 -0.40625q-1.171875 0 -2.171875 0.421875q-1.0 0.421875 -1.734375 1.1875q-0.71875 0.78125 -1.125 1.84375q-0.40625 1.0625 -0.40625 2.359375l0 0.421875q0 1.125 0.40625 2.125q0.40625 1.0 1.171875 1.71875q0.765625 0.75 1.828125 1.171875q1.0625 0.421875 2.359375 0.421875zm-0.34375 -9.34375q0.546875 0 0.96875 0.171875q0.421875 0.171875 0.71875 0.46875q0.296875 0.296875 0.453125 0.703125q0.171875 0.40625 0.171875 0.875l0 0.21875l-4.75 0q0.109375 -0.546875 0.3125 -0.984375q0.203125 -0.453125 0.515625 -0.78125q0.3125 -0.328125 0.71875 -0.5q0.40625 -0.171875 0.890625 -0.171875z" fill-rule="nonzero"/><path fill="#000000" fill-opacity="0.0" d="m1691.4868 562.8478l0 0c2.501831 0 4.901245 0.99383545 6.670288 2.7628784c1.769043 1.769043 2.7628174 4.168396 2.7628174 6.670166l0 37.606323c0 5.209717 4.2233887 9.433044 9.433105 9.433044l0 0c-5.209717 0 -9.433105 4.2233276 -9.433105 9.433105l0 37.606262c0 5.209778 -4.2232666 9.433105 -9.433105 9.433105z" fill-rule="evenodd"/><path fill="#000000" fill-opacity="0.0" d="m1691.4868 562.8478l0 0c2.501831 0 4.901245 0.99383545 6.670288 2.7628784c1.769043 1.769043 2.7628174 4.168396 2.7628174 6.670166l0 37.606323c0 5.209717 4.2233887 9.433044 9.433105 9.433044l0 0c-5.209717 0 -9.433105 4.2233276 -9.433105 9.433105l0 37.606262c0 5.209778 -4.2232666 9.433105 -9.433105 9.433105" fill-rule="evenodd"/><path stroke="#595959" stroke-width="1.0" stroke-linejoin="round" stroke-linecap="butt" d="m1691.4868 562.8478l0 0c2.501831 0 4.901245 0.99383545 6.670288 2.7628784c1.769043 1.769043 2.7628174 4.168396 2.7628174 6.670166l0 37.606323c0 5.209717 4.2233887 9.433044 9.433105 9.433044l0 0c-5.209717 0 -9.433105 4.2233276 -9.433105 9.433105l0 37.606262c0 5.209778 -4.2232666 9.433105 -9.433105 9.433105" fill-rule="evenodd"/><path fill="#000000" fill-opacity="0.0" d="m1721.6102 594.92114l362.07874 0l0 50.834656l-362.07874 0z" fill-rule="evenodd"/><path fill="#595959" d="m1745.1102 625.45905l0 -12.796875l-2.9375 0l0 15.15625l10.03125 0l0 -2.359375l-7.09375 0zm10.533325 -8.90625l0 2.359375l3.21875 0l0 6.546875l-3.21875 0l0 2.359375l9.1875 0l0 -2.359375l-3.046875 0l0 -8.90625l-6.140625 0zm3.0 -2.890625q0 0.34375 0.125 0.625q0.125 0.28125 0.34375 0.484375q0.21875 0.203125 0.515625 0.328125q0.3125 0.109375 0.6875 0.109375q0.765625 0 1.21875 -0.421875q0.453125 -0.4375 0.453125 -1.125q0 -0.671875 -0.453125 -1.09375q-0.453125 -0.4375 -1.21875 -0.4375q-0.375 0 -0.6875 0.109375q-0.296875 0.109375 -0.515625 0.3125q-0.21875 0.203125 -0.34375 0.5q-0.125 0.28125 -0.125 0.609375zm9.033325 14.15625l2.90625 0l0 -8.015625q0.140625 -0.21875 0.3125 -0.40625q0.1875 -0.1875 0.40625 -0.328125q0.265625 -0.1875 0.609375 -0.28125q0.359375 -0.09375 0.78125 -0.09375q0.5 0 0.890625 0.109375q0.390625 0.09375 0.671875 0.34375q0.28125 0.25 0.4375 0.6875q0.15625 0.421875 0.15625 1.09375l0 6.890625l2.890625 0l0 -6.9375q0 -1.234375 -0.296875 -2.09375q-0.28125 -0.859375 -0.78125 -1.40625q-0.53125 -0.53125 -1.234375 -0.78125q-0.703125 -0.25 -1.5625 -0.25q-0.671875 0 -1.265625 0.1875q-0.59375 0.1875 -1.09375 0.53125q-0.28125 0.203125 -0.546875 0.46875q-0.265625 0.265625 -0.484375 0.578125l-0.171875 -1.5625l-2.625 0l0 11.265625zm18.2677 0.203125q1.640625 0 2.828125 -0.625q1.203125 -0.640625 1.75 -1.421875l-1.4375 -1.5625q-0.5 0.640625 -1.3125 0.96875q-0.796875 0.328125 -1.65625 0.328125q-0.59375 0 -1.109375 -0.1875q-0.515625 -0.1875 -0.90625 -0.53125q-0.390625 -0.34375 -0.625 -0.75q-0.21875 -0.40625 -0.359375 -1.09375l0 -0.03125l7.640625 0l0 -1.21875q0 -1.25 -0.34375 -2.265625q-0.34375 -1.03125 -1.0 -1.765625q-0.671875 -0.71875 -1.625 -1.109375q-0.953125 -0.40625 -2.171875 -0.40625q-1.171875 0 -2.171875 0.421875q-1.0 0.421875 -1.734375 1.1875q-0.71875 0.78125 -1.125 1.84375q-0.40625 1.0625 -0.40625 2.359375l0 0.421875q0 1.125 0.40625 2.125q0.40625 1.0 1.171875 1.71875q0.765625 0.75 1.828125 1.171875q1.0625 0.421875 2.359375 0.421875zm-0.34375 -9.34375q0.546875 0 0.96875 0.171875q0.421875 0.171875 0.71875 0.46875q0.296875 0.296875 0.453125 0.703125q0.171875 0.40625 0.171875 0.875l0 0.21875l-4.75 0q0.109375 -0.546875 0.3125 -0.984375q0.203125 -0.453125 0.515625 -0.78125q0.3125 -0.328125 0.71875 -0.5q0.40625 -0.171875 0.890625 -0.171875zm14.720825 9.140625l2.921875 0l0 -0.171875q-0.21875 -0.4375 -0.328125 -1.03125q-0.109375 -0.59375 -0.109375 -1.5l0 -4.828125q0 -0.984375 -0.375 -1.71875q-0.359375 -0.75 -1.0 -1.234375q-0.640625 -0.484375 -1.53125 -0.734375q-0.875 -0.25 -1.890625 -0.25q-1.140625 0 -2.03125 0.28125q-0.875 0.28125 -1.46875 0.765625q-0.625 0.5 -0.9375 1.140625q-0.3125 0.640625 -0.3125 1.359375l2.890625 0q0 -0.296875 0.078125 -0.546875q0.09375 -0.25 0.28125 -0.421875q0.21875 -0.203125 0.546875 -0.3125q0.328125 -0.109375 0.796875 -0.109375q0.515625 0 0.90625 0.140625q0.390625 0.125 0.65625 0.359375q0.25 0.234375 0.375 0.546875q0.125 0.3125 0.125 0.71875l0 0.65625l-1.625 0q-1.25 0 -2.21875 0.234375q-0.953125 0.21875 -1.609375 0.640625q-0.734375 0.46875 -1.09375 1.203125q-0.359375 0.71875 -0.359375 1.65625q0 0.734375 0.28125 1.359375q0.296875 0.609375 0.8125 1.0625q0.53125 0.4375 1.25 0.6875q0.71875 0.25 1.59375 0.25q0.53125 0 0.984375 -0.09375q0.453125 -0.09375 0.84375 -0.28125q0.375 -0.15625 0.6875 -0.390625q0.3125 -0.234375 0.546875 -0.484375q0.0625 0.296875 0.125 0.578125q0.078125 0.265625 0.1875 0.46875zm-2.765625 -2.03125q-0.40625 0 -0.71875 -0.09375q-0.296875 -0.109375 -0.515625 -0.265625q-0.203125 -0.1875 -0.3125 -0.4375q-0.109375 -0.25 -0.109375 -0.5625q0 -0.375 0.140625 -0.703125q0.15625 -0.328125 0.453125 -0.578125q0.296875 -0.21875 0.78125 -0.34375q0.484375 -0.140625 1.15625 -0.140625l1.484375 0l0 1.9375q-0.125 0.21875 -0.34375 0.4375q-0.21875 0.203125 -0.53125 0.375q-0.296875 0.171875 -0.671875 0.28125q-0.375 0.09375 -0.8125 0.09375zm16.61145 -9.4375q-1.140625 0 -2.09375 0.546875q-0.953125 0.53125 -1.640625 1.5l-0.03125 -0.25l-0.109375 -1.59375l-2.703125 0l0 11.265625l2.90625 0l0 -6.765625q0.1875 -0.484375 0.484375 -0.828125q0.3125 -0.359375 0.734375 -0.59375q0.359375 -0.203125 0.8125 -0.296875q0.453125 -0.09375 1.015625 -0.09375q0.546875 0 1.140625 0.0625q0.59375 0.0625 1.171875 0.203125l0.421875 -2.875q-0.34375 -0.109375 -0.90625 -0.1875q-0.546875 -0.09375 -1.203125 -0.09375zm20.988647 -3.6875l-3.625 0l0 15.15625l2.6875 0l0 -4.484375l-0.125 -6.8125l1.78125 6.296875l1.4375 0l2.0 -6.578125l-0.125 7.09375l0 4.484375l2.671875 0l0 -15.15625l-3.625 0l-1.640625 5.6875l-1.4375 -5.6875zm8.92395 9.421875l0 0.21875q0 1.234375 0.34375 2.28125q0.359375 1.046875 1.046875 1.8125q0.671875 0.78125 1.671875 1.21875q1.0 0.421875 2.265625 0.421875q1.265625 0 2.25 -0.421875q0.984375 -0.4375 1.671875 -1.21875q0.671875 -0.765625 1.015625 -1.8125q0.359375 -1.046875 0.359375 -2.28125l0 -0.21875q0 -1.234375 -0.359375 -2.28125q-0.34375 -1.046875 -1.015625 -1.8125q-0.6875 -0.78125 -1.6875 -1.203125q-0.984375 -0.4375 -2.25 -0.4375q-1.28125 0 -2.265625 0.4375q-0.984375 0.421875 -1.65625 1.203125q-0.6875 0.765625 -1.046875 1.8125q-0.34375 1.046875 -0.34375 2.28125zm2.890625 0.21875l0 -0.21875q0 -0.6875 0.125 -1.296875q0.140625 -0.625 0.4375 -1.09375q0.296875 -0.46875 0.75 -0.734375q0.453125 -0.28125 1.109375 -0.28125q0.65625 0 1.109375 0.28125q0.453125 0.265625 0.75 0.734375q0.28125 0.46875 0.40625 1.09375q0.140625 0.609375 0.140625 1.296875l0 0.21875q0 0.703125 -0.140625 1.328125q-0.125 0.609375 -0.40625 1.078125q-0.296875 0.46875 -0.75 0.734375q-0.453125 0.265625 -1.09375 0.265625q-0.65625 0 -1.125 -0.265625q-0.453125 -0.265625 -0.75 -0.734375q-0.296875 -0.46875 -0.4375 -1.078125q-0.125 -0.625 -0.125 -1.328125zm10.002075 -0.203125l0 0.21875q0 1.234375 0.296875 2.28125q0.296875 1.046875 0.875 1.796875q0.5625 0.765625 1.375 1.203125q0.828125 0.421875 1.859375 0.421875q0.9375 0 1.65625 -0.359375q0.71875 -0.359375 1.25 -1.015625l0.15625 1.171875l2.609375 0l0 -16.0l-2.90625 0l0 5.734375q-0.515625 -0.578125 -1.1875 -0.890625q-0.671875 -0.3125 -1.5625 -0.3125q-1.046875 0 -1.875 0.421875q-0.8125 0.40625 -1.390625 1.15625q-0.5625 0.765625 -0.859375 1.828125q-0.296875 1.0625 -0.296875 2.34375zm2.890625 0.21875l0 -0.21875q0 -0.703125 0.125 -1.328125q0.125 -0.625 0.390625 -1.09375q0.28125 -0.453125 0.703125 -0.71875q0.4375 -0.265625 1.046875 -0.265625q0.75 0 1.234375 0.328125q0.484375 0.3125 0.78125 0.875l0 4.5625q-0.296875 0.5625 -0.796875 0.890625q-0.484375 0.328125 -1.234375 0.328125q-0.609375 0 -1.046875 -0.265625q-0.421875 -0.265625 -0.6875 -0.71875q-0.28125 -0.453125 -0.40625 -1.0625q-0.109375 -0.609375 -0.109375 -1.3125zm17.564575 5.5l2.609375 0l0 -11.265625l-2.890625 0l0 7.90625q-0.140625 0.265625 -0.328125 0.484375q-0.1875 0.21875 -0.421875 0.375q-0.28125 0.171875 -0.65625 0.265625q-0.375 0.09375 -0.828125 0.09375q-0.515625 0 -0.875 -0.125q-0.34375 -0.125 -0.5625 -0.40625q-0.21875 -0.28125 -0.328125 -0.75q-0.09375 -0.46875 -0.09375 -1.15625l0 -6.6875l-2.890625 0l0 6.65625q0 1.28125 0.28125 2.203125q0.296875 0.90625 0.8125 1.484375q0.515625 0.59375 1.25 0.875q0.734375 0.265625 1.609375 0.265625q0.953125 0 1.75 -0.46875q0.8125 -0.484375 1.390625 -1.328125l0.171875 1.578125zm6.04895 -16.0l0 2.375l3.375 0l0 11.265625l-3.375 0l0 2.359375l9.515625 0l0 -2.359375l-3.21875 0l0 -13.640625l-6.296875 0zm17.658325 16.203125q1.640625 0 2.828125 -0.625q1.203125 -0.640625 1.75 -1.421875l-1.4375 -1.5625q-0.5 0.640625 -1.3125 0.96875q-0.796875 0.328125 -1.65625 0.328125q-0.59375 0 -1.109375 -0.1875q-0.515625 -0.1875 -0.90625 -0.53125q-0.390625 -0.34375 -0.625 -0.75q-0.21875 -0.40625 -0.359375 -1.09375l0 -0.03125l7.640625 0l0 -1.21875q0 -1.25 -0.34375 -2.265625q-0.34375 -1.03125 -1.0 -1.765625q-0.671875 -0.71875 -1.625 -1.109375q-0.953125 -0.40625 -2.171875 -0.40625q-1.171875 0 -2.171875 0.421875q-1.0 0.421875 -1.734375 1.1875q-0.71875 0.78125 -1.125 1.84375q-0.40625 1.0625 -0.40625 2.359375l0 0.421875q0 1.125 0.40625 2.125q0.40625 1.0 1.171875 1.71875q0.765625 0.75 1.828125 1.171875q1.0625 0.421875 2.359375 0.421875zm-0.34375 -9.34375q0.546875 0 0.96875 0.171875q0.421875 0.171875 0.71875 0.46875q0.296875 0.296875 0.453125 0.703125q0.171875 0.40625 0.171875 0.875l0 0.21875l-4.75 0q0.109375 -0.546875 0.3125 -0.984375q0.203125 -0.453125 0.515625 -0.78125q0.3125 -0.328125 0.71875 -0.5q0.40625 -0.171875 0.890625 -0.171875z" fill-rule="nonzero"/></g></svg>