<svg version="1.1" viewBox="0.0 0.0 1920.0 1080.9606299212599" fill="none" stroke="none" stroke-linecap="square" stroke-miterlimit="10" xmlns:xlink="http://www.w3.org/1999/xlink" xmlns="http://www.w3.org/2000/svg"><clipPath id="g177cb385d92_0_0.0"><path d="m0 0l1920.0 0l0 1080.9606l-1920.0 0l0 -1080.9606z" clip-rule="nonzero"/></clipPath><g clip-path="url(#g177cb385d92_0_0.0)"><path fill="#ffffff" d="m0 0l1920.0 0l0 1080.9606l-1920.0 0z" fill-rule="evenodd"/><path fill="#eeeeee" d="m423.46396 328.73352l50.80313 0l0 50.834656l-50.80313 0z" fill-rule="evenodd"/><path stroke="#595959" stroke-width="1.0" stroke-linejoin="round" stroke-linecap="butt" d="m423.46396 328.73352l50.80313 0l0 50.834656l-50.80313 0z" fill-rule="evenodd"/><path fill="#595959" d="m453.80978 355.8652l0 -3.625q0 -1.46875 -0.34375 -2.578125q-0.34375 -1.125 -0.984375 -1.890625q-0.640625 -0.75 -1.5625 -1.125q-0.90625 -0.390625 -2.0625 -0.390625q-1.125 0 -2.046875 0.390625q-0.90625 0.375 -1.546875 1.125q-0.640625 0.765625 -0.984375 1.890625q-0.34375 1.109375 -0.34375 2.578125l0 3.625q0 1.46875 0.34375 2.59375q0.359375 1.109375 1.0 1.859375q0.640625 0.765625 1.546875 1.15625q0.921875 0.375 2.0625 0.375q1.140625 0 2.046875 -0.375q0.921875 -0.390625 1.5625 -1.15625q0.640625 -0.75 0.96875 -1.859375q0.34375 -1.125 0.34375 -2.59375zm-6.953125 -1.25q0 -0.328125 0 -0.484375q0 -0.171875 0 -0.671875l0 -1.6875q0 -0.828125 0.125 -1.4375q0.125 -0.625 0.40625 -1.015625q0.25 -0.359375 0.609375 -0.53125q0.375 -0.1875 0.859375 -0.1875q0.4375 0 0.78125 0.140625q0.359375 0.140625 0.59375 0.421875q0.3125 0.375 0.46875 0.984375q0.171875 0.609375 0.1875 1.453125l-4.03125 3.015625zm4.03125 1.6875q0 0.84375 -0.125 1.46875q-0.125 0.609375 -0.390625 1.0q-0.25 0.375 -0.625 0.5625q-0.375 0.1875 -0.859375 0.1875q-0.53125 0 -0.921875 -0.203125q-0.390625 -0.21875 -0.640625 -0.640625q-0.21875 -0.359375 -0.34375 -0.890625q-0.109375 -0.53125 -0.125 -1.21875l4.03125 -3.0q0 0.296875 0 0.46875q0 0.15625 0 0.5l0 1.765625z" fill-rule="nonzero"/><path fill="#eeeeee" d="m610.2763 328.73352l50.80316 0l0 50.834656l-50.80316 0z" fill-rule="evenodd"/><path stroke="#595959" stroke-width="1.0" stroke-linejoin="round" stroke-linecap="butt" d="m610.2763 328.73352l50.80316 0l0 50.834656l-50.80316 0z" fill-rule="evenodd"/><path fill="#595959" d="m640.62213 355.8652l0 -3.625q0 -1.46875 -0.34375 -2.578125q-0.34375 -1.125 -0.984375 -1.890625q-0.640625 -0.75 -1.5625 -1.125q-0.90625 -0.390625 -2.0625 -0.390625q-1.125 0 -2.046875 0.390625q-0.90625 0.375 -1.546875 1.125q-0.640625 0.765625 -0.984375 1.890625q-0.34375 1.109375 -0.34375 2.578125l0 3.625q0 1.46875 0.34375 2.59375q0.359375 1.109375 1.0 1.859375q0.640625 0.765625 1.546875 1.15625q0.921875 0.375 2.0625 0.375q1.140625 0 2.046875 -0.375q0.921875 -0.390625 1.5625 -1.15625q0.640625 -0.75 0.96875 -1.859375q0.34375 -1.125 0.34375 -2.59375zm-6.953125 -1.25q0 -0.328125 0 -0.484375q0 -0.171875 0 -0.671875l0 -1.6875q0 -0.828125 0.125 -1.4375q0.125 -0.625 0.40625 -1.015625q0.25 -0.359375 0.609375 -0.53125q0.375 -0.1875 0.859375 -0.1875q0.4375 0 0.78125 0.140625q0.359375 0.140625 0.59375 0.421875q0.3125 0.375 0.46875 0.984375q0.171875 0.609375 0.1875 1.453125l-4.03125 3.015625zm4.03125 1.6875q0 0.84375 -0.125 1.46875q-0.125 0.609375 -0.390625 1.0q-0.25 0.375 -0.625 0.5625q-0.375 0.1875 -0.859375 0.1875q-0.53125 0 -0.921875 -0.203125q-0.390625 -0.21875 -0.640625 -0.640625q-0.21875 -0.359375 -0.34375 -0.890625q-0.109375 -0.53125 -0.125 -1.21875l4.03125 -3.0q0 0.296875 0 0.46875q0 0.15625 0 0.5l0 1.765625z" fill-rule="nonzero"/><path fill="#eeeeee" d="m548.00476 328.73285l50.80316 0l0 50.834656l-50.80316 0z" fill-rule="evenodd"/><path stroke="#595959" stroke-width="1.0" stroke-linejoin="round" stroke-linecap="butt" d="m548.00476 328.73285l50.80316 0l0 50.834656l-50.80316 0z" fill-rule="evenodd"/><path fill="#595959" d="m578.3506 355.86453l0 -3.625q0 -1.46875 -0.34375 -2.578125q-0.34375 -1.125 -0.984375 -1.890625q-0.640625 -0.75 -1.5625 -1.125q-0.90625 -0.390625 -2.0625 -0.390625q-1.125 0 -2.046875 0.390625q-0.90625 0.375 -1.546875 1.125q-0.640625 0.765625 -0.984375 1.890625q-0.34375 1.109375 -0.34375 2.578125l0 3.625q0 1.46875 0.34375 2.59375q0.359375 1.109375 1.0 1.859375q0.640625 0.765625 1.546875 1.15625q0.921875 0.375 2.0625 0.375q1.140625 0 2.046875 -0.375q0.921875 -0.390625 1.5625 -1.15625q0.640625 -0.75 0.96875 -1.859375q0.34375 -1.125 0.34375 -2.59375zm-6.953125 -1.25q0 -0.328125 0 -0.484375q0 -0.171875 0 -0.671875l0 -1.6875q0 -0.828125 0.125 -1.4375q0.125 -0.625 0.40625 -1.015625q0.25 -0.359375 0.609375 -0.53125q0.375 -0.1875 0.859375 -0.1875q0.4375 0 0.78125 0.140625q0.359375 0.140625 0.59375 0.421875q0.3125 0.375 0.46875 0.984375q0.171875 0.609375 0.1875 1.453125l-4.03125 3.015625zm4.03125 1.6875q0 0.84375 -0.125 1.46875q-0.125 0.609375 -0.390625 1.0q-0.25 0.375 -0.625 0.5625q-0.375 0.1875 -0.859375 0.1875q-0.53125 0 -0.921875 -0.203125q-0.390625 -0.21875 -0.640625 -0.640625q-0.21875 -0.359375 -0.34375 -0.890625q-0.109375 -0.53125 -0.125 -1.21875l4.03125 -3.0q0 0.296875 0 0.46875q0 0.15625 0 0.5l0 1.765625z" fill-rule="nonzero"/><path fill="#eeeeee" d="m485.7337 328.73218l50.80316 0l0 50.834656l-50.80316 0z" fill-rule="evenodd"/><path stroke="#595959" stroke-width="1.0" stroke-linejoin="round" stroke-linecap="butt" d="m485.7337 328.73218l50.80316 0l0 50.834656l-50.80316 0z" fill-rule="evenodd"/><path fill="#595959" d="m513.2983 361.6295l0 -15.15625l-0.15625 0l-6.6093445 2.375l0 2.515625l3.84375 -1.359375l0 11.625l2.9218445 0z" fill-rule="nonzero"/><path fill="#eeeeee" d="m672.54474 328.73218l50.80316 0l0 50.834656l-50.80316 0z" fill-rule="evenodd"/><path stroke="#595959" stroke-width="1.0" stroke-linejoin="round" stroke-linecap="butt" d="m672.54474 328.73218l50.80316 0l0 50.834656l-50.80316 0z" fill-rule="evenodd"/><path fill="#595959" d="m700.1093 361.6295l0 -15.15625l-0.15625 0l-6.609375 2.375l0 2.515625l3.84375 -1.359375l0 11.625l2.921875 0z" fill-rule="nonzero"/><path fill="#000000" fill-opacity="0.0" d="m174.383 328.73285l50.803146 0l0 50.834656l-50.803146 0z" fill-rule="evenodd"/><path stroke="#b7b7b7" stroke-width="1.0" stroke-linejoin="round" stroke-linecap="butt" stroke-dasharray="4.0,3.0" d="m174.383 328.73285l50.803146 0l0 50.834656l-50.803146 0z" fill-rule="evenodd"/><path fill="#b7b7b7" d="m195.40071 346.4739l0 2.359375l2.875 0l0 10.4375l-2.875 0l0 2.359375l8.765625 0l0 -2.359375l-2.953125 0l0 -10.4375l2.953125 0l0 -2.359375l-8.765625 0z" fill-rule="nonzero"/><path fill="#000000" fill-opacity="0.0" d="m672.5209 515.06354l50.8031 0l0 50.834656l-50.8031 0z" fill-rule="evenodd"/><path stroke="#b7b7b7" stroke-width="1.0" stroke-linejoin="round" stroke-linecap="butt" stroke-dasharray="4.0,3.0" d="m672.5209 515.06354l50.8031 0l0 50.834656l-50.8031 0z" fill-rule="evenodd"/><path fill="#b7b7b7" d="m703.4136 543.2109l-2.921875 0q-0.046875 0.6875 -0.234375 1.1875q-0.1875 0.484375 -0.5 0.796875q-0.328125 0.3125 -0.796875 0.453125q-0.453125 0.140625 -1.015625 0.140625q-0.4375 0 -0.78125 -0.09375q-0.34375 -0.09375 -0.625 -0.3125q-0.265625 -0.1875 -0.46875 -0.46875q-0.203125 -0.28125 -0.34375 -0.640625q-0.21875 -0.53125 -0.3125 -1.234375q-0.09375 -0.71875 -0.09375 -1.625l0 -2.0625q0 -0.671875 0.0625 -1.25q0.0625 -0.578125 0.1875 -1.046875q0.1875 -0.625 0.484375 -1.078125q0.296875 -0.46875 0.71875 -0.71875q0.25 -0.140625 0.546875 -0.21875q0.296875 -0.078125 0.640625 -0.078125q0.640625 0 1.109375 0.171875q0.46875 0.171875 0.78125 0.515625q0.296875 0.34375 0.453125 0.859375q0.171875 0.5 0.203125 1.171875l2.921875 0q-0.109375 -1.1875 -0.515625 -2.125q-0.390625 -0.953125 -1.0625 -1.609375q-0.6875 -0.65625 -1.671875 -1.0q-0.96875 -0.359375 -2.21875 -0.359375q-0.84375 0 -1.578125 0.21875q-0.734375 0.203125 -1.34375 0.59375q-0.6875 0.46875 -1.234375 1.15625q-0.546875 0.671875 -0.875 1.53125q-0.296875 0.71875 -0.4375 1.546875q-0.140625 0.8125 -0.140625 1.734375l0 2.046875q0 0.96875 0.15625 1.84375q0.15625 0.875 0.46875 1.609375q0.3125 0.734375 0.765625 1.34375q0.453125 0.59375 1.03125 1.015625q0.640625 0.46875 1.4375 0.71875q0.796875 0.234375 1.734375 0.234375q1.1875 0 2.15625 -0.34375q0.984375 -0.359375 1.6875 -1.0q0.703125 -0.640625 1.125 -1.5625q0.421875 -0.921875 0.5 -2.0625z" fill-rule="nonzero"/><path fill="#000000" fill-opacity="0.0" d="m734.7781 515.06354l50.80316 0l0 50.834656l-50.80316 0z" fill-rule="evenodd"/><path stroke="#b7b7b7" stroke-width="1.0" stroke-linejoin="round" stroke-linecap="butt" stroke-dasharray="4.0,3.0" d="m734.7781 515.06354l50.80316 0l0 50.834656l-50.80316 0z" fill-rule="evenodd"/><path fill="#b7b7b7" d="m765.6708 543.2109l-2.921875 0q-0.046875 0.6875 -0.234375 1.1875q-0.1875 0.484375 -0.5 0.796875q-0.328125 0.3125 -0.796875 0.453125q-0.453125 0.140625 -1.015625 0.140625q-0.4375 0 -0.78125 -0.09375q-0.34375 -0.09375 -0.625 -0.3125q-0.265625 -0.1875 -0.46875 -0.46875q-0.203125 -0.28125 -0.34375 -0.640625q-0.21875 -0.53125 -0.3125 -1.234375q-0.09375 -0.71875 -0.09375 -1.625l0 -2.0625q0 -0.671875 0.0625 -1.25q0.0625 -0.578125 0.1875 -1.046875q0.1875 -0.625 0.484375 -1.078125q0.296875 -0.46875 0.71875 -0.71875q0.25 -0.140625 0.546875 -0.21875q0.296875 -0.078125 0.640625 -0.078125q0.640625 0 1.109375 0.171875q0.46875 0.171875 0.78125 0.515625q0.296875 0.34375 0.453125 0.859375q0.171875 0.5 0.203125 1.171875l2.921875 0q-0.109375 -1.1875 -0.515625 -2.125q-0.390625 -0.953125 -1.0625 -1.609375q-0.6875 -0.65625 -1.671875 -1.0q-0.96875 -0.359375 -2.21875 -0.359375q-0.84375 0 -1.578125 0.21875q-0.734375 0.203125 -1.34375 0.59375q-0.6875 0.46875 -1.234375 1.15625q-0.546875 0.671875 -0.875 1.53125q-0.296875 0.71875 -0.4375 1.546875q-0.140625 0.8125 -0.140625 1.734375l0 2.046875q0 0.96875 0.15625 1.84375q0.15625 0.875 0.46875 1.609375q0.3125 0.734375 0.765625 1.34375q0.453125 0.59375 1.03125 1.015625q0.640625 0.46875 1.4375 0.71875q0.796875 0.234375 1.734375 0.234375q1.1875 0 2.15625 -0.34375q0.984375 -0.359375 1.6875 -1.0q0.703125 -0.640625 1.125 -1.5625q0.421875 -0.921875 0.5 -2.0625z" fill-rule="nonzero"/><path fill="#000000" fill-opacity="0.0" d="m174.38063 701.3949l50.80316 0l0 50.834595l-50.80316 0z" fill-rule="evenodd"/><path stroke="#b7b7b7" stroke-width="1.0" stroke-linejoin="round" stroke-linecap="butt" stroke-dasharray="4.0,3.0" d="m174.38063 701.3949l50.80316 0l0 50.834595l-50.80316 0z" fill-rule="evenodd"/><path fill="#b7b7b7" d="m205.32022 727.8234l0 -2.203125q0 -1.03125 -0.1875 -1.9375q-0.1875 -0.921875 -0.5625 -1.703125q-0.328125 -0.671875 -0.796875 -1.234375q-0.453125 -0.5625 -1.0625 -0.953125q-0.625 -0.421875 -1.390625 -0.640625q-0.765625 -0.234375 -1.640625 -0.234375q-0.859375 0 -1.609375 0.21875q-0.734375 0.21875 -1.328125 0.625q-0.59375 0.421875 -1.0625 1.015625q-0.46875 0.578125 -0.78125 1.296875q-0.34375 0.75 -0.515625 1.65625q-0.171875 0.890625 -0.171875 1.890625l0 2.203125q0 0.9375 0.15625 1.78125q0.15625 0.84375 0.4375 1.5625q0.328125 0.78125 0.796875 1.40625q0.484375 0.609375 1.09375 1.046875q0.609375 0.421875 1.359375 0.65625q0.75 0.21875 1.640625 0.21875q0.828125 0 1.546875 -0.203125q0.734375 -0.203125 1.34375 -0.5625q0.65625 -0.421875 1.171875 -1.046875q0.53125 -0.625 0.875 -1.375q0.34375 -0.75 0.515625 -1.625q0.171875 -0.875 0.171875 -1.859375zm-2.953125 -2.234375l0 2.234375q0 0.5625 -0.0625 1.09375q-0.0625 0.515625 -0.171875 0.953125q-0.140625 0.5625 -0.390625 1.0q-0.25 0.4375 -0.59375 0.734375q-0.28125 0.234375 -0.65625 0.359375q-0.359375 0.125 -0.796875 0.125q-0.453125 0 -0.8125 -0.125q-0.359375 -0.140625 -0.640625 -0.390625q-0.3125 -0.28125 -0.53125 -0.734375q-0.21875 -0.453125 -0.34375 -1.0q-0.09375 -0.4375 -0.140625 -0.953125q-0.046875 -0.515625 -0.046875 -1.0625l0 -2.234375q0 -0.578125 0.046875 -1.109375q0.046875 -0.53125 0.15625 -0.96875q0.140625 -0.59375 0.375 -1.03125q0.25 -0.4375 0.609375 -0.71875q0.25 -0.203125 0.578125 -0.296875q0.328125 -0.109375 0.734375 -0.109375q0.4375 0 0.78125 0.109375q0.34375 0.109375 0.625 0.328125q0.359375 0.28125 0.609375 0.71875q0.265625 0.4375 0.421875 1.0q0.125 0.453125 0.1875 0.984375q0.0625 0.515625 0.0625 1.09375z" fill-rule="nonzero"/><path fill="#000000" fill-opacity="0.0" d="m610.2625 515.06415l50.80316 0l0 50.834656l-50.80316 0z" fill-rule="evenodd"/><path stroke="#b7b7b7" stroke-width="1.0" stroke-linejoin="round" stroke-linecap="butt" stroke-dasharray="4.0,3.0" d="m610.2625 515.06415l50.80316 0l0 50.834656l-50.80316 0z" fill-rule="evenodd"/><path fill="#b7b7b7" d="m641.1552 543.2115l-2.921875 0q-0.046875 0.6875 -0.234375 1.1875q-0.1875 0.484375 -0.5 0.796875q-0.328125 0.3125 -0.796875 0.453125q-0.453125 0.140625 -1.015625 0.140625q-0.4375 0 -0.78125 -0.09375q-0.34375 -0.09375 -0.625 -0.3125q-0.265625 -0.1875 -0.46875 -0.46875q-0.203125 -0.28125 -0.34375 -0.640625q-0.21875 -0.53125 -0.3125 -1.234375q-0.09375 -0.71875 -0.09375 -1.625l0 -2.0625q0 -0.671875 0.0625 -1.25q0.0625 -0.578125 0.1875 -1.046875q0.1875 -0.625 0.484375 -1.078125q0.296875 -0.46875 0.71875 -0.71875q0.25 -0.140625 0.546875 -0.21875q0.296875 -0.078125 0.640625 -0.078125q0.640625 0 1.109375 0.171875q0.46875 0.171875 0.78125 0.515625q0.296875 0.34375 0.453125 0.859375q0.171875 0.5 0.203125 1.171875l2.921875 0q-0.109375 -1.1875 -0.515625 -2.125q-0.390625 -0.953125 -1.0625 -1.609375q-0.6875 -0.65625 -1.671875 -1.0q-0.96875 -0.359375 -2.21875 -0.359375q-0.84375 0 -1.578125 0.21875q-0.734375 0.203125 -1.34375 0.59375q-0.6875 0.46875 -1.234375 1.15625q-0.546875 0.671875 -0.875 1.53125q-0.296875 0.71875 -0.4375 1.546875q-0.140625 0.8125 -0.140625 1.734375l0 2.046875q0 0.96875 0.15625 1.84375q0.15625 0.875 0.46875 1.609375q0.3125 0.734375 0.765625 1.34375q0.453125 0.59375 1.03125 1.015625q0.640625 0.46875 1.4375 0.71875q0.796875 0.234375 1.734375 0.234375q1.1875 0 2.15625 -0.34375q0.984375 -0.359375 1.6875 -1.0q0.703125 -0.640625 1.125 -1.5625q0.421875 -0.921875 0.5 -2.0625z" fill-rule="nonzero"/><path fill="#000000" fill-opacity="0.0" d="m361.2347 515.06287l50.80313 0l0 50.834656l-50.80313 0z" fill-rule="evenodd"/><path stroke="#b7b7b7" stroke-width="1.0" stroke-linejoin="round" stroke-linecap="butt" stroke-dasharray="4.0,3.0" d="m361.2347 515.06287l50.80313 0l0 50.834656l-50.80313 0z" fill-rule="evenodd"/><path fill="#b7b7b7" d="m392.1274 543.2102l-2.921875 0q-0.046875 0.6875 -0.234375 1.1875q-0.1875 0.484375 -0.5 0.796875q-0.328125 0.3125 -0.796875 0.453125q-0.453125 0.140625 -1.015625 0.140625q-0.4375 0 -0.78125 -0.09375q-0.34375 -0.09375 -0.625 -0.3125q-0.265625 -0.1875 -0.46875 -0.46875q-0.203125 -0.28125 -0.34375 -0.640625q-0.21875 -0.53125 -0.3125 -1.234375q-0.09375 -0.71875 -0.09375 -1.625l0 -2.0625q0 -0.671875 0.0625 -1.25q0.0625 -0.578125 0.1875 -1.046875q0.1875 -0.625 0.484375 -1.078125q0.296875 -0.46875 0.71875 -0.71875q0.25 -0.140625 0.546875 -0.21875q0.296875 -0.078125 0.640625 -0.078125q0.640625 0 1.109375 0.171875q0.46875 0.171875 0.78125 0.515625q0.296875 0.34375 0.453125 0.859375q0.171875 0.5 0.203125 1.171875l2.921875 0q-0.109375 -1.1875 -0.515625 -2.125q-0.390625 -0.953125 -1.0625 -1.609375q-0.6875 -0.65625 -1.671875 -1.0q-0.96875 -0.359375 -2.21875 -0.359375q-0.84375 0 -1.578125 0.21875q-0.734375 0.203125 -1.34375 0.59375q-0.6875 0.46875 -1.234375 1.15625q-0.546875 0.671875 -0.875 1.53125q-0.296875 0.71875 -0.4375 1.546875q-0.140625 0.8125 -0.140625 1.734375l0 2.046875q0 0.96875 0.15625 1.84375q0.15625 0.875 0.46875 1.609375q0.3125 0.734375 0.765625 1.34375q0.453125 0.59375 1.03125 1.015625q0.640625 0.46875 1.4375 0.71875q0.796875 0.234375 1.734375 0.234375q1.1875 0 2.15625 -0.34375q0.984375 -0.359375 1.6875 -1.0q0.703125 -0.640625 1.125 -1.5625q0.421875 -0.921875 0.5 -2.0625z" fill-rule="nonzero"/><path fill="#000000" fill-opacity="0.0" d="m423.4933 515.06287l50.80316 0l0 50.834656l-50.80316 0z" fill-rule="evenodd"/><path stroke="#b7b7b7" stroke-width="1.0" stroke-linejoin="round" stroke-linecap="butt" stroke-dasharray="4.0,3.0" d="m423.4933 515.06287l50.80316 0l0 50.834656l-50.80316 0z" fill-rule="evenodd"/><path fill="#b7b7b7" d="m454.38602 543.2102l-2.921875 0q-0.046875 0.6875 -0.234375 1.1875q-0.1875 0.484375 -0.5 0.796875q-0.328125 0.3125 -0.796875 0.453125q-0.453125 0.140625 -1.015625 0.140625q-0.4375 0 -0.78125 -0.09375q-0.34375 -0.09375 -0.625 -0.3125q-0.265625 -0.1875 -0.46875 -0.46875q-0.203125 -0.28125 -0.34375 -0.640625q-0.21875 -0.53125 -0.3125 -1.234375q-0.09375 -0.71875 -0.09375 -1.625l0 -2.0625q0 -0.671875 0.0625 -1.25q0.0625 -0.578125 0.1875 -1.046875q0.1875 -0.625 0.484375 -1.078125q0.296875 -0.46875 0.71875 -0.71875q0.25 -0.140625 0.546875 -0.21875q0.296875 -0.078125 0.640625 -0.078125q0.640625 0 1.109375 0.171875q0.46875 0.171875 0.78125 0.515625q0.296875 0.34375 0.453125 0.859375q0.171875 0.5 0.203125 1.171875l2.921875 0q-0.109375 -1.1875 -0.515625 -2.125q-0.390625 -0.953125 -1.0625 -1.609375q-0.6875 -0.65625 -1.671875 -1.0q-0.96875 -0.359375 -2.21875 -0.359375q-0.84375 0 -1.578125 0.21875q-0.734375 0.203125 -1.34375 0.59375q-0.6875 0.46875 -1.234375 1.15625q-0.546875 0.671875 -0.875 1.53125q-0.296875 0.71875 -0.4375 1.546875q-0.140625 0.8125 -0.140625 1.734375l0 2.046875q0 0.96875 0.15625 1.84375q0.15625 0.875 0.46875 1.609375q0.3125 0.734375 0.765625 1.34375q0.453125 0.59375 1.03125 1.015625q0.640625 0.46875 1.4375 0.71875q0.796875 0.234375 1.734375 0.234375q1.1875 0 2.15625 -0.34375q0.984375 -0.359375 1.6875 -1.0q0.703125 -0.640625 1.125 -1.5625q0.421875 -0.921875 0.5 -2.0625z" fill-rule="nonzero"/><path fill="#000000" fill-opacity="0.0" d="m548.00635 515.06287l50.80316 0l0 50.834656l-50.80316 0z" fill-rule="evenodd"/><path stroke="#b7b7b7" stroke-width="1.0" stroke-linejoin="round" stroke-linecap="butt" stroke-dasharray="4.0,3.0" d="m548.00635 515.06287l50.80316 0l0 50.834656l-50.80316 0z" fill-rule="evenodd"/><path fill="#b7b7b7" d="m578.89905 543.2102l-2.921875 0q-0.046875 0.6875 -0.234375 1.1875q-0.1875 0.484375 -0.5 0.796875q-0.328125 0.3125 -0.796875 0.453125q-0.453125 0.140625 -1.015625 0.140625q-0.4375 0 -0.78125 -0.09375q-0.34375 -0.09375 -0.625 -0.3125q-0.265625 -0.1875 -0.46875 -0.46875q-0.203125 -0.28125 -0.34375 -0.640625q-0.21875 -0.53125 -0.3125 -1.234375q-0.09375 -0.71875 -0.09375 -1.625l0 -2.0625q0 -0.671875 0.0625 -1.25q0.0625 -0.578125 0.1875 -1.046875q0.1875 -0.625 0.484375 -1.078125q0.296875 -0.46875 0.71875 -0.71875q0.25 -0.140625 0.546875 -0.21875q0.296875 -0.078125 0.640625 -0.078125q0.640625 0 1.109375 0.171875q0.46875 0.171875 0.78125 0.515625q0.296875 0.34375 0.453125 0.859375q0.171875 0.5 0.203125 1.171875l2.921875 0q-0.109375 -1.1875 -0.515625 -2.125q-0.390625 -0.953125 -1.0625 -1.609375q-0.6875 -0.65625 -1.671875 -1.0q-0.96875 -0.359375 -2.21875 -0.359375q-0.84375 0 -1.578125 0.21875q-0.734375 0.203125 -1.34375 0.59375q-0.6875 0.46875 -1.234375 1.15625q-0.546875 0.671875 -0.875 1.53125q-0.296875 0.71875 -0.4375 1.546875q-0.140625 0.8125 -0.140625 1.734375l0 2.046875q0 0.96875 0.15625 1.84375q0.15625 0.875 0.46875 1.609375q0.3125 0.734375 0.765625 1.34375q0.453125 0.59375 1.03125 1.015625q0.640625 0.46875 1.4375 0.71875q0.796875 0.234375 1.734375 0.234375q1.1875 0 2.15625 -0.34375q0.984375 -0.359375 1.6875 -1.0q0.703125 -0.640625 1.125 -1.5625q0.421875 -0.921875 0.5 -2.0625z" fill-rule="nonzero"/><path fill="#000000" fill-opacity="0.0" d="m485.75052 515.06287l50.80313 0l0 50.834656l-50.80313 0z" fill-rule="evenodd"/><path stroke="#b7b7b7" stroke-width="1.0" stroke-linejoin="round" stroke-linecap="butt" stroke-dasharray="4.0,3.0" d="m485.75052 515.06287l50.80313 0l0 50.834656l-50.80313 0z" fill-rule="evenodd"/><path fill="#b7b7b7" d="m516.64325 543.2102l-2.921875 0q-0.046875 0.6875 -0.234375 1.1875q-0.1875 0.484375 -0.5 0.796875q-0.328125 0.3125 -0.796875 0.453125q-0.45315552 0.140625 -1.0156555 0.140625q-0.4375 0 -0.78125 -0.09375q-0.34375 -0.09375 -0.625 -0.3125q-0.265625 -0.1875 -0.46875 -0.46875q-0.203125 -0.28125 -0.34375 -0.640625q-0.21875 -0.53125 -0.3125 -1.234375q-0.09375 -0.71875 -0.09375 -1.625l0 -2.0625q0 -0.671875 0.0625 -1.25q0.0625 -0.578125 0.1875 -1.046875q0.1875 -0.625 0.484375 -1.078125q0.296875 -0.46875 0.71875 -0.71875q0.25 -0.140625 0.546875 -0.21875q0.296875 -0.078125 0.640625 -0.078125q0.640625 0 1.1094055 0.171875q0.46875 0.171875 0.78125 0.515625q0.296875 0.34375 0.453125 0.859375q0.171875 0.5 0.203125 1.171875l2.921875 0q-0.109375 -1.1875 -0.515625 -2.125q-0.390625 -0.953125 -1.0625 -1.609375q-0.6875 -0.65625 -1.671875 -1.0q-0.96875 -0.359375 -2.2187805 -0.359375q-0.84375 0 -1.578125 0.21875q-0.734375 0.203125 -1.34375 0.59375q-0.6875 0.46875 -1.234375 1.15625q-0.546875 0.671875 -0.875 1.53125q-0.296875 0.71875 -0.4375 1.546875q-0.140625 0.8125 -0.140625 1.734375l0 2.046875q0 0.96875 0.15625 1.84375q0.15625 0.875 0.46875 1.609375q0.3125 0.734375 0.765625 1.34375q0.453125 0.59375 1.03125 1.015625q0.640625 0.46875 1.4375 0.71875q0.796875 0.234375 1.734375 0.234375q1.1875305 0 2.1562805 -0.34375q0.984375 -0.359375 1.6875 -1.0q0.703125 -0.640625 1.125 -1.5625q0.421875 -0.921875 0.5 -2.0625z" fill-rule="nonzero"/><path fill="#000000" fill-opacity="0.0" d="m174.46179 515.06354l50.803146 0l0 50.834656l-50.803146 0z" fill-rule="evenodd"/><path stroke="#b7b7b7" stroke-width="1.0" stroke-linejoin="round" stroke-linecap="butt" stroke-dasharray="4.0,3.0" d="m174.46179 515.06354l50.803146 0l0 50.834656l-50.803146 0z" fill-rule="evenodd"/><path fill="#b7b7b7" d="m197.96388 545.6015l0 -12.796875l-2.9375 0l0 15.15625l10.03125 0l0 -2.359375l-7.09375 0z" fill-rule="nonzero"/><path fill="#eeeeee" d="m734.81696 701.39496l50.80316 0l0 50.834595l-50.80316 0z" fill-rule="evenodd"/><path stroke="#595959" stroke-width="1.0" stroke-linejoin="round" stroke-linecap="butt" d="m734.81696 701.39496l50.80316 0l0 50.834595l-50.80316 0z" fill-rule="evenodd"/><path fill="#595959" d="m762.3816 734.29224l0 -15.15625l-0.15625 0l-6.609375 2.375l0 2.515625l3.84375 -1.359375l0 11.625l2.921875 0z" fill-rule="nonzero"/><path fill="#eeeeee" d="m672.5454 701.3943l50.80316 0l0 50.834595l-50.80316 0z" fill-rule="evenodd"/><path stroke="#595959" stroke-width="1.0" stroke-linejoin="round" stroke-linecap="butt" d="m672.5454 701.3943l50.80316 0l0 50.834595l-50.80316 0z" fill-rule="evenodd"/><path fill="#595959" d="m702.8913 728.52594l0 -3.625q0 -1.46875 -0.34375 -2.578125q-0.34375 -1.125 -0.984375 -1.890625q-0.640625 -0.75 -1.5625 -1.125q-0.90625 -0.390625 -2.0625 -0.390625q-1.125 0 -2.046875 0.390625q-0.90625 0.375 -1.546875 1.125q-0.640625 0.765625 -0.984375 1.890625q-0.34375 1.109375 -0.34375 2.578125l0 3.625q0 1.46875 0.34375 2.59375q0.359375 1.109375 1.0 1.859375q0.640625 0.765625 1.546875 1.15625q0.921875 0.375 2.0625 0.375q1.140625 0 2.046875 -0.375q0.921875 -0.390625 1.5625 -1.15625q0.640625 -0.75 0.96875 -1.859375q0.34375 -1.125 0.34375 -2.59375zm-6.953125 -1.25q0 -0.328125 0 -0.484375q0 -0.171875 0 -0.671875l0 -1.6875q0 -0.828125 0.125 -1.4375q0.125 -0.625 0.40625 -1.015625q0.25 -0.359375 0.609375 -0.53125q0.375 -0.1875 0.859375 -0.1875q0.4375 0 0.78125 0.140625q0.359375 0.140625 0.59375 0.421875q0.3125 0.375 0.46875 0.984375q0.171875 0.609375 0.1875 1.453125l-4.03125 3.015625zm4.03125 1.6875q0 0.84375 -0.125 1.46875q-0.125 0.609375 -0.390625 1.0q-0.25 0.375 -0.625 0.5625q-0.375 0.1875 -0.859375 0.1875q-0.53125 0 -0.921875 -0.203125q-0.390625 -0.21875 -0.640625 -0.640625q-0.21875 -0.359375 -0.34375 -0.890625q-0.109375 -0.53125 -0.125 -1.21875l4.03125 -3.0q0 0.296875 0 0.46875q0 0.15625 0 0.5l0 1.765625z" fill-rule="nonzero"/><path fill="#eeeeee" d="m610.2744 701.3936l50.8031 0l0 50.834595l-50.8031 0z" fill-rule="evenodd"/><path stroke="#595959" stroke-width="1.0" stroke-linejoin="round" stroke-linecap="butt" d="m610.2744 701.3936l50.8031 0l0 50.834595l-50.8031 0z" fill-rule="evenodd"/><path fill="#595959" d="m637.839 734.2909l0 -15.15625l-0.15625 0l-6.609375 2.375l0 2.515625l3.84375 -1.359375l0 11.625l2.921875 0z" fill-rule="nonzero"/><path fill="#eeeeee" d="m485.73428 701.39496l50.80313 0l0 50.834595l-50.80313 0z" fill-rule="evenodd"/><path stroke="#595959" stroke-width="1.0" stroke-linejoin="round" stroke-linecap="butt" d="m485.73428 701.39496l50.80313 0l0 50.834595l-50.80313 0z" fill-rule="evenodd"/><path fill="#595959" d="m516.08014 728.5266l0 -3.625q0 -1.46875 -0.34375 -2.578125q-0.34375 -1.125 -0.984375 -1.890625q-0.640625 -0.75 -1.5625 -1.125q-0.90625 -0.390625 -2.0625 -0.390625q-1.125 0 -2.046875 0.390625q-0.90625 0.375 -1.546875 1.125q-0.640625 0.765625 -0.984375 1.890625q-0.34375 1.109375 -0.34375 2.578125l0 3.625q0 1.46875 0.34375 2.59375q0.359375 1.109375 1.0 1.859375q0.640625 0.765625 1.546875 1.15625q0.921875 0.375 2.0625 0.375q1.140625 0 2.046875 -0.375q0.921875 -0.390625 1.5625 -1.15625q0.640625 -0.75 0.96875 -1.859375q0.34375 -1.125 0.34375 -2.59375zm-6.953125 -1.25q0 -0.328125 0 -0.484375q0 -0.171875 0 -0.671875l0 -1.6875q0 -0.828125 0.125 -1.4375q0.125 -0.625 0.40625 -1.015625q0.25 -0.359375 0.609375 -0.53125q0.375 -0.1875 0.859375 -0.1875q0.4375 0 0.78125 0.140625q0.359375 0.140625 0.59375 0.421875q0.3125 0.375 0.46875 0.984375q0.171875 0.609375 0.1875 1.453125l-4.03125 3.015625zm4.03125 1.6875q0 0.84375 -0.125 1.46875q-0.125 0.609375 -0.390625 1.0q-0.25 0.375 -0.625 0.5625q-0.375 0.1875 -0.859375 0.1875q-0.53125 0 -0.921875 -0.203125q-0.390625 -0.21875 -0.640625 -0.640625q-0.21875 -0.359375 -0.34375 -0.890625q-0.109375 -0.53125 -0.125 -1.21875l4.03125 -3.0q0 0.296875 0 0.46875q0 0.15625 0 0.5l0 1.765625z" fill-rule="nonzero"/><path fill="#eeeeee" d="m423.46274 701.3943l50.80316 0l0 50.834595l-50.80316 0z" fill-rule="evenodd"/><path stroke="#595959" stroke-width="1.0" stroke-linejoin="round" stroke-linecap="butt" d="m423.46274 701.3943l50.80316 0l0 50.834595l-50.80316 0z" fill-rule="evenodd"/><path fill="#595959" d="m453.8086 728.52594l0 -3.625q0 -1.46875 -0.34375 -2.578125q-0.34375 -1.125 -0.984375 -1.890625q-0.640625 -0.75 -1.5625 -1.125q-0.90625 -0.390625 -2.0625 -0.390625q-1.125 0 -2.046875 0.390625q-0.90625 0.375 -1.546875 1.125q-0.640625 0.765625 -0.984375 1.890625q-0.34375 1.109375 -0.34375 2.578125l0 3.625q0 1.46875 0.34375 2.59375q0.359375 1.109375 1.0 1.859375q0.640625 0.765625 1.546875 1.15625q0.921875 0.375 2.0625 0.375q1.140625 0 2.046875 -0.375q0.921875 -0.390625 1.5625 -1.15625q0.640625 -0.75 0.96875 -1.859375q0.34375 -1.125 0.34375 -2.59375zm-6.953125 -1.25q0 -0.328125 0 -0.484375q0 -0.171875 0 -0.671875l0 -1.6875q0 -0.828125 0.125 -1.4375q0.125 -0.625 0.40625 -1.015625q0.25 -0.359375 0.609375 -0.53125q0.375 -0.1875 0.859375 -0.1875q0.4375 0 0.78125 0.140625q0.359375 0.140625 0.59375 0.421875q0.3125 0.375 0.46875 0.984375q0.171875 0.609375 0.1875 1.453125l-4.03125 3.015625zm4.03125 1.6875q0 0.84375 -0.125 1.46875q-0.125 0.609375 -0.390625 1.0q-0.25 0.375 -0.625 0.5625q-0.375 0.1875 -0.859375 0.1875q-0.53125 0 -0.921875 -0.203125q-0.390625 -0.21875 -0.640625 -0.640625q-0.21875 -0.359375 -0.34375 -0.890625q-0.109375 -0.53125 -0.125 -1.21875l4.03125 -3.0q0 0.296875 0 0.46875q0 0.15625 0 0.5l0 1.765625z" fill-rule="nonzero"/><path fill="#eeeeee" d="m548.00275 701.3936l50.80316 0l0 50.834595l-50.80316 0z" fill-rule="evenodd"/><path stroke="#595959" stroke-width="1.0" stroke-linejoin="round" stroke-linecap="butt" d="m548.00275 701.3936l50.80316 0l0 50.834595l-50.80316 0z" fill-rule="evenodd"/><path fill="#595959" d="m575.5673 734.2909l0 -15.15625l-0.15625 0l-6.609375 2.375l0 2.515625l3.84375 -1.359375l0 11.625l2.921875 0z" fill-rule="nonzero"/><path fill="#eeeeee" d="m361.1917 701.3936l50.80316 0l0 50.834595l-50.80316 0z" fill-rule="evenodd"/><path stroke="#595959" stroke-width="1.0" stroke-linejoin="round" stroke-linecap="butt" d="m361.1917 701.3936l50.80316 0l0 50.834595l-50.80316 0z" fill-rule="evenodd"/><path fill="#595959" d="m388.7563 734.2909l0 -15.15625l-0.15625 0l-6.609375 2.375l0 2.515625l3.84375 -1.359375l0 11.625l2.921875 0z" fill-rule="nonzero"/><path fill="#000000" fill-opacity="0.0" d="m934.5972 -1.1023622E-4l50.80316 0l0 50.834644l-50.80316 0z" fill-rule="evenodd"/><path fill="#000000" fill-opacity="0.0" d="m934.5972 1030.1259l50.80316 0l0 50.834717l-50.80316 0z" fill-rule="evenodd"/><path fill="#000000" fill-opacity="0.0" d="m959.9988 50.834534l0 979.30707" fill-rule="evenodd"/><path stroke="#595959" stroke-width="1.0" stroke-linejoin="round" stroke-linecap="butt" stroke-dasharray="4.0,3.0" d="m959.9988 50.834534l0 979.30707" fill-rule="evenodd"/><path fill="#000000" fill-opacity="0.0" d="m392.36487 168.51982l362.07874 0l0 50.83464l-362.07874 0z" fill-rule="evenodd"/><path fill="#595959" d="m505.34482 198.3234q0 0.265625 -0.125 0.484375q-0.125 0.21875 -0.390625 0.375q-0.265625 0.171875 -0.6875 0.28125q-0.421875 0.09375 -0.984375 0.09375q-0.46875 0 -0.921875 -0.09375q-0.4375 -0.09375 -0.78125 -0.3125q-0.34375 -0.1875 -0.5625 -0.515625q-0.21875 -0.328125 -0.25 -0.796875l-2.765625 0q0 0.6875 0.34375 1.375q0.34375 0.6875 1.0 1.21875q0.65625 0.53125 1.625 0.875q0.96875 0.328125 2.25 0.328125q1.15625 0 2.09375 -0.25q0.9375 -0.265625 1.59375 -0.71875q0.65625 -0.453125 1.015625 -1.078125q0.359375 -0.640625 0.359375 -1.390625q0 -0.8125 -0.359375 -1.390625q-0.359375 -0.59375 -0.984375 -1.015625q-0.640625 -0.40625 -1.515625 -0.65625q-0.875 -0.265625 -1.890625 -0.4375q-0.71875 -0.109375 -1.171875 -0.25q-0.453125 -0.140625 -0.71875 -0.3125q-0.265625 -0.171875 -0.375 -0.375q-0.109375 -0.21875 -0.109375 -0.46875q0 -0.25 0.125 -0.46875q0.125 -0.234375 0.34375 -0.390625q0.25 -0.1875 0.640625 -0.296875q0.40625 -0.109375 0.9375 -0.109375q0.625 0 1.0625 0.15625q0.453125 0.15625 0.703125 0.421875q0.1875 0.203125 0.28125 0.453125q0.09375 0.234375 0.09375 0.515625l2.890625 0q0 -0.78125 -0.34375 -1.4375q-0.34375 -0.671875 -0.984375 -1.171875q-0.65625 -0.46875 -1.59375 -0.734375q-0.9375 -0.28125 -2.109375 -0.28125q-1.125 0 -2.03125 0.28125q-0.890625 0.28125 -1.515625 0.75q-0.625 0.484375 -0.953125 1.125q-0.328125 0.625 -0.328125 1.328125q0 0.71875 0.328125 1.265625q0.328125 0.546875 0.90625 0.96875q0.578125 0.421875 1.390625 0.71875q0.828125 0.296875 1.8125 0.5q0.78125 0.140625 1.296875 0.296875q0.515625 0.140625 0.828125 0.3125q0.296875 0.171875 0.40625 0.375q0.125 0.1875 0.125 0.453125zm11.002106 3.296875q1.640625 0 2.828125 -0.625q1.203125 -0.640625 1.75 -1.421875l-1.4375 -1.5625q-0.5 0.640625 -1.3125 0.96875q-0.796875 0.328125 -1.65625 0.328125q-0.59375 0 -1.109375 -0.1875q-0.515625 -0.1875 -0.90625 -0.53125q-0.390625 -0.34375 -0.625 -0.75q-0.21875 -0.40625 -0.359375 -1.09375l0 -0.03125l7.640625 0l0 -1.21875q0 -1.25 -0.34375 -2.265625q-0.34375 -1.03125 -1.0 -1.765625q-0.671875 -0.71875 -1.625 -1.109375q-0.953125 -0.40625 -2.171875 -0.40625q-1.171875 0 -2.171875 0.421875q-1.0 0.421875 -1.734375 1.1875q-0.71875 0.78125 -1.125 1.84375q-0.40625 1.0625 -0.40625 2.359375l0 0.421875q0 1.125 0.40625 2.125q0.40625 1.0 1.171875 1.71875q0.765625 0.75 1.828125 1.171875q1.0625 0.421875 2.359375 0.421875zm-0.34375 -9.34375q0.546875 0 0.96875 0.171875q0.421875 0.171875 0.71875 0.46875q0.296875 0.296875 0.453125 0.703125q0.171875 0.40625 0.171875 0.875l0 0.21875l-4.75 0q0.109375 -0.546875 0.3125 -0.984375q0.203125 -0.453125 0.515625 -0.78125q0.3125 -0.328125 0.71875 -0.5q0.40625 -0.171875 0.890625 -0.171875zm14.720825 9.140625l2.921875 0l0 -0.171875q-0.21875 -0.4375 -0.328125 -1.03125q-0.109375 -0.59375 -0.109375 -1.5l0 -4.828125q0 -0.984375 -0.375 -1.71875q-0.359375 -0.75 -1.0 -1.234375q-0.640625 -0.484375 -1.53125 -0.734375q-0.875 -0.25 -1.890625 -0.25q-1.140625 0 -2.03125 0.28125q-0.875 0.28125 -1.46875 0.765625q-0.625 0.5 -0.9375 1.140625q-0.3125 0.640625 -0.3125 1.359375l2.890625 0q0 -0.296875 0.078125 -0.546875q0.09375 -0.25 0.28125 -0.421875q0.21875 -0.203125 0.546875 -0.3125q0.328125 -0.109375 0.796875 -0.109375q0.515625 0 0.90625 0.140625q0.390625 0.125 0.65625 0.359375q0.25 0.234375 0.375 0.546875q0.125 0.3125 0.125 0.71875l0 0.65625l-1.625 0q-1.25 0 -2.21875 0.234375q-0.953125 0.21875 -1.609375 0.640625q-0.734375 0.46875 -1.09375 1.203125q-0.359375 0.71875 -0.359375 1.65625q0 0.734375 0.28125 1.359375q0.296875 0.609375 0.8125 1.0625q0.53125 0.4375 1.25 0.6875q0.71875 0.25 1.59375 0.25q0.53125 0 0.984375 -0.09375q0.453125 -0.09375 0.84375 -0.28125q0.375 -0.15625 0.6875 -0.390625q0.3125 -0.234375 0.546875 -0.484375q0.0625 0.296875 0.125 0.578125q0.078125 0.265625 0.1875 0.46875zm-2.765625 -2.03125q-0.40625 0 -0.71875 -0.09375q-0.296875 -0.109375 -0.515625 -0.265625q-0.203125 -0.1875 -0.3125 -0.4375q-0.109375 -0.25 -0.109375 -0.5625q0 -0.375 0.140625 -0.703125q0.15625 -0.328125 0.453125 -0.578125q0.296875 -0.21875 0.78125 -0.34375q0.484375 -0.140625 1.15625 -0.140625l1.484375 0l0 1.9375q-0.125 0.21875 -0.34375 0.4375q-0.21875 0.203125 -0.53125 0.375q-0.296875 0.171875 -0.671875 0.28125q-0.375 0.09375 -0.8125 0.09375zm16.61145 -9.4375q-1.140625 0 -2.09375 0.546875q-0.953125 0.53125 -1.640625 1.5l-0.03125 -0.25l-0.109375 -1.59375l-2.703125 0l0 11.265625l2.90625 0l0 -6.765625q0.1875 -0.484375 0.484375 -0.828125q0.3125 -0.359375 0.734375 -0.59375q0.359375 -0.203125 0.8125 -0.296875q0.453125 -0.09375 1.015625 -0.09375q0.546875 0 1.140625 0.0625q0.59375 0.0625 1.171875 0.203125l0.421875 -2.875q-0.34375 -0.109375 -0.90625 -0.1875q-0.546875 -0.09375 -1.203125 -0.09375zm9.689636 9.359375q-0.6875 0 -1.140625 -0.28125q-0.453125 -0.28125 -0.71875 -0.75q-0.265625 -0.453125 -0.375 -1.0625q-0.109375 -0.609375 -0.109375 -1.265625l0 -0.3125q0 -0.640625 0.109375 -1.25q0.109375 -0.609375 0.390625 -1.078125q0.25 -0.46875 0.703125 -0.75q0.453125 -0.28125 1.140625 -0.28125q0.46875 0 0.859375 0.171875q0.390625 0.15625 0.671875 0.421875q0.28125 0.28125 0.421875 0.65625q0.15625 0.375 0.140625 0.78125l2.71875 0q0.015625 -1.0 -0.34375 -1.796875q-0.34375 -0.8125 -0.96875 -1.390625q-0.65625 -0.546875 -1.546875 -0.859375q-0.875 -0.3125 -1.921875 -0.3125q-1.296875 0 -2.28125 0.453125q-0.984375 0.4375 -1.65625 1.203125q-0.65625 0.765625 -1.0 1.8125q-0.328125 1.03125 -0.328125 2.21875l0 0.3125q0 1.1875 0.328125 2.234375q0.34375 1.03125 1.015625 1.796875q0.65625 0.765625 1.640625 1.21875q1.0 0.4375 2.3125 0.4375q0.96875 0 1.828125 -0.296875q0.875 -0.3125 1.53125 -0.859375q0.65625 -0.546875 1.03125 -1.296875q0.375 -0.75 0.359375 -1.625l-2.71875 0q0.015625 0.40625 -0.15625 0.734375q-0.15625 0.3125 -0.4375 0.546875q-0.296875 0.21875 -0.6875 0.34375q-0.375 0.125 -0.8125 0.125zm10.7052 -7.609375l0 -6.28125l-2.890625 0l0 16.0l2.890625 0l0 -8.140625q0.171875 -0.21875 0.375 -0.390625q0.203125 -0.171875 0.453125 -0.296875q0.265625 -0.15625 0.59375 -0.21875q0.34375 -0.078125 0.734375 -0.078125q0.5 0 0.890625 0.140625q0.390625 0.125 0.671875 0.390625q0.28125 0.265625 0.4375 0.703125q0.15625 0.4375 0.15625 1.046875l0 6.84375l2.890625 0l0 -6.828125q0 -1.234375 -0.296875 -2.109375q-0.296875 -0.890625 -0.828125 -1.453125q-0.53125 -0.546875 -1.28125 -0.8125q-0.734375 -0.265625 -1.609375 -0.265625q-0.609375 0 -1.15625 0.171875q-0.53125 0.171875 -0.984375 0.5q-0.296875 0.203125 -0.5625 0.484375q-0.265625 0.265625 -0.484375 0.59375zm23.4729 -1.546875l0 2.359375l3.21875 0l0 6.546875l-3.21875 0l0 2.359375l9.1875 0l0 -2.359375l-3.046875 0l0 -8.90625l-6.140625 0zm3.0 -2.890625q0 0.34375 0.125 0.625q0.125 0.28125 0.34375 0.484375q0.21875 0.203125 0.515625 0.328125q0.3125 0.109375 0.6875 0.109375q0.765625 0 1.21875 -0.421875q0.453125 -0.4375 0.453125 -1.125q0 -0.671875 -0.453125 -1.09375q-0.453125 -0.4375 -1.21875 -0.4375q-0.375 0 -0.6875 0.109375q-0.296875 0.109375 -0.515625 0.3125q-0.21875 0.203125 -0.34375 0.5q-0.125 0.28125 -0.125 0.609375zm9.033386 14.15625l2.90625 0l0 -8.015625q0.140625 -0.21875 0.3125 -0.40625q0.1875 -0.1875 0.40625 -0.328125q0.265625 -0.1875 0.609375 -0.28125q0.359375 -0.09375 0.78125 -0.09375q0.5 0 0.890625 0.109375q0.390625 0.09375 0.671875 0.34375q0.28125 0.25 0.4375 0.6875q0.15625 0.421875 0.15625 1.09375l0 6.890625l2.890625 0l0 -6.9375q0 -1.234375 -0.296875 -2.09375q-0.28125 -0.859375 -0.78125 -1.40625q-0.53125 -0.53125 -1.234375 -0.78125q-0.703125 -0.25 -1.5625 -0.25q-0.671875 0 -1.265625 0.1875q-0.59375 0.1875 -1.09375 0.53125q-0.28125 0.203125 -0.546875 0.46875q-0.265625 0.265625 -0.484375 0.578125l-0.171875 -1.5625l-2.625 0l0 11.265625zm12.845825 4.328125l2.890625 0l0 -5.3125q0.203125 0.21875 0.421875 0.40625q0.21875 0.171875 0.453125 0.3125q0.40625 0.234375 0.875 0.34375q0.484375 0.125 1.046875 0.125q1.0625 0 1.875 -0.4375q0.828125 -0.4375 1.390625 -1.203125q0.546875 -0.765625 0.828125 -1.8125q0.296875 -1.046875 0.296875 -2.28125l0 -0.21875q0 -1.28125 -0.296875 -2.328125q-0.28125 -1.0625 -0.84375 -1.828125q-0.5625 -0.75 -1.390625 -1.15625q-0.8125 -0.40625 -1.890625 -0.40625q-0.515625 0 -0.96875 0.109375q-0.453125 0.109375 -0.828125 0.296875q-0.3125 0.171875 -0.59375 0.390625q-0.265625 0.21875 -0.484375 0.5l-0.109375 -1.09375l-2.671875 0l0 15.59375zm7.1875 -10.078125l0 0.21875q0 0.703125 -0.125 1.328125q-0.125 0.609375 -0.40625 1.078125q-0.265625 0.46875 -0.703125 0.75q-0.421875 0.265625 -1.046875 0.265625q-0.375 0 -0.6875 -0.078125q-0.3125 -0.078125 -0.5625 -0.234375q-0.25 -0.15625 -0.4375 -0.375q-0.1875 -0.21875 -0.328125 -0.484375l0 -4.703125q0.140625 -0.296875 0.34375 -0.515625q0.203125 -0.21875 0.484375 -0.359375q0.234375 -0.125 0.515625 -0.1875q0.296875 -0.078125 0.65625 -0.078125q0.609375 0 1.046875 0.265625q0.4375 0.25 0.71875 0.703125q0.265625 0.453125 0.390625 1.078125q0.140625 0.625 0.140625 1.328125zm12.92395 5.75l2.609375 0l0 -11.265625l-2.890625 0l0 7.90625q-0.140625 0.265625 -0.328125 0.484375q-0.1875 0.21875 -0.421875 0.375q-0.28125 0.171875 -0.65625 0.265625q-0.375 0.09375 -0.828125 0.09375q-0.515625 0 -0.875 -0.125q-0.34375 -0.125 -0.5625 -0.40625q-0.21875 -0.28125 -0.328125 -0.75q-0.09375 -0.46875 -0.09375 -1.15625l0 -6.6875l-2.890625 0l0 6.65625q0 1.28125 0.28125 2.203125q0.296875 0.90625 0.8125 1.484375q0.515625 0.59375 1.25 0.875q0.734375 0.265625 1.609375 0.265625q0.953125 0 1.75 -0.46875q0.8125 -0.484375 1.390625 -1.328125l0.171875 1.578125zm10.752075 -14.03125l-2.890625 0l0 2.765625l-2.578125 0l0 2.125l2.578125 0l0 5.125q0 1.125 0.28125 1.921875q0.296875 0.796875 0.84375 1.296875q0.53125 0.53125 1.28125 0.78125q0.75 0.234375 1.6875 0.234375q0.46875 0 0.96875 -0.046875q0.5 -0.046875 0.953125 -0.125q0.453125 -0.09375 0.859375 -0.21875q0.40625 -0.125 0.703125 -0.3125l-0.28125 -1.984375q-0.1875 0.046875 -0.46875 0.109375q-0.265625 0.046875 -0.578125 0.09375q-0.328125 0.046875 -0.6875 0.078125q-0.34375 0.03125 -0.671875 0.03125q-0.453125 0 -0.828125 -0.09375q-0.375 -0.109375 -0.625 -0.359375q-0.265625 -0.25 -0.40625 -0.65625q-0.140625 -0.40625 -0.140625 -1.03125l0 -4.84375l4.203125 0l0 -2.125l-4.203125 0l0 -2.765625z" fill-rule="nonzero"/><path fill="#000000" fill-opacity="0.0" d="m423.76642 255.02493c0 -6.6882935 5.421936 -12.1102295 12.1102295 -12.1102295l125.4173 0c6.6882935 0 12.1102295 -5.421936 12.1102295 -12.110245l0 0c0 6.6883087 5.421936 12.110245 12.110291 12.110245l125.4173 0l0 0c6.6882935 0 12.1102295 5.421936 12.1102295 12.1102295z" fill-rule="evenodd"/><path fill="#000000" fill-opacity="0.0" d="m423.76642 255.02493c0 -6.6882935 5.421936 -12.1102295 12.1102295 -12.1102295l125.4173 0c6.6882935 0 12.1102295 -5.421936 12.1102295 -12.110245l0 0c0 6.6883087 5.421936 12.110245 12.110291 12.110245l125.4173 0l0 0c6.6882935 0 12.1102295 5.421936 12.1102295 12.1102295" fill-rule="evenodd"/><path stroke="#595959" stroke-width="1.0" stroke-linejoin="round" stroke-linecap="butt" d="m423.76642 255.02493c0 -6.6882935 5.421936 -12.1102295 12.1102295 -12.1102295l125.4173 0c6.6882935 0 12.1102295 -5.421936 12.1102295 -12.110245l0 0c0 6.6883087 5.421936 12.110245 12.110291 12.110245l125.4173 0l0 0c6.6882935 0 12.1102295 5.421936 12.1102295 12.1102295" fill-rule="evenodd"/><path fill="#000000" fill-opacity="0.0" d="m785.60895 825.9344l0 0c0 3.211853 -1.27594 6.2921143 -3.547058 8.563232c-2.2710571 2.2711182 -5.3513794 3.546997 -8.563232 3.546997l-187.98419 0c-6.6883545 0 -12.110291 5.421936 -12.110291 12.1102295l0 0c0 -6.6882935 -5.421936 -12.1102295 -12.1102295 -12.1102295l-187.98422 0c-6.688324 0 -12.11026 -5.421936 -12.11026 -12.1102295z" fill-rule="evenodd"/><path fill="#000000" fill-opacity="0.0" d="m785.60895 825.9344l0 0c0 3.211853 -1.27594 6.2921143 -3.547058 8.563232c-2.2710571 2.2711182 -5.3513794 3.546997 -8.563232 3.546997l-187.98419 0c-6.6883545 0 -12.110291 5.421936 -12.110291 12.1102295l0 0c0 -6.6882935 -5.421936 -12.1102295 -12.1102295 -12.1102295l-187.98422 0c-6.688324 0 -12.11026 -5.421936 -12.11026 -12.1102295" fill-rule="evenodd"/><path stroke="#595959" stroke-width="1.0" stroke-linejoin="round" stroke-linecap="butt" d="m785.60895 825.9344l0 0c0 3.211853 -1.27594 6.2921143 -3.547058 8.563232c-2.2710571 2.2711182 -5.3513794 3.546997 -8.563232 3.546997l-187.98419 0c-6.6883545 0 -12.110291 5.421936 -12.110291 12.1102295l0 0c0 -6.6882935 -5.421936 -12.1102295 -12.1102295 -12.1102295l-187.98422 0c-6.688324 0 -12.11026 -5.421936 -12.11026 -12.1102295" fill-rule="evenodd"/><path fill="#000000" fill-opacity="0.0" d="m392.36487 861.60645l362.07874 0l0 50.834656l-362.07874 0z" fill-rule="evenodd"/><path fill="#595959" d="m498.94534 891.41003q0 0.265625 -0.125 0.484375q-0.125 0.21875 -0.390625 0.375q-0.265625 0.171875 -0.6875 0.28125q-0.421875 0.09375 -0.984375 0.09375q-0.46875 0 -0.921875 -0.09375q-0.4375 -0.09375 -0.78125 -0.3125q-0.34375 -0.1875 -0.5625 -0.515625q-0.21875 -0.328125 -0.25 -0.796875l-2.765625 0q0 0.6875 0.34375 1.375q0.34375 0.6875 1.0 1.21875q0.65625 0.53125 1.625 0.875q0.96875 0.328125 2.25 0.328125q1.15625 0 2.09375 -0.25q0.9375 -0.265625 1.59375 -0.71875q0.65625 -0.453125 1.015625 -1.078125q0.359375 -0.640625 0.359375 -1.390625q0 -0.8125 -0.359375 -1.390625q-0.359375 -0.59375 -0.984375 -1.015625q-0.640625 -0.40625 -1.515625 -0.65625q-0.875 -0.265625 -1.890625 -0.4375q-0.71875 -0.109375 -1.171875 -0.25q-0.453125 -0.140625 -0.71875 -0.3125q-0.265625 -0.171875 -0.375 -0.375q-0.109375 -0.21875 -0.109375 -0.46875q0 -0.25 0.125 -0.46875q0.125 -0.234375 0.34375 -0.390625q0.25 -0.1875 0.640625 -0.296875q0.40625 -0.109375 0.9375 -0.109375q0.625 0 1.0625 0.15625q0.453125 0.15625 0.703125 0.421875q0.1875 0.203125 0.28125 0.453125q0.09375 0.234375 0.09375 0.515625l2.890625 0q0 -0.78125 -0.34375 -1.4375q-0.34375 -0.671875 -0.984375 -1.171875q-0.65625 -0.46875 -1.59375 -0.734375q-0.9375 -0.28125 -2.109375 -0.28125q-1.125 0 -2.03125 0.28125q-0.890625 0.28125 -1.515625 0.75q-0.625 0.484375 -0.953125 1.125q-0.328125 0.625 -0.328125 1.328125q0 0.71875 0.328125 1.265625q0.328125 0.546875 0.90625 0.96875q0.578125 0.421875 1.390625 0.71875q0.828125 0.296875 1.8125 0.5q0.78125 0.140625 1.296875 0.296875q0.515625 0.140625 0.828125 0.3125q0.296875 0.171875 0.40625 0.375q0.125 0.1875 0.125 0.453125zm11.002106 3.296875q1.640625 0 2.828125 -0.625q1.203125 -0.640625 1.75 -1.421875l-1.4375 -1.5625q-0.5 0.640625 -1.3125 0.96875q-0.796875 0.328125 -1.65625 0.328125q-0.59375 0 -1.109375 -0.1875q-0.515625 -0.1875 -0.90625 -0.53125q-0.390625 -0.34375 -0.625 -0.75q-0.21875 -0.40625 -0.359375 -1.09375l0 -0.03125l7.640625 0l0 -1.21875q0 -1.25 -0.34375 -2.265625q-0.34375 -1.03125 -1.0 -1.765625q-0.671875 -0.71875 -1.625 -1.109375q-0.953125 -0.40625 -2.171875 -0.40625q-1.171875 0 -2.171875 0.421875q-1.0 0.421875 -1.734375 1.1875q-0.71875 0.78125 -1.125 1.84375q-0.40625 1.0625 -0.40625 2.359375l0 0.421875q0 1.125 0.40625 2.125q0.40625 1.0 1.171875 1.71875q0.765625 0.75 1.828125 1.171875q1.0625 0.421875 2.359375 0.421875zm-0.34375 -9.34375q0.546875 0 0.96875 0.171875q0.421875 0.171875 0.71875 0.46875q0.296875 0.296875 0.453125 0.703125q0.171875 0.40625 0.171875 0.875l0 0.21875l-4.75 0q0.109375 -0.546875 0.3125 -0.984375q0.203125 -0.453125 0.515625 -0.78125q0.3125 -0.328125 0.71875 -0.5q0.40625 -0.171875 0.890625 -0.171875zm14.720825 9.140625l2.921875 0l0 -0.171875q-0.21875 -0.4375 -0.328125 -1.03125q-0.109375 -0.59375 -0.109375 -1.5l0 -4.828125q0 -0.984375 -0.375 -1.71875q-0.359375 -0.75 -1.0 -1.234375q-0.640625 -0.484375 -1.53125 -0.734375q-0.875 -0.25 -1.890625 -0.25q-1.140625 0 -2.03125 0.28125q-0.875 0.28125 -1.46875 0.765625q-0.625 0.5 -0.9375 1.140625q-0.3125 0.640625 -0.3125 1.359375l2.890625 0q0 -0.296875 0.078125 -0.546875q0.09375 -0.25 0.28125 -0.421875q0.21875 -0.203125 0.546875 -0.3125q0.328125 -0.109375 0.796875 -0.109375q0.515625 0 0.90625 0.140625q0.390625 0.125 0.65625 0.359375q0.25 0.234375 0.375 0.546875q0.125 0.3125 0.125 0.71875l0 0.65625l-1.625 0q-1.25 0 -2.21875 0.234375q-0.953125 0.21875 -1.609375 0.640625q-0.734375 0.46875 -1.09375 1.203125q-0.359375 0.71875 -0.359375 1.65625q0 0.734375 0.28125 1.359375q0.296875 0.609375 0.8125 1.0625q0.53125 0.4375 1.25 0.6875q0.71875 0.25 1.59375 0.25q0.53125 0 0.984375 -0.09375q0.453125 -0.09375 0.84375 -0.28125q0.375 -0.15625 0.6875 -0.390625q0.3125 -0.234375 0.546875 -0.484375q0.0625 0.296875 0.125 0.578125q0.078125 0.265625 0.1875 0.46875zm-2.765625 -2.03125q-0.40625 0 -0.71875 -0.09375q-0.296875 -0.109375 -0.515625 -0.265625q-0.203125 -0.1875 -0.3125 -0.4375q-0.109375 -0.25 -0.109375 -0.5625q0 -0.375 0.140625 -0.703125q0.15625 -0.328125 0.453125 -0.578125q0.296875 -0.21875 0.78125 -0.34375q0.484375 -0.140625 1.15625 -0.140625l1.484375 0l0 1.9375q-0.125 0.21875 -0.34375 0.4375q-0.21875 0.203125 -0.53125 0.375q-0.296875 0.171875 -0.671875 0.28125q-0.375 0.09375 -0.8125 0.09375zm16.61145 -9.4375q-1.140625 0 -2.09375 0.546875q-0.953125 0.53125 -1.640625 1.5l-0.03125 -0.25l-0.109375 -1.59375l-2.703125 0l0 11.265625l2.90625 0l0 -6.765625q0.1875 -0.484375 0.484375 -0.828125q0.3125 -0.359375 0.734375 -0.59375q0.359375 -0.203125 0.8125 -0.296875q0.453125 -0.09375 1.015625 -0.09375q0.546875 0 1.140625 0.0625q0.59375 0.0625 1.171875 0.203125l0.421875 -2.875q-0.34375 -0.109375 -0.90625 -0.1875q-0.546875 -0.09375 -1.203125 -0.09375zm9.689636 9.359375q-0.6875 0 -1.140625 -0.28125q-0.453125 -0.28125 -0.71875 -0.75q-0.265625 -0.453125 -0.375 -1.0625q-0.109375 -0.609375 -0.109375 -1.265625l0 -0.3125q0 -0.640625 0.109375 -1.25q0.109375 -0.609375 0.390625 -1.078125q0.25 -0.46875 0.703125 -0.75q0.453125 -0.28125 1.140625 -0.28125q0.46875 0 0.859375 0.171875q0.390625 0.15625 0.671875 0.421875q0.28125 0.28125 0.421875 0.65625q0.15625 0.375 0.140625 0.78125l2.71875 0q0.015625 -1.0 -0.34375 -1.796875q-0.34375 -0.8125 -0.96875 -1.390625q-0.65625 -0.546875 -1.546875 -0.859375q-0.875 -0.3125 -1.921875 -0.3125q-1.296875 0 -2.28125 0.453125q-0.984375 0.4375 -1.65625 1.203125q-0.65625 0.765625 -1.0 1.8125q-0.328125 1.03125 -0.328125 2.21875l0 0.3125q0 1.1875 0.328125 2.234375q0.34375 1.03125 1.015625 1.796875q0.65625 0.765625 1.640625 1.21875q1.0 0.4375 2.3125 0.4375q0.96875 0 1.828125 -0.296875q0.875 -0.3125 1.53125 -0.859375q0.65625 -0.546875 1.03125 -1.296875q0.375 -0.75 0.359375 -1.625l-2.71875 0q0.015625 0.40625 -0.15625 0.734375q-0.15625 0.3125 -0.4375 0.546875q-0.296875 0.21875 -0.6875 0.34375q-0.375 0.125 -0.8125 0.125zm10.7052 -7.609375l0 -6.28125l-2.890625 0l0 16.0l2.890625 0l0 -8.140625q0.171875 -0.21875 0.375 -0.390625q0.203125 -0.171875 0.453125 -0.296875q0.265625 -0.15625 0.59375 -0.21875q0.34375 -0.078125 0.734375 -0.078125q0.5 0 0.890625 0.140625q0.390625 0.125 0.671875 0.390625q0.28125 0.265625 0.4375 0.703125q0.15625 0.4375 0.15625 1.046875l0 6.84375l2.890625 0l0 -6.828125q0 -1.234375 -0.296875 -2.109375q-0.296875 -0.890625 -0.828125 -1.453125q-0.53125 -0.546875 -1.28125 -0.8125q-0.734375 -0.265625 -1.609375 -0.265625q-0.609375 0 -1.15625 0.171875q-0.53125 0.171875 -0.984375 0.5q-0.296875 0.203125 -0.5625 0.484375q-0.265625 0.265625 -0.484375 0.59375zm22.31665 3.984375l0 0.21875q0 1.234375 0.34375 2.28125q0.359375 1.046875 1.046875 1.8125q0.671875 0.78125 1.671875 1.21875q1.0 0.421875 2.265625 0.421875q1.265625 0 2.25 -0.421875q0.984375 -0.4375 1.671875 -1.21875q0.671875 -0.765625 1.015625 -1.8125q0.359375 -1.046875 0.359375 -2.28125l0 -0.21875q0 -1.234375 -0.359375 -2.28125q-0.34375 -1.046875 -1.015625 -1.8125q-0.6875 -0.78125 -1.6875 -1.203125q-0.984375 -0.4375 -2.25 -0.4375q-1.28125 0 -2.265625 0.4375q-0.984375 0.421875 -1.65625 1.203125q-0.6875 0.765625 -1.046875 1.8125q-0.34375 1.046875 -0.34375 2.28125zm2.890625 0.21875l0 -0.21875q0 -0.6875 0.125 -1.296875q0.140625 -0.625 0.4375 -1.09375q0.296875 -0.46875 0.75 -0.734375q0.453125 -0.28125 1.109375 -0.28125q0.65625 0 1.109375 0.28125q0.453125 0.265625 0.75 0.734375q0.28125 0.46875 0.40625 1.09375q0.140625 0.609375 0.140625 1.296875l0 0.21875q0 0.703125 -0.140625 1.328125q-0.125 0.609375 -0.40625 1.078125q-0.296875 0.46875 -0.75 0.734375q-0.453125 0.265625 -1.09375 0.265625q-0.65625 0 -1.125 -0.265625q-0.453125 -0.265625 -0.75 -0.734375q-0.296875 -0.46875 -0.4375 -1.078125q-0.125 -0.625 -0.125 -1.328125zm17.658386 5.515625l2.609375 0l0 -11.265625l-2.890625 0l0 7.90625q-0.140625 0.265625 -0.328125 0.484375q-0.1875 0.21875 -0.421875 0.375q-0.28125 0.171875 -0.65625 0.265625q-0.375 0.09375 -0.828125 0.09375q-0.515625 0 -0.875 -0.125q-0.34375 -0.125 -0.5625 -0.40625q-0.21875 -0.28125 -0.328125 -0.75q-0.09375 -0.46875 -0.09375 -1.15625l0 -6.6875l-2.890625 0l0 6.65625q0 1.28125 0.28125 2.203125q0.296875 0.90625 0.8125 1.484375q0.515625 0.59375 1.25 0.875q0.734375 0.265625 1.609375 0.265625q0.953125 0 1.75 -0.46875q0.8125 -0.484375 1.390625 -1.328125l0.171875 1.578125zm10.752075 -14.03125l-2.890625 0l0 2.765625l-2.578125 0l0 2.125l2.578125 0l0 5.125q0 1.125 0.28125 1.921875q0.296875 0.796875 0.84375 1.296875q0.53125 0.53125 1.28125 0.78125q0.75 0.234375 1.6875 0.234375q0.46875 0 0.96875 -0.046875q0.5 -0.046875 0.953125 -0.125q0.453125 -0.09375 0.859375 -0.21875q0.40625 -0.125 0.703125 -0.3125l-0.28125 -1.984375q-0.1875 0.046875 -0.46875 0.109375q-0.265625 0.046875 -0.578125 0.09375q-0.328125 0.046875 -0.6875 0.078125q-0.34375 0.03125 -0.671875 0.03125q-0.453125 0 -0.828125 -0.09375q-0.375 -0.109375 -0.625 -0.359375q-0.265625 -0.25 -0.40625 -0.65625q-0.140625 -0.40625 -0.140625 -1.03125l0 -4.84375l4.203125 0l0 -2.125l-4.203125 0l0 -2.765625zm7.533325 18.359375l2.890625 0l0 -5.3125q0.203125 0.21875 0.421875 0.40625q0.21875 0.171875 0.453125 0.3125q0.40625 0.234375 0.875 0.34375q0.484375 0.125 1.046875 0.125q1.0625 0 1.875 -0.4375q0.828125 -0.4375 1.390625 -1.203125q0.546875 -0.765625 0.828125 -1.8125q0.296875 -1.046875 0.296875 -2.28125l0 -0.21875q0 -1.28125 -0.296875 -2.328125q-0.28125 -1.0625 -0.84375 -1.828125q-0.5625 -0.75 -1.390625 -1.15625q-0.8125 -0.40625 -1.890625 -0.40625q-0.515625 0 -0.96875 0.109375q-0.453125 0.109375 -0.828125 0.296875q-0.3125 0.171875 -0.59375 0.390625q-0.265625 0.21875 -0.484375 0.5l-0.109375 -1.09375l-2.671875 0l0 15.59375zm7.1875 -10.078125l0 0.21875q0 0.703125 -0.125 1.328125q-0.125 0.609375 -0.40625 1.078125q-0.265625 0.46875 -0.703125 0.75q-0.421875 0.265625 -1.046875 0.265625q-0.375 0 -0.6875 -0.078125q-0.3125 -0.078125 -0.5625 -0.234375q-0.25 -0.15625 -0.4375 -0.375q-0.1875 -0.21875 -0.328125 -0.484375l0 -4.703125q0.140625 -0.296875 0.34375 -0.515625q0.203125 -0.21875 0.484375 -0.359375q0.234375 -0.125 0.515625 -0.1875q0.296875 -0.078125 0.65625 -0.078125q0.609375 0 1.046875 0.265625q0.4375 0.25 0.71875 0.703125q0.265625 0.453125 0.390625 1.078125q0.140625 0.625 0.140625 1.328125zm12.92395 5.75l2.609375 0l0 -11.265625l-2.890625 0l0 7.90625q-0.140625 0.265625 -0.328125 0.484375q-0.1875 0.21875 -0.421875 0.375q-0.28125 0.171875 -0.65625 0.265625q-0.375 0.09375 -0.828125 0.09375q-0.515625 0 -0.875 -0.125q-0.34375 -0.125 -0.5625 -0.40625q-0.21875 -0.28125 -0.328125 -0.75q-0.09375 -0.46875 -0.09375 -1.15625l0 -6.6875l-2.890625 0l0 6.65625q0 1.28125 0.28125 2.203125q0.296875 0.90625 0.8125 1.484375q0.515625 0.59375 1.25 0.875q0.734375 0.265625 1.609375 0.265625q0.953125 0 1.75 -0.46875q0.8125 -0.484375 1.390625 -1.328125l0.171875 1.578125zm10.752136 -14.03125l-2.890625 0l0 2.765625l-2.578125 0l0 2.125l2.578125 0l0 5.125q0 1.125 0.28125 1.921875q0.296875 0.796875 0.84375 1.296875q0.53125 0.53125 1.28125 0.78125q0.75 0.234375 1.6875 0.234375q0.46875 0 0.96875 -0.046875q0.5 -0.046875 0.953125 -0.125q0.453125 -0.09375 0.859375 -0.21875q0.40625 -0.125 0.703125 -0.3125l-0.28125 -1.984375q-0.1875 0.046875 -0.46875 0.109375q-0.265625 0.046875 -0.578125 0.09375q-0.328125 0.046875 -0.6875 0.078125q-0.34375 0.03125 -0.671875 0.03125q-0.453125 0 -0.828125 -0.09375q-0.375 -0.109375 -0.625 -0.359375q-0.265625 -0.25 -0.40625 -0.65625q-0.140625 -0.40625 -0.140625 -1.03125l0 -4.84375l4.203125 0l0 -2.125l-4.203125 0l0 -2.765625z" fill-rule="nonzero"/><path fill="#eeeeee" d="m1383.464 328.73352l50.8031 0l0 50.834656l-50.8031 0z" fill-rule="evenodd"/><path stroke="#595959" stroke-width="1.0" stroke-linejoin="round" stroke-linecap="butt" d="m1383.464 328.73352l50.8031 0l0 50.834656l-50.8031 0z" fill-rule="evenodd"/><path fill="#595959" d="m1413.8098 355.8652l0 -3.625q0 -1.46875 -0.34375 -2.578125q-0.34375 -1.125 -0.984375 -1.890625q-0.640625 -0.75 -1.5625 -1.125q-0.90625 -0.390625 -2.0625 -0.390625q-1.125 0 -2.046875 0.390625q-0.90625 0.375 -1.546875 1.125q-0.640625 0.765625 -0.984375 1.890625q-0.34375 1.109375 -0.34375 2.578125l0 3.625q0 1.46875 0.34375 2.59375q0.359375 1.109375 1.0 1.859375q0.640625 0.765625 1.546875 1.15625q0.921875 0.375 2.0625 0.375q1.140625 0 2.046875 -0.375q0.921875 -0.390625 1.5625 -1.15625q0.640625 -0.75 0.96875 -1.859375q0.34375 -1.125 0.34375 -2.59375zm-6.953125 -1.25q0 -0.328125 0 -0.484375q0 -0.171875 0 -0.671875l0 -1.6875q0 -0.828125 0.125 -1.4375q0.125 -0.625 0.40625 -1.015625q0.25 -0.359375 0.609375 -0.53125q0.375 -0.1875 0.859375 -0.1875q0.4375 0 0.78125 0.140625q0.359375 0.140625 0.59375 0.421875q0.3125 0.375 0.46875 0.984375q0.171875 0.609375 0.1875 1.453125l-4.03125 3.015625zm4.03125 1.6875q0 0.84375 -0.125 1.46875q-0.125 0.609375 -0.390625 1.0q-0.25 0.375 -0.625 0.5625q-0.375 0.1875 -0.859375 0.1875q-0.53125 0 -0.921875 -0.203125q-0.390625 -0.21875 -0.640625 -0.640625q-0.21875 -0.359375 -0.34375 -0.890625q-0.109375 -0.53125 -0.125 -1.21875l4.03125 -3.0q0 0.296875 0 0.46875q0 0.15625 0 0.5l0 1.765625z" fill-rule="nonzero"/><path fill="#eeeeee" d="m1570.2762 328.73352l50.803223 0l0 50.834656l-50.803223 0z" fill-rule="evenodd"/><path stroke="#595959" stroke-width="1.0" stroke-linejoin="round" stroke-linecap="butt" d="m1570.2762 328.73352l50.803223 0l0 50.834656l-50.803223 0z" fill-rule="evenodd"/><path fill="#595959" d="m1600.6221 355.8652l0 -3.625q0 -1.46875 -0.34375 -2.578125q-0.34375 -1.125 -0.984375 -1.890625q-0.640625 -0.75 -1.5625 -1.125q-0.90625 -0.390625 -2.0625 -0.390625q-1.125 0 -2.046875 0.390625q-0.90625 0.375 -1.546875 1.125q-0.640625 0.765625 -0.984375 1.890625q-0.34375 1.109375 -0.34375 2.578125l0 3.625q0 1.46875 0.34375 2.59375q0.359375 1.109375 1.0 1.859375q0.640625 0.765625 1.546875 1.15625q0.921875 0.375 2.0625 0.375q1.140625 0 2.046875 -0.375q0.921875 -0.390625 1.5625 -1.15625q0.640625 -0.75 0.96875 -1.859375q0.34375 -1.125 0.34375 -2.59375zm-6.953125 -1.25q0 -0.328125 0 -0.484375q0 -0.171875 0 -0.671875l0 -1.6875q0 -0.828125 0.125 -1.4375q0.125 -0.625 0.40625 -1.015625q0.25 -0.359375 0.609375 -0.53125q0.375 -0.1875 0.859375 -0.1875q0.4375 0 0.78125 0.140625q0.359375 0.140625 0.59375 0.421875q0.3125 0.375 0.46875 0.984375q0.171875 0.609375 0.1875 1.453125l-4.03125 3.015625zm4.03125 1.6875q0 0.84375 -0.125 1.46875q-0.125 0.609375 -0.390625 1.0q-0.25 0.375 -0.625 0.5625q-0.375 0.1875 -0.859375 0.1875q-0.53125 0 -0.921875 -0.203125q-0.390625 -0.21875 -0.640625 -0.640625q-0.21875 -0.359375 -0.34375 -0.890625q-0.109375 -0.53125 -0.125 -1.21875l4.03125 -3.0q0 0.296875 0 0.46875q0 0.15625 0 0.5l0 1.765625z" fill-rule="nonzero"/><path fill="#eeeeee" d="m1508.0048 328.73285l50.8031 0l0 50.834656l-50.8031 0z" fill-rule="evenodd"/><path stroke="#595959" stroke-width="1.0" stroke-linejoin="round" stroke-linecap="butt" d="m1508.0048 328.73285l50.8031 0l0 50.834656l-50.8031 0z" fill-rule="evenodd"/><path fill="#595959" d="m1538.3506 355.86453l0 -3.625q0 -1.46875 -0.34375 -2.578125q-0.34375 -1.125 -0.984375 -1.890625q-0.640625 -0.75 -1.5625 -1.125q-0.90625 -0.390625 -2.0625 -0.390625q-1.125 0 -2.046875 0.390625q-0.90625 0.375 -1.546875 1.125q-0.640625 0.765625 -0.984375 1.890625q-0.34375 1.109375 -0.34375 2.578125l0 3.625q0 1.46875 0.34375 2.59375q0.359375 1.109375 1.0 1.859375q0.640625 0.765625 1.546875 1.15625q0.921875 0.375 2.0625 0.375q1.140625 0 2.046875 -0.375q0.921875 -0.390625 1.5625 -1.15625q0.640625 -0.75 0.96875 -1.859375q0.34375 -1.125 0.34375 -2.59375zm-6.953125 -1.25q0 -0.328125 0 -0.484375q0 -0.171875 0 -0.671875l0 -1.6875q0 -0.828125 0.125 -1.4375q0.125 -0.625 0.40625 -1.015625q0.25 -0.359375 0.609375 -0.53125q0.375 -0.1875 0.859375 -0.1875q0.4375 0 0.78125 0.140625q0.359375 0.140625 0.59375 0.421875q0.3125 0.375 0.46875 0.984375q0.171875 0.609375 0.1875 1.453125l-4.03125 3.015625zm4.03125 1.6875q0 0.84375 -0.125 1.46875q-0.125 0.609375 -0.390625 1.0q-0.25 0.375 -0.625 0.5625q-0.375 0.1875 -0.859375 0.1875q-0.53125 0 -0.921875 -0.203125q-0.390625 -0.21875 -0.640625 -0.640625q-0.21875 -0.359375 -0.34375 -0.890625q-0.109375 -0.53125 -0.125 -1.21875l4.03125 -3.0q0 0.296875 0 0.46875q0 0.15625 0 0.5l0 1.765625z" fill-rule="nonzero"/><path fill="#eeeeee" d="m1445.7338 328.73218l50.8031 0l0 50.834656l-50.8031 0z" fill-rule="evenodd"/><path stroke="#595959" stroke-width="1.0" stroke-linejoin="round" stroke-linecap="butt" d="m1445.7338 328.73218l50.8031 0l0 50.834656l-50.8031 0z" fill-rule="evenodd"/><path fill="#595959" d="m1473.2983 361.6295l0 -15.15625l-0.15625 0l-6.609375 2.375l0 2.515625l3.84375 -1.359375l0 11.625l2.921875 0z" fill-rule="nonzero"/><path fill="#eeeeee" d="m1632.5447 328.73218l50.803223 0l0 50.834656l-50.803223 0z" fill-rule="evenodd"/><path stroke="#595959" stroke-width="1.0" stroke-linejoin="round" stroke-linecap="butt" d="m1632.5447 328.73218l50.803223 0l0 50.834656l-50.803223 0z" fill-rule="evenodd"/><path fill="#595959" d="m1660.1094 361.6295l0 -15.15625l-0.15625 0l-6.609375 2.375l0 2.515625l3.84375 -1.359375l0 11.625l2.921875 0z" fill-rule="nonzero"/><path fill="#000000" fill-opacity="0.0" d="m1134.383 328.73285l50.8031 0l0 50.834656l-50.8031 0z" fill-rule="evenodd"/><path stroke="#b7b7b7" stroke-width="1.0" stroke-linejoin="round" stroke-linecap="butt" stroke-dasharray="4.0,3.0" d="m1134.383 328.73285l50.8031 0l0 50.834656l-50.8031 0z" fill-rule="evenodd"/><path fill="#b7b7b7" d="m1155.4008 346.4739l0 2.359375l2.875 0l0 10.4375l-2.875 0l0 2.359375l8.765625 0l0 -2.359375l-2.953125 0l0 -10.4375l2.953125 0l0 -2.359375l-8.765625 0z" fill-rule="nonzero"/><path fill="#000000" fill-opacity="0.0" d="m1632.5209 515.06354l50.8031 0l0 50.834656l-50.8031 0z" fill-rule="evenodd"/><path stroke="#b7b7b7" stroke-width="1.0" stroke-linejoin="round" stroke-linecap="butt" stroke-dasharray="4.0,3.0" d="m1632.5209 515.06354l50.8031 0l0 50.834656l-50.8031 0z" fill-rule="evenodd"/><path fill="#b7b7b7" d="m1663.4136 543.2109l-2.921875 0q-0.046875 0.6875 -0.234375 1.1875q-0.1875 0.484375 -0.5 0.796875q-0.328125 0.3125 -0.796875 0.453125q-0.453125 0.140625 -1.015625 0.140625q-0.4375 0 -0.78125 -0.09375q-0.34375 -0.09375 -0.625 -0.3125q-0.265625 -0.1875 -0.46875 -0.46875q-0.203125 -0.28125 -0.34375 -0.640625q-0.21875 -0.53125 -0.3125 -1.234375q-0.09375 -0.71875 -0.09375 -1.625l0 -2.0625q0 -0.671875 0.0625 -1.25q0.0625 -0.578125 0.1875 -1.046875q0.1875 -0.625 0.484375 -1.078125q0.296875 -0.46875 0.71875 -0.71875q0.25 -0.140625 0.546875 -0.21875q0.296875 -0.078125 0.640625 -0.078125q0.640625 0 1.109375 0.171875q0.46875 0.171875 0.78125 0.515625q0.296875 0.34375 0.453125 0.859375q0.171875 0.5 0.203125 1.171875l2.921875 0q-0.109375 -1.1875 -0.515625 -2.125q-0.390625 -0.953125 -1.0625 -1.609375q-0.6875 -0.65625 -1.671875 -1.0q-0.96875 -0.359375 -2.21875 -0.359375q-0.84375 0 -1.578125 0.21875q-0.734375 0.203125 -1.34375 0.59375q-0.6875 0.46875 -1.234375 1.15625q-0.546875 0.671875 -0.875 1.53125q-0.296875 0.71875 -0.4375 1.546875q-0.140625 0.8125 -0.140625 1.734375l0 2.046875q0 0.96875 0.15625 1.84375q0.15625 0.875 0.46875 1.609375q0.3125 0.734375 0.765625 1.34375q0.453125 0.59375 1.03125 1.015625q0.640625 0.46875 1.4375 0.71875q0.796875 0.234375 1.734375 0.234375q1.1875 0 2.15625 -0.34375q0.984375 -0.359375 1.6875 -1.0q0.703125 -0.640625 1.125 -1.5625q0.421875 -0.921875 0.5 -2.0625z" fill-rule="nonzero"/><path fill="#000000" fill-opacity="0.0" d="m1694.7781 515.06354l50.8031 0l0 50.834656l-50.8031 0z" fill-rule="evenodd"/><path stroke="#b7b7b7" stroke-width="1.0" stroke-linejoin="round" stroke-linecap="butt" stroke-dasharray="4.0,3.0" d="m1694.7781 515.06354l50.8031 0l0 50.834656l-50.8031 0z" fill-rule="evenodd"/><path fill="#b7b7b7" d="m1725.6708 543.2109l-2.921875 0q-0.046875 0.6875 -0.234375 1.1875q-0.1875 0.484375 -0.5 0.796875q-0.328125 0.3125 -0.796875 0.453125q-0.453125 0.140625 -1.015625 0.140625q-0.4375 0 -0.78125 -0.09375q-0.34375 -0.09375 -0.625 -0.3125q-0.265625 -0.1875 -0.46875 -0.46875q-0.203125 -0.28125 -0.34375 -0.640625q-0.21875 -0.53125 -0.3125 -1.234375q-0.09375 -0.71875 -0.09375 -1.625l0 -2.0625q0 -0.671875 0.0625 -1.25q0.0625 -0.578125 0.1875 -1.046875q0.1875 -0.625 0.484375 -1.078125q0.296875 -0.46875 0.71875 -0.71875q0.25 -0.140625 0.546875 -0.21875q0.296875 -0.078125 0.640625 -0.078125q0.640625 0 1.109375 0.171875q0.46875 0.171875 0.78125 0.515625q0.296875 0.34375 0.453125 0.859375q0.171875 0.5 0.203125 1.171875l2.921875 0q-0.109375 -1.1875 -0.515625 -2.125q-0.390625 -0.953125 -1.0625 -1.609375q-0.6875 -0.65625 -1.671875 -1.0q-0.96875 -0.359375 -2.21875 -0.359375q-0.84375 0 -1.578125 0.21875q-0.734375 0.203125 -1.34375 0.59375q-0.6875 0.46875 -1.234375 1.15625q-0.546875 0.671875 -0.875 1.53125q-0.296875 0.71875 -0.4375 1.546875q-0.140625 0.8125 -0.140625 1.734375l0 2.046875q0 0.96875 0.15625 1.84375q0.15625 0.875 0.46875 1.609375q0.3125 0.734375 0.765625 1.34375q0.453125 0.59375 1.03125 1.015625q0.640625 0.46875 1.4375 0.71875q0.796875 0.234375 1.734375 0.234375q1.1875 0 2.15625 -0.34375q0.984375 -0.359375 1.6875 -1.0q0.703125 -0.640625 1.125 -1.5625q0.421875 -0.921875 0.5 -2.0625z" fill-rule="nonzero"/><path fill="#000000" fill-opacity="0.0" d="m1134.3806 701.3949l50.803223 0l0 50.834595l-50.803223 0z" fill-rule="evenodd"/><path stroke="#b7b7b7" stroke-width="1.0" stroke-linejoin="round" stroke-linecap="butt" stroke-dasharray="4.0,3.0" d="m1134.3806 701.3949l50.803223 0l0 50.834595l-50.803223 0z" fill-rule="evenodd"/><path fill="#b7b7b7" d="m1165.8827 721.5109l0 -2.375l-12.21875 0l0 2.375l4.609375 0l0 12.78125l2.9375 0l0 -12.78125l4.671875 0z" fill-rule="nonzero"/><path fill="#000000" fill-opacity="0.0" d="m1570.2626 515.06415l50.8031 0l0 50.834656l-50.8031 0z" fill-rule="evenodd"/><path stroke="#b7b7b7" stroke-width="1.0" stroke-linejoin="round" stroke-linecap="butt" stroke-dasharray="4.0,3.0" d="m1570.2626 515.06415l50.8031 0l0 50.834656l-50.8031 0z" fill-rule="evenodd"/><path fill="#b7b7b7" d="m1601.1553 543.2115l-2.921875 0q-0.046875 0.6875 -0.234375 1.1875q-0.1875 0.484375 -0.5 0.796875q-0.328125 0.3125 -0.796875 0.453125q-0.453125 0.140625 -1.015625 0.140625q-0.4375 0 -0.78125 -0.09375q-0.34375 -0.09375 -0.625 -0.3125q-0.265625 -0.1875 -0.46875 -0.46875q-0.203125 -0.28125 -0.34375 -0.640625q-0.21875 -0.53125 -0.3125 -1.234375q-0.09375 -0.71875 -0.09375 -1.625l0 -2.0625q0 -0.671875 0.0625 -1.25q0.0625 -0.578125 0.1875 -1.046875q0.1875 -0.625 0.484375 -1.078125q0.296875 -0.46875 0.71875 -0.71875q0.25 -0.140625 0.546875 -0.21875q0.296875 -0.078125 0.640625 -0.078125q0.640625 0 1.109375 0.171875q0.46875 0.171875 0.78125 0.515625q0.296875 0.34375 0.453125 0.859375q0.171875 0.5 0.203125 1.171875l2.921875 0q-0.109375 -1.1875 -0.515625 -2.125q-0.390625 -0.953125 -1.0625 -1.609375q-0.6875 -0.65625 -1.671875 -1.0q-0.96875 -0.359375 -2.21875 -0.359375q-0.84375 0 -1.578125 0.21875q-0.734375 0.203125 -1.34375 0.59375q-0.6875 0.46875 -1.234375 1.15625q-0.546875 0.671875 -0.875 1.53125q-0.296875 0.71875 -0.4375 1.546875q-0.140625 0.8125 -0.140625 1.734375l0 2.046875q0 0.96875 0.15625 1.84375q0.15625 0.875 0.46875 1.609375q0.3125 0.734375 0.765625 1.34375q0.453125 0.59375 1.03125 1.015625q0.640625 0.46875 1.4375 0.71875q0.796875 0.234375 1.734375 0.234375q1.1875 0 2.15625 -0.34375q0.984375 -0.359375 1.6875 -1.0q0.703125 -0.640625 1.125 -1.5625q0.421875 -0.921875 0.5 -2.0625z" fill-rule="nonzero"/><path fill="#000000" fill-opacity="0.0" d="m1321.2347 515.06287l50.8031 0l0 50.834656l-50.8031 0z" fill-rule="evenodd"/><path stroke="#b7b7b7" stroke-width="1.0" stroke-linejoin="round" stroke-linecap="butt" stroke-dasharray="4.0,3.0" d="m1321.2347 515.06287l50.8031 0l0 50.834656l-50.8031 0z" fill-rule="evenodd"/><path fill="#b7b7b7" d="m1352.1274 543.2102l-2.921875 0q-0.046875 0.6875 -0.234375 1.1875q-0.1875 0.484375 -0.5 0.796875q-0.328125 0.3125 -0.796875 0.453125q-0.453125 0.140625 -1.015625 0.140625q-0.4375 0 -0.78125 -0.09375q-0.34375 -0.09375 -0.625 -0.3125q-0.265625 -0.1875 -0.46875 -0.46875q-0.203125 -0.28125 -0.34375 -0.640625q-0.21875 -0.53125 -0.3125 -1.234375q-0.09375 -0.71875 -0.09375 -1.625l0 -2.0625q0 -0.671875 0.0625 -1.25q0.0625 -0.578125 0.1875 -1.046875q0.1875 -0.625 0.484375 -1.078125q0.296875 -0.46875 0.71875 -0.71875q0.25 -0.140625 0.546875 -0.21875q0.296875 -0.078125 0.640625 -0.078125q0.640625 0 1.109375 0.171875q0.46875 0.171875 0.78125 0.515625q0.296875 0.34375 0.453125 0.859375q0.171875 0.5 0.203125 1.171875l2.921875 0q-0.109375 -1.1875 -0.515625 -2.125q-0.390625 -0.953125 -1.0625 -1.609375q-0.6875 -0.65625 -1.671875 -1.0q-0.96875 -0.359375 -2.21875 -0.359375q-0.84375 0 -1.578125 0.21875q-0.734375 0.203125 -1.34375 0.59375q-0.6875 0.46875 -1.234375 1.15625q-0.546875 0.671875 -0.875 1.53125q-0.296875 0.71875 -0.4375 1.546875q-0.140625 0.8125 -0.140625 1.734375l0 2.046875q0 0.96875 0.15625 1.84375q0.15625 0.875 0.46875 1.609375q0.3125 0.734375 0.765625 1.34375q0.453125 0.59375 1.03125 1.015625q0.640625 0.46875 1.4375 0.71875q0.796875 0.234375 1.734375 0.234375q1.1875 0 2.15625 -0.34375q0.984375 -0.359375 1.6875 -1.0q0.703125 -0.640625 1.125 -1.5625q0.421875 -0.921875 0.5 -2.0625z" fill-rule="nonzero"/><path fill="#000000" fill-opacity="0.0" d="m1383.4933 515.06287l50.8031 0l0 50.834656l-50.8031 0z" fill-rule="evenodd"/><path stroke="#b7b7b7" stroke-width="1.0" stroke-linejoin="round" stroke-linecap="butt" stroke-dasharray="4.0,3.0" d="m1383.4933 515.06287l50.8031 0l0 50.834656l-50.8031 0z" fill-rule="evenodd"/><path fill="#b7b7b7" d="m1414.386 543.2102l-2.921875 0q-0.046875 0.6875 -0.234375 1.1875q-0.1875 0.484375 -0.5 0.796875q-0.328125 0.3125 -0.796875 0.453125q-0.453125 0.140625 -1.015625 0.140625q-0.4375 0 -0.78125 -0.09375q-0.34375 -0.09375 -0.625 -0.3125q-0.265625 -0.1875 -0.46875 -0.46875q-0.203125 -0.28125 -0.34375 -0.640625q-0.21875 -0.53125 -0.3125 -1.234375q-0.09375 -0.71875 -0.09375 -1.625l0 -2.0625q0 -0.671875 0.0625 -1.25q0.0625 -0.578125 0.1875 -1.046875q0.1875 -0.625 0.484375 -1.078125q0.296875 -0.46875 0.71875 -0.71875q0.25 -0.140625 0.546875 -0.21875q0.296875 -0.078125 0.640625 -0.078125q0.640625 0 1.109375 0.171875q0.46875 0.171875 0.78125 0.515625q0.296875 0.34375 0.453125 0.859375q0.171875 0.5 0.203125 1.171875l2.921875 0q-0.109375 -1.1875 -0.515625 -2.125q-0.390625 -0.953125 -1.0625 -1.609375q-0.6875 -0.65625 -1.671875 -1.0q-0.96875 -0.359375 -2.21875 -0.359375q-0.84375 0 -1.578125 0.21875q-0.734375 0.203125 -1.34375 0.59375q-0.6875 0.46875 -1.234375 1.15625q-0.546875 0.671875 -0.875 1.53125q-0.296875 0.71875 -0.4375 1.546875q-0.140625 0.8125 -0.140625 1.734375l0 2.046875q0 0.96875 0.15625 1.84375q0.15625 0.875 0.46875 1.609375q0.3125 0.734375 0.765625 1.34375q0.453125 0.59375 1.03125 1.015625q0.640625 0.46875 1.4375 0.71875q0.796875 0.234375 1.734375 0.234375q1.1875 0 2.15625 -0.34375q0.984375 -0.359375 1.6875 -1.0q0.703125 -0.640625 1.125 -1.5625q0.421875 -0.921875 0.5 -2.0625z" fill-rule="nonzero"/><path fill="#000000" fill-opacity="0.0" d="m1508.0063 515.06287l50.8031 0l0 50.834656l-50.8031 0z" fill-rule="evenodd"/><path stroke="#b7b7b7" stroke-width="1.0" stroke-linejoin="round" stroke-linecap="butt" stroke-dasharray="4.0,3.0" d="m1508.0063 515.06287l50.8031 0l0 50.834656l-50.8031 0z" fill-rule="evenodd"/><path fill="#b7b7b7" d="m1538.899 543.2102l-2.921875 0q-0.046875 0.6875 -0.234375 1.1875q-0.1875 0.484375 -0.5 0.796875q-0.328125 0.3125 -0.796875 0.453125q-0.453125 0.140625 -1.015625 0.140625q-0.4375 0 -0.78125 -0.09375q-0.34375 -0.09375 -0.625 -0.3125q-0.265625 -0.1875 -0.46875 -0.46875q-0.203125 -0.28125 -0.34375 -0.640625q-0.21875 -0.53125 -0.3125 -1.234375q-0.09375 -0.71875 -0.09375 -1.625l0 -2.0625q0 -0.671875 0.0625 -1.25q0.0625 -0.578125 0.1875 -1.046875q0.1875 -0.625 0.484375 -1.078125q0.296875 -0.46875 0.71875 -0.71875q0.25 -0.140625 0.546875 -0.21875q0.296875 -0.078125 0.640625 -0.078125q0.640625 0 1.109375 0.171875q0.46875 0.171875 0.78125 0.515625q0.296875 0.34375 0.453125 0.859375q0.171875 0.5 0.203125 1.171875l2.921875 0q-0.109375 -1.1875 -0.515625 -2.125q-0.390625 -0.953125 -1.0625 -1.609375q-0.6875 -0.65625 -1.671875 -1.0q-0.96875 -0.359375 -2.21875 -0.359375q-0.84375 0 -1.578125 0.21875q-0.734375 0.203125 -1.34375 0.59375q-0.6875 0.46875 -1.234375 1.15625q-0.546875 0.671875 -0.875 1.53125q-0.296875 0.71875 -0.4375 1.546875q-0.140625 0.8125 -0.140625 1.734375l0 2.046875q0 0.96875 0.15625 1.84375q0.15625 0.875 0.46875 1.609375q0.3125 0.734375 0.765625 1.34375q0.453125 0.59375 1.03125 1.015625q0.640625 0.46875 1.4375 0.71875q0.796875 0.234375 1.734375 0.234375q1.1875 0 2.15625 -0.34375q0.984375 -0.359375 1.6875 -1.0q0.703125 -0.640625 1.125 -1.5625q0.421875 -0.921875 0.5 -2.0625z" fill-rule="nonzero"/><path fill="#000000" fill-opacity="0.0" d="m1445.7505 515.06287l50.803223 0l0 50.834656l-50.803223 0z" fill-rule="evenodd"/><path stroke="#b7b7b7" stroke-width="1.0" stroke-linejoin="round" stroke-linecap="butt" stroke-dasharray="4.0,3.0" d="m1445.7505 515.06287l50.803223 0l0 50.834656l-50.803223 0z" fill-rule="evenodd"/><path fill="#b7b7b7" d="m1476.6432 543.2102l-2.921875 0q-0.046875 0.6875 -0.234375 1.1875q-0.1875 0.484375 -0.5 0.796875q-0.328125 0.3125 -0.796875 0.453125q-0.453125 0.140625 -1.015625 0.140625q-0.4375 0 -0.78125 -0.09375q-0.34375 -0.09375 -0.625 -0.3125q-0.265625 -0.1875 -0.46875 -0.46875q-0.203125 -0.28125 -0.34375 -0.640625q-0.21875 -0.53125 -0.3125 -1.234375q-0.09375 -0.71875 -0.09375 -1.625l0 -2.0625q0 -0.671875 0.0625 -1.25q0.0625 -0.578125 0.1875 -1.046875q0.1875 -0.625 0.484375 -1.078125q0.296875 -0.46875 0.71875 -0.71875q0.25 -0.140625 0.546875 -0.21875q0.296875 -0.078125 0.640625 -0.078125q0.640625 0 1.109375 0.171875q0.46875 0.171875 0.78125 0.515625q0.296875 0.34375 0.453125 0.859375q0.171875 0.5 0.203125 1.171875l2.921875 0q-0.109375 -1.1875 -0.515625 -2.125q-0.390625 -0.953125 -1.0625 -1.609375q-0.6875 -0.65625 -1.671875 -1.0q-0.96875 -0.359375 -2.21875 -0.359375q-0.84375 0 -1.578125 0.21875q-0.734375 0.203125 -1.34375 0.59375q-0.6875 0.46875 -1.234375 1.15625q-0.546875 0.671875 -0.875 1.53125q-0.296875 0.71875 -0.4375 1.546875q-0.140625 0.8125 -0.140625 1.734375l0 2.046875q0 0.96875 0.15625 1.84375q0.15625 0.875 0.46875 1.609375q0.3125 0.734375 0.765625 1.34375q0.453125 0.59375 1.03125 1.015625q0.640625 0.46875 1.4375 0.71875q0.796875 0.234375 1.734375 0.234375q1.1875 0 2.15625 -0.34375q0.984375 -0.359375 1.6875 -1.0q0.703125 -0.640625 1.125 -1.5625q0.421875 -0.921875 0.5 -2.0625z" fill-rule="nonzero"/><path fill="#000000" fill-opacity="0.0" d="m1134.4618 515.06354l50.8031 0l0 50.834656l-50.8031 0z" fill-rule="evenodd"/><path stroke="#b7b7b7" stroke-width="1.0" stroke-linejoin="round" stroke-linecap="butt" stroke-dasharray="4.0,3.0" d="m1134.4618 515.06354l50.8031 0l0 50.834656l-50.8031 0z" fill-rule="evenodd"/><path fill="#b7b7b7" d="m1157.9639 545.6015l0 -12.796875l-2.9375 0l0 15.15625l10.03125 0l0 -2.359375l-7.09375 0z" fill-rule="nonzero"/><path fill="#eeeeee" d="m1508.0027 701.3936l50.803223 0l0 50.834595l-50.803223 0z" fill-rule="evenodd"/><path stroke="#595959" stroke-width="1.0" stroke-linejoin="round" stroke-linecap="butt" d="m1508.0027 701.3936l50.803223 0l0 50.834595l-50.803223 0z" fill-rule="evenodd"/><path fill="#595959" d="m1535.5674 734.2909l0 -15.15625l-0.15625 0l-6.609375 2.375l0 2.515625l3.84375 -1.359375l0 11.625l2.921875 0z" fill-rule="nonzero"/><path fill="#000000" fill-opacity="0.0" d="m1352.3649 168.51982l362.07874 0l0 50.83464l-362.07874 0z" fill-rule="evenodd"/><path fill="#595959" d="m1465.4386 201.41714l2.609375 0l0 -11.265625l-2.890625 0l0 7.90625q-0.140625 0.265625 -0.328125 0.484375q-0.1875 0.21875 -0.421875 0.375q-0.28125 0.171875 -0.65625 0.265625q-0.375 0.09375 -0.828125 0.09375q-0.515625 0 -0.875 -0.125q-0.34375 -0.125 -0.5625 -0.40625q-0.21875 -0.28125 -0.328125 -0.75q-0.09375 -0.46875 -0.09375 -1.15625l0 -6.6875l-2.890625 0l0 6.65625q0 1.28125 0.28125 2.203125q0.296875 0.90625 0.8125 1.484375q0.515625 0.59375 1.25 0.875q0.734375 0.265625 1.609375 0.265625q0.953125 0 1.75 -0.46875q0.8125 -0.484375 1.390625 -1.328125l0.171875 1.578125zm5.48645 4.328125l2.890625 0l0 -5.3125q0.203125 0.21875 0.421875 0.40625q0.21875 0.171875 0.453125 0.3125q0.40625 0.234375 0.875 0.34375q0.484375 0.125 1.046875 0.125q1.0625 0 1.875 -0.4375q0.828125 -0.4375 1.390625 -1.203125q0.546875 -0.765625 0.828125 -1.8125q0.296875 -1.046875 0.296875 -2.28125l0 -0.21875q0 -1.28125 -0.296875 -2.328125q-0.28125 -1.0625 -0.84375 -1.828125q-0.5625 -0.75 -1.390625 -1.15625q-0.8125 -0.40625 -1.890625 -0.40625q-0.515625 0 -0.96875 0.109375q-0.453125 0.109375 -0.828125 0.296875q-0.3125 0.171875 -0.59375 0.390625q-0.265625 0.21875 -0.484375 0.5l-0.109375 -1.09375l-2.671875 0l0 15.59375zm7.1875 -10.078125l0 0.21875q0 0.703125 -0.125 1.328125q-0.125 0.609375 -0.40625 1.078125q-0.265625 0.46875 -0.703125 0.75q-0.421875 0.265625 -1.046875 0.265625q-0.375 0 -0.6875 -0.078125q-0.3125 -0.078125 -0.5625 -0.234375q-0.25 -0.15625 -0.4375 -0.375q-0.1875 -0.21875 -0.328125 -0.484375l0 -4.703125q0.140625 -0.296875 0.34375 -0.515625q0.203125 -0.21875 0.484375 -0.359375q0.234375 -0.125 0.515625 -0.1875q0.296875 -0.078125 0.65625 -0.078125q0.609375 0 1.046875 0.265625q0.4375 0.25 0.71875 0.703125q0.265625 0.453125 0.390625 1.078125q0.140625 0.625 0.140625 1.328125zm5.2677 0.03125l0 0.21875q0 1.234375 0.296875 2.28125q0.296875 1.046875 0.875 1.796875q0.5625 0.765625 1.375 1.203125q0.828125 0.421875 1.859375 0.421875q0.9375 0 1.65625 -0.359375q0.71875 -0.359375 1.25 -1.015625l0.15625 1.171875l2.609375 0l0 -16.0l-2.90625 0l0 5.734375q-0.515625 -0.578125 -1.1875 -0.890625q-0.671875 -0.3125 -1.5625 -0.3125q-1.046875 0 -1.875 0.421875q-0.8125 0.40625 -1.390625 1.15625q-0.5625 0.765625 -0.859375 1.828125q-0.296875 1.0625 -0.296875 2.34375zm2.890625 0.21875l0 -0.21875q0 -0.703125 0.125 -1.328125q0.125 -0.625 0.390625 -1.09375q0.28125 -0.453125 0.703125 -0.71875q0.4375 -0.265625 1.046875 -0.265625q0.75 0 1.234375 0.328125q0.484375 0.3125 0.78125 0.875l0 4.5625q-0.296875 0.5625 -0.796875 0.890625q-0.484375 0.328125 -1.234375 0.328125q-0.609375 0 -1.046875 -0.265625q-0.421875 -0.265625 -0.6875 -0.71875q-0.28125 -0.453125 -0.40625 -1.0625q-0.109375 -0.609375 -0.109375 -1.3125zm17.252075 5.5l2.921875 0l0 -0.171875q-0.21875 -0.4375 -0.328125 -1.03125q-0.109375 -0.59375 -0.109375 -1.5l0 -4.828125q0 -0.984375 -0.375 -1.71875q-0.359375 -0.75 -1.0 -1.234375q-0.640625 -0.484375 -1.53125 -0.734375q-0.875 -0.25 -1.890625 -0.25q-1.140625 0 -2.03125 0.28125q-0.875 0.28125 -1.46875 0.765625q-0.625 0.5 -0.9375 1.140625q-0.3125 0.640625 -0.3125 1.359375l2.890625 0q0 -0.296875 0.078125 -0.546875q0.09375 -0.25 0.28125 -0.421875q0.21875 -0.203125 0.546875 -0.3125q0.328125 -0.109375 0.796875 -0.109375q0.515625 0 0.90625 0.140625q0.390625 0.125 0.65625 0.359375q0.25 0.234375 0.375 0.546875q0.125 0.3125 0.125 0.71875l0 0.65625l-1.625 0q-1.25 0 -2.21875 0.234375q-0.953125 0.21875 -1.609375 0.640625q-0.734375 0.46875 -1.09375 1.203125q-0.359375 0.71875 -0.359375 1.65625q0 0.734375 0.28125 1.359375q0.296875 0.609375 0.8125 1.0625q0.53125 0.4375 1.25 0.6875q0.71875 0.25 1.59375 0.25q0.53125 0 0.984375 -0.09375q0.453125 -0.09375 0.84375 -0.28125q0.375 -0.15625 0.6875 -0.390625q0.3125 -0.234375 0.546875 -0.484375q0.0625 0.296875 0.125 0.578125q0.078125 0.265625 0.1875 0.46875zm-2.765625 -2.03125q-0.40625 0 -0.71875 -0.09375q-0.296875 -0.109375 -0.515625 -0.265625q-0.203125 -0.1875 -0.3125 -0.4375q-0.109375 -0.25 -0.109375 -0.5625q0 -0.375 0.140625 -0.703125q0.15625 -0.328125 0.453125 -0.578125q0.296875 -0.21875 0.78125 -0.34375q0.484375 -0.140625 1.15625 -0.140625l1.484375 0l0 1.9375q-0.125 0.21875 -0.34375 0.4375q-0.21875 0.203125 -0.53125 0.375q-0.296875 0.171875 -0.671875 0.28125q-0.375 0.09375 -0.8125 0.09375zm13.8302 -12.0l-2.890625 0l0 2.765625l-2.578125 0l0 2.125l2.578125 0l0 5.125q0 1.125 0.28125 1.921875q0.296875 0.796875 0.84375 1.296875q0.53125 0.53125 1.28125 0.78125q0.75 0.234375 1.6875 0.234375q0.46875 0 0.96875 -0.046875q0.5 -0.046875 0.953125 -0.125q0.453125 -0.09375 0.859375 -0.21875q0.40625 -0.125 0.703125 -0.3125l-0.28125 -1.984375q-0.1875 0.046875 -0.46875 0.109375q-0.265625 0.046875 -0.578125 0.09375q-0.328125 0.046875 -0.6875 0.078125q-0.34375 0.03125 -0.671875 0.03125q-0.453125 0 -0.828125 -0.09375q-0.375 -0.109375 -0.625 -0.359375q-0.265625 -0.25 -0.40625 -0.65625q-0.140625 -0.40625 -0.140625 -1.03125l0 -4.84375l4.203125 0l0 -2.125l-4.203125 0l0 -2.765625zm12.9552 14.234375q1.640625 0 2.828125 -0.625q1.203125 -0.640625 1.75 -1.421875l-1.4375 -1.5625q-0.5 0.640625 -1.3125 0.96875q-0.796875 0.328125 -1.65625 0.328125q-0.59375 0 -1.109375 -0.1875q-0.515625 -0.1875 -0.90625 -0.53125q-0.390625 -0.34375 -0.625 -0.75q-0.21875 -0.40625 -0.359375 -1.09375l0 -0.03125l7.640625 0l0 -1.21875q0 -1.25 -0.34375 -2.265625q-0.34375 -1.03125 -1.0 -1.765625q-0.671875 -0.71875 -1.625 -1.109375q-0.953125 -0.40625 -2.171875 -0.40625q-1.171875 0 -2.171875 0.421875q-1.0 0.421875 -1.734375 1.1875q-0.71875 0.78125 -1.125 1.84375q-0.40625 1.0625 -0.40625 2.359375l0 0.421875q0 1.125 0.40625 2.125q0.40625 1.0 1.171875 1.71875q0.765625 0.75 1.828125 1.171875q1.0625 0.421875 2.359375 0.421875zm-0.34375 -9.34375q0.546875 0 0.96875 0.171875q0.421875 0.171875 0.71875 0.46875q0.296875 0.296875 0.453125 0.703125q0.171875 0.40625 0.171875 0.875l0 0.21875l-4.75 0q0.109375 -0.546875 0.3125 -0.984375q0.203125 -0.453125 0.515625 -0.78125q0.3125 -0.328125 0.71875 -0.5q0.40625 -0.171875 0.890625 -0.171875zm21.238647 -2.125l0 2.359375l3.21875 0l0 6.546875l-3.21875 0l0 2.359375l9.1875 0l0 -2.359375l-3.046875 0l0 -8.90625l-6.140625 0zm3.0 -2.890625q0 0.34375 0.125 0.625q0.125 0.28125 0.34375 0.484375q0.21875 0.203125 0.515625 0.328125q0.3125 0.109375 0.6875 0.109375q0.765625 0 1.21875 -0.421875q0.453125 -0.4375 0.453125 -1.125q0 -0.671875 -0.453125 -1.09375q-0.453125 -0.4375 -1.21875 -0.4375q-0.375 0 -0.6875 0.109375q-0.296875 0.109375 -0.515625 0.3125q-0.21875 0.203125 -0.34375 0.5q-0.125 0.28125 -0.125 0.609375zm9.033325 14.15625l2.90625 0l0 -8.015625q0.140625 -0.21875 0.3125 -0.40625q0.1875 -0.1875 0.40625 -0.328125q0.265625 -0.1875 0.609375 -0.28125q0.359375 -0.09375 0.78125 -0.09375q0.5 0 0.890625 0.109375q0.390625 0.09375 0.671875 0.34375q0.28125 0.25 0.4375 0.6875q0.15625 0.421875 0.15625 1.09375l0 6.890625l2.890625 0l0 -6.9375q0 -1.234375 -0.296875 -2.09375q-0.28125 -0.859375 -0.78125 -1.40625q-0.53125 -0.53125 -1.234375 -0.78125q-0.703125 -0.25 -1.5625 -0.25q-0.671875 0 -1.265625 0.1875q-0.59375 0.1875 -1.09375 0.53125q-0.28125 0.203125 -0.546875 0.46875q-0.265625 0.265625 -0.484375 0.578125l-0.171875 -1.5625l-2.625 0l0 11.265625zm12.845825 4.328125l2.890625 0l0 -5.3125q0.203125 0.21875 0.421875 0.40625q0.21875 0.171875 0.453125 0.3125q0.40625 0.234375 0.875 0.34375q0.484375 0.125 1.046875 0.125q1.0625 0 1.875 -0.4375q0.828125 -0.4375 1.390625 -1.203125q0.546875 -0.765625 0.828125 -1.8125q0.296875 -1.046875 0.296875 -2.28125l0 -0.21875q0 -1.28125 -0.296875 -2.328125q-0.28125 -1.0625 -0.84375 -1.828125q-0.5625 -0.75 -1.390625 -1.15625q-0.8125 -0.40625 -1.890625 -0.40625q-0.515625 0 -0.96875 0.109375q-0.453125 0.109375 -0.828125 0.296875q-0.3125 0.171875 -0.59375 0.390625q-0.265625 0.21875 -0.484375 0.5l-0.109375 -1.09375l-2.671875 0l0 15.59375zm7.1875 -10.078125l0 0.21875q0 0.703125 -0.125 1.328125q-0.125 0.609375 -0.40625 1.078125q-0.265625 0.46875 -0.703125 0.75q-0.421875 0.265625 -1.046875 0.265625q-0.375 0 -0.6875 -0.078125q-0.3125 -0.078125 -0.5625 -0.234375q-0.25 -0.15625 -0.4375 -0.375q-0.1875 -0.21875 -0.328125 -0.484375l0 -4.703125q0.140625 -0.296875 0.34375 -0.515625q0.203125 -0.21875 0.484375 -0.359375q0.234375 -0.125 0.515625 -0.1875q0.296875 -0.078125 0.65625 -0.078125q0.609375 0 1.046875 0.265625q0.4375 0.25 0.71875 0.703125q0.265625 0.453125 0.390625 1.078125q0.140625 0.625 0.140625 1.328125zm12.92395 5.75l2.609375 0l0 -11.265625l-2.890625 0l0 7.90625q-0.140625 0.265625 -0.328125 0.484375q-0.1875 0.21875 -0.421875 0.375q-0.28125 0.171875 -0.65625 0.265625q-0.375 0.09375 -0.828125 0.09375q-0.515625 0 -0.875 -0.125q-0.34375 -0.125 -0.5625 -0.40625q-0.21875 -0.28125 -0.328125 -0.75q-0.09375 -0.46875 -0.09375 -1.15625l0 -6.6875l-2.890625 0l0 6.65625q0 1.28125 0.28125 2.203125q0.296875 0.90625 0.8125 1.484375q0.515625 0.59375 1.25 0.875q0.734375 0.265625 1.609375 0.265625q0.953125 0 1.75 -0.46875q0.8125 -0.484375 1.390625 -1.328125l0.171875 1.578125zm10.752075 -14.03125l-2.890625 0l0 2.765625l-2.578125 0l0 2.125l2.578125 0l0 5.125q0 1.125 0.28125 1.921875q0.296875 0.796875 0.84375 1.296875q0.53125 0.53125 1.28125 0.78125q0.75 0.234375 1.6875 0.234375q0.46875 0 0.96875 -0.046875q0.5 -0.046875 0.953125 -0.125q0.453125 -0.09375 0.859375 -0.21875q0.40625 -0.125 0.703125 -0.3125l-0.28125 -1.984375q-0.1875 0.046875 -0.46875 0.109375q-0.265625 0.046875 -0.578125 0.09375q-0.328125 0.046875 -0.6875 0.078125q-0.34375 0.03125 -0.671875 0.03125q-0.453125 0 -0.828125 -0.09375q-0.375 -0.109375 -0.625 -0.359375q-0.265625 -0.25 -0.40625 -0.65625q-0.140625 -0.40625 -0.140625 -1.03125l0 -4.84375l4.203125 0l0 -2.125l-4.203125 0l0 -2.765625z" fill-rule="nonzero"/><path fill="#000000" fill-opacity="0.0" d="m1383.7664 255.02493c0 -6.6882935 5.421997 -12.1102295 12.1102295 -12.1102295l125.41736 0c6.6883545 0 12.1102295 -5.421936 12.1102295 -12.110245l0 0c0 6.6883087 5.421997 12.110245 12.1102295 12.110245l125.41736 0l0 0c6.6883545 0 12.1102295 5.421936 12.1102295 12.1102295z" fill-rule="evenodd"/><path fill="#000000" fill-opacity="0.0" d="m1383.7664 255.02493c0 -6.6882935 5.421997 -12.1102295 12.1102295 -12.1102295l125.41736 0c6.6883545 0 12.1102295 -5.421936 12.1102295 -12.110245l0 0c0 6.6883087 5.421997 12.110245 12.1102295 12.110245l125.41736 0l0 0c6.6883545 0 12.1102295 5.421936 12.1102295 12.1102295" fill-rule="evenodd"/><path stroke="#595959" stroke-width="1.0" stroke-linejoin="round" stroke-linecap="butt" d="m1383.7664 255.02493c0 -6.6882935 5.421997 -12.1102295 12.1102295 -12.1102295l125.41736 0c6.6883545 0 12.1102295 -5.421936 12.1102295 -12.110245l0 0c0 6.6883087 5.421997 12.110245 12.1102295 12.110245l125.41736 0l0 0c6.6883545 0 12.1102295 5.421936 12.1102295 12.1102295" fill-rule="evenodd"/><path fill="#000000" fill-opacity="0.0" d="m1352.3649 861.60645l362.07874 0l0 50.834656l-362.07874 0z" fill-rule="evenodd"/><path fill="#595959" d="m1476.1907 880.47253l-2.890625 0l0 2.765625l-2.578125 0l0 2.125l2.578125 0l0 5.125q0 1.125 0.28125 1.921875q0.296875 0.796875 0.84375 1.296875q0.53125 0.53125 1.28125 0.78125q0.75 0.234375 1.6875 0.234375q0.46875 0 0.96875 -0.046875q0.5 -0.046875 0.953125 -0.125q0.453125 -0.09375 0.859375 -0.21875q0.40625 -0.125 0.703125 -0.3125l-0.28125 -1.984375q-0.1875 0.046875 -0.46875 0.109375q-0.265625 0.046875 -0.578125 0.09375q-0.328125 0.046875 -0.6875 0.078125q-0.34375 0.03125 -0.671875 0.03125q-0.453125 0 -0.828125 -0.09375q-0.375 -0.109375 -0.625 -0.359375q-0.265625 -0.25 -0.40625 -0.65625q-0.140625 -0.40625 -0.140625 -1.03125l0 -4.84375l4.203125 0l0 -2.125l-4.203125 0l0 -2.765625zm15.5802 2.5625q-1.140625 0 -2.09375 0.546875q-0.953125 0.53125 -1.640625 1.5l-0.03125 -0.25l-0.109375 -1.59375l-2.703125 0l0 11.265625l2.90625 0l0 -6.765625q0.1875 -0.484375 0.484375 -0.828125q0.3125 -0.359375 0.734375 -0.59375q0.359375 -0.203125 0.8125 -0.296875q0.453125 -0.09375 1.015625 -0.09375q0.546875 0 1.140625 0.0625q0.59375 0.0625 1.171875 0.203125l0.421875 -2.875q-0.34375 -0.109375 -0.90625 -0.1875q-0.546875 -0.09375 -1.203125 -0.09375zm12.064575 11.46875l2.609375 0l0 -11.265625l-2.890625 0l0 7.90625q-0.140625 0.265625 -0.328125 0.484375q-0.1875 0.21875 -0.421875 0.375q-0.28125 0.171875 -0.65625 0.265625q-0.375 0.09375 -0.828125 0.09375q-0.515625 0 -0.875 -0.125q-0.34375 -0.125 -0.5625 -0.40625q-0.21875 -0.28125 -0.328125 -0.75q-0.09375 -0.46875 -0.09375 -1.15625l0 -6.6875l-2.890625 0l0 6.65625q0 1.28125 0.28125 2.203125q0.296875 0.90625 0.8125 1.484375q0.515625 0.59375 1.25 0.875q0.734375 0.265625 1.609375 0.265625q0.953125 0 1.75 -0.46875q0.8125 -0.484375 1.390625 -1.328125l0.171875 1.578125zm10.908325 0.203125q1.640625 0 2.828125 -0.625q1.203125 -0.640625 1.75 -1.421875l-1.4375 -1.5625q-0.5 0.640625 -1.3125 0.96875q-0.796875 0.328125 -1.65625 0.328125q-0.59375 0 -1.109375 -0.1875q-0.515625 -0.1875 -0.90625 -0.53125q-0.390625 -0.34375 -0.625 -0.75q-0.21875 -0.40625 -0.359375 -1.09375l0 -0.03125l7.640625 0l0 -1.21875q0 -1.25 -0.34375 -2.265625q-0.34375 -1.03125 -1.0 -1.765625q-0.671875 -0.71875 -1.625 -1.109375q-0.953125 -0.40625 -2.171875 -0.40625q-1.171875 0 -2.171875 0.421875q-1.0 0.421875 -1.734375 1.1875q-0.71875 0.78125 -1.125 1.84375q-0.40625 1.0625 -0.40625 2.359375l0 0.421875q0 1.125 0.40625 2.125q0.40625 1.0 1.171875 1.71875q0.765625 0.75 1.828125 1.171875q1.0625 0.421875 2.359375 0.421875zm-0.34375 -9.34375q0.546875 0 0.96875 0.171875q0.421875 0.171875 0.71875 0.46875q0.296875 0.296875 0.453125 0.703125q0.171875 0.40625 0.171875 0.875l0 0.21875l-4.75 0q0.109375 -0.546875 0.3125 -0.984375q0.203125 -0.453125 0.515625 -0.78125q0.3125 -0.328125 0.71875 -0.5q0.40625 -0.171875 0.890625 -0.171875zm21.082397 -6.859375l0 2.375l3.375 0l0 11.265625l-3.375 0l0 2.359375l9.515625 0l0 -2.359375l-3.21875 0l0 -13.640625l-6.296875 0zm19.23645 16.0l2.921875 0l0 -0.171875q-0.21875 -0.4375 -0.328125 -1.03125q-0.109375 -0.59375 -0.109375 -1.5l0 -4.828125q0 -0.984375 -0.375 -1.71875q-0.359375 -0.75 -1.0 -1.234375q-0.640625 -0.484375 -1.53125 -0.734375q-0.875 -0.25 -1.890625 -0.25q-1.140625 0 -2.03125 0.28125q-0.875 0.28125 -1.46875 0.765625q-0.625 0.5 -0.9375 1.140625q-0.3125 0.640625 -0.3125 1.359375l2.890625 0q0 -0.296875 0.078125 -0.546875q0.09375 -0.25 0.28125 -0.421875q0.21875 -0.203125 0.546875 -0.3125q0.328125 -0.109375 0.796875 -0.109375q0.515625 0 0.90625 0.140625q0.390625 0.125 0.65625 0.359375q0.25 0.234375 0.375 0.546875q0.125 0.3125 0.125 0.71875l0 0.65625l-1.625 0q-1.25 0 -2.21875 0.234375q-0.953125 0.21875 -1.609375 0.640625q-0.734375 0.46875 -1.09375 1.203125q-0.359375 0.71875 -0.359375 1.65625q0 0.734375 0.28125 1.359375q0.296875 0.609375 0.8125 1.0625q0.53125 0.4375 1.25 0.6875q0.71875 0.25 1.59375 0.25q0.53125 0 0.984375 -0.09375q0.453125 -0.09375 0.84375 -0.28125q0.375 -0.15625 0.6875 -0.390625q0.3125 -0.234375 0.546875 -0.484375q0.0625 0.296875 0.125 0.578125q0.078125 0.265625 0.1875 0.46875zm-2.765625 -2.03125q-0.40625 0 -0.71875 -0.09375q-0.296875 -0.109375 -0.515625 -0.265625q-0.203125 -0.1875 -0.3125 -0.4375q-0.109375 -0.25 -0.109375 -0.5625q0 -0.375 0.140625 -0.703125q0.15625 -0.328125 0.453125 -0.578125q0.296875 -0.21875 0.78125 -0.34375q0.484375 -0.140625 1.15625 -0.140625l1.484375 0l0 1.9375q-0.125 0.21875 -0.34375 0.4375q-0.21875 0.203125 -0.53125 0.375q-0.296875 0.171875 -0.671875 0.28125q-0.375 0.09375 -0.8125 0.09375zm18.67395 -3.484375l0 -0.21875q0 -1.03125 -0.1875 -1.921875q-0.1875 -0.890625 -0.5625 -1.609375q-0.234375 -0.453125 -0.546875 -0.828125q-0.3125 -0.390625 -0.6875 -0.65625q-0.484375 -0.34375 -1.09375 -0.53125q-0.609375 -0.1875 -1.34375 -0.1875q-0.53125 0 -0.984375 0.109375q-0.453125 0.109375 -0.828125 0.328125q-0.28125 0.140625 -0.515625 0.34375q-0.234375 0.203125 -0.453125 0.4375l0 -5.75l-2.890625 0l0 16.0l2.609375 0l0.125 -1.203125q0.1875 0.234375 0.375 0.4375q0.203125 0.1875 0.4375 0.34375q0.421875 0.3125 0.953125 0.46875q0.546875 0.15625 1.203125 0.15625q0.71875 0 1.3125 -0.1875q0.59375 -0.171875 1.078125 -0.515625q0.53125 -0.359375 0.921875 -0.90625q0.390625 -0.5625 0.625 -1.234375q0.21875 -0.625 0.328125 -1.34375q0.125 -0.71875 0.125 -1.53125zm-2.890625 -0.21875l0 0.21875q0 0.4375 -0.046875 0.84375q-0.03125 0.40625 -0.109375 0.75q-0.109375 0.46875 -0.3125 0.84375q-0.203125 0.359375 -0.53125 0.59375q-0.21875 0.15625 -0.53125 0.25q-0.3125 0.09375 -0.703125 0.09375q-0.453125 0 -0.796875 -0.09375q-0.34375 -0.109375 -0.609375 -0.3125q-0.21875 -0.15625 -0.390625 -0.359375q-0.15625 -0.21875 -0.28125 -0.484375l0 -4.484375q0.09375 -0.203125 0.203125 -0.375q0.125 -0.171875 0.265625 -0.296875q0.28125 -0.28125 0.671875 -0.421875q0.390625 -0.15625 0.921875 -0.15625q0.375 0 0.671875 0.09375q0.3125 0.078125 0.546875 0.265625q0.375 0.28125 0.546875 0.625q0.1875 0.328125 0.296875 0.75q0.09375 0.375 0.140625 0.796875q0.046875 0.40625 0.046875 0.859375zm11.002075 5.9375q1.640625 0 2.828125 -0.625q1.203125 -0.640625 1.75 -1.421875l-1.4375 -1.5625q-0.5 0.640625 -1.3125 0.96875q-0.796875 0.328125 -1.65625 0.328125q-0.59375 0 -1.109375 -0.1875q-0.515625 -0.1875 -0.90625 -0.53125q-0.390625 -0.34375 -0.625 -0.75q-0.21875 -0.40625 -0.359375 -1.09375l0 -0.03125l7.640625 0l0 -1.21875q0 -1.25 -0.34375 -2.265625q-0.34375 -1.03125 -1.0 -1.765625q-0.671875 -0.71875 -1.625 -1.109375q-0.953125 -0.40625 -2.171875 -0.40625q-1.171875 0 -2.171875 0.421875q-1.0 0.421875 -1.734375 1.1875q-0.71875 0.78125 -1.125 1.84375q-0.40625 1.0625 -0.40625 2.359375l0 0.421875q0 1.125 0.40625 2.125q0.40625 1.0 1.171875 1.71875q0.765625 0.75 1.828125 1.171875q1.0625 0.421875 2.359375 0.421875zm-0.34375 -9.34375q0.546875 0 0.96875 0.171875q0.421875 0.171875 0.71875 0.46875q0.296875 0.296875 0.453125 0.703125q0.171875 0.40625 0.171875 0.875l0 0.21875l-4.75 0q0.109375 -0.546875 0.3125 -0.984375q0.203125 -0.453125 0.515625 -0.78125q0.3125 -0.328125 0.71875 -0.5q0.40625 -0.171875 0.890625 -0.171875zm8.283325 -6.859375l0 2.375l3.375 0l0 11.265625l-3.375 0l0 2.359375l9.515625 0l0 -2.359375l-3.21875 0l0 -13.640625l-6.296875 0z" fill-rule="nonzero"/><path fill="#000000" fill-opacity="0.0" d="m1558.8215 825.9344c0 6.6882935 -5.421997 12.1102295 -12.1102295 12.1102295l-1.1968994 0c-6.6882324 0 -12.1102295 5.421936 -12.1102295 12.1102295l0 0c0 -6.6882935 -5.421875 -12.1102295 -12.1102295 -12.1102295l-1.1967773 0l0 0c-6.6883545 0 -12.110352 -5.421936 -12.110352 -12.1102295z" fill-rule="evenodd"/><path fill="#000000" fill-opacity="0.0" d="m1558.8215 825.9344c0 6.6882935 -5.421997 12.1102295 -12.1102295 12.1102295l-1.1968994 0c-6.6882324 0 -12.1102295 5.421936 -12.1102295 12.1102295l0 0c0 -6.6882935 -5.421875 -12.1102295 -12.1102295 -12.1102295l-1.1967773 0l0 0c-6.6883545 0 -12.110352 -5.421936 -12.110352 -12.1102295" fill-rule="evenodd"/><path stroke="#595959" stroke-width="1.0" stroke-linejoin="round" stroke-linecap="butt" d="m1558.8215 825.9344c0 6.6882935 -5.421997 12.1102295 -12.1102295 12.1102295l-1.1968994 0c-6.6882324 0 -12.1102295 5.421936 -12.1102295 12.1102295l0 0c0 -6.6882935 -5.421875 -12.1102295 -12.1102295 -12.1102295l-1.1967773 0l0 0c-6.6883545 0 -12.110352 -5.421936 -12.110352 -12.1102295" fill-rule="evenodd"/></g></svg>