<?xml version="1.0" encoding="UTF-8" standalone="no"?>
<!DOCTYPE svg PUBLIC "-//W3C//DTD SVG 1.1//EN"
 "http://www.w3.org/Graphics/SVG/1.1/DTD/svg11.dtd">
<!-- Generated by graphviz version 6.0.2 (20221011.1828)
 -->
<!-- Pages: 1 -->
<svg width="674pt" height="250pt"
 viewBox="0.00 0.00 674.00 250.00" xmlns="http://www.w3.org/2000/svg" xmlns:xlink="http://www.w3.org/1999/xlink">
<g id="graph0" class="graph" transform="scale(1 1) rotate(0) translate(4 246)">
<polygon fill="white" stroke="none" points="-4,4 -4,-246 670,-246 670,4 -4,4"/>
<!-- M000 -->
<g id="node1" class="node">
<title>M000</title>
<polygon fill="none" stroke="black" points="0,-130.5 0,-176.5 198,-176.5 198,-130.5 0,-130.5"/>
<text text-anchor="middle" x="33" y="-161.3" font-family="Courier,monospace" font-size="14.00">Module</text>
<polyline fill="none" stroke="black" points="0,-153.5 66,-153.5"/>
<text text-anchor="middle" x="33" y="-138.3" font-family="Courier,monospace" font-size="14.00">linear</text>
<polyline fill="none" stroke="black" points="66,-130.5 66,-176.5"/>
<text text-anchor="middle" x="99" y="-161.3" font-family="Courier,monospace" font-size="14.00">Clause</text>
<polyline fill="none" stroke="black" points="66,-153.5 132,-153.5"/>
<text text-anchor="middle" x="99" y="-138.3" font-family="Courier,monospace" font-size="14.00">32</text>
<polyline fill="none" stroke="black" points="132,-130.5 132,-176.5"/>
<text text-anchor="middle" x="165" y="-161.3" font-family="Courier,monospace" font-size="14.00">Automa</text>
<polyline fill="none" stroke="black" points="132,-153.5 198,-153.5"/>
<text text-anchor="middle" x="165" y="-138.3" font-family="Courier,monospace" font-size="14.00">4096</text>
</g>
<!-- M002 -->
<g id="node2" class="node">
<title>M002</title>
<polygon fill="none" stroke="black" points="234,-65.5 234,-111.5 432,-111.5 432,-65.5 234,-65.5"/>
<text text-anchor="middle" x="267" y="-96.3" font-family="Courier,monospace" font-size="14.00">Module</text>
<polyline fill="none" stroke="black" points="234,-88.5 300,-88.5"/>
<text text-anchor="middle" x="267" y="-73.3" font-family="Courier,monospace" font-size="14.00">linear</text>
<polyline fill="none" stroke="black" points="300,-65.5 300,-111.5"/>
<text text-anchor="middle" x="333" y="-96.3" font-family="Courier,monospace" font-size="14.00">Clause</text>
<polyline fill="none" stroke="black" points="300,-88.5 366,-88.5"/>
<text text-anchor="middle" x="333" y="-73.3" font-family="Courier,monospace" font-size="14.00">10</text>
<polyline fill="none" stroke="black" points="366,-65.5 366,-111.5"/>
<text text-anchor="middle" x="399" y="-96.3" font-family="Courier,monospace" font-size="14.00">Automa</text>
<polyline fill="none" stroke="black" points="366,-88.5 432,-88.5"/>
<text text-anchor="middle" x="399" y="-73.3" font-family="Courier,monospace" font-size="14.00">640</text>
</g>
<!-- M000&#45;&gt;M002 -->
<g id="edge1" class="edge">
<title>M000&#45;&gt;M002</title>
<path fill="none" stroke="black" d="M182.12,-130.49C200.77,-125.27 220.7,-119.68 239.74,-114.35"/>
<polygon fill="black" stroke="black" points="240.91,-117.65 249.6,-111.59 239.02,-110.91 240.91,-117.65"/>
</g>
<!-- M003 -->
<g id="node3" class="node">
<title>M003</title>
<polygon fill="none" stroke="black" points="234,-0.5 234,-46.5 432,-46.5 432,-0.5 234,-0.5"/>
<text text-anchor="middle" x="267" y="-31.3" font-family="Courier,monospace" font-size="14.00">Module</text>
<polyline fill="none" stroke="black" points="234,-23.5 300,-23.5"/>
<text text-anchor="middle" x="267" y="-8.3" font-family="Courier,monospace" font-size="14.00">linear</text>
<polyline fill="none" stroke="black" points="300,-0.5 300,-46.5"/>
<text text-anchor="middle" x="333" y="-31.3" font-family="Courier,monospace" font-size="14.00">Clause</text>
<polyline fill="none" stroke="black" points="300,-23.5 366,-23.5"/>
<text text-anchor="middle" x="333" y="-8.3" font-family="Courier,monospace" font-size="14.00">10</text>
<polyline fill="none" stroke="black" points="366,-0.5 366,-46.5"/>
<text text-anchor="middle" x="399" y="-31.3" font-family="Courier,monospace" font-size="14.00">Automa</text>
<polyline fill="none" stroke="black" points="366,-23.5 432,-23.5"/>
<text text-anchor="middle" x="399" y="-8.3" font-family="Courier,monospace" font-size="14.00">640</text>
</g>
<!-- M000&#45;&gt;M003 -->
<g id="edge2" class="edge">
<title>M000&#45;&gt;M003</title>
<path fill="none" stroke="black" d="M185.1,-130.47C189.66,-127.79 194.01,-124.82 198,-121.5 223.69,-100.14 208.31,-76.86 234,-55.5 235.37,-54.36 236.79,-53.26 238.24,-52.2"/>
<polygon fill="black" stroke="black" points="240.45,-54.93 246.9,-46.53 236.62,-49.07 240.45,-54.93"/>
</g>
<!-- M004 -->
<g id="node4" class="node">
<title>M004</title>
<polygon fill="none" stroke="black" points="234,-195.5 234,-241.5 432,-241.5 432,-195.5 234,-195.5"/>
<text text-anchor="middle" x="267" y="-226.3" font-family="Courier,monospace" font-size="14.00">Module</text>
<polyline fill="none" stroke="black" points="234,-218.5 300,-218.5"/>
<text text-anchor="middle" x="267" y="-203.3" font-family="Courier,monospace" font-size="14.00">linear</text>
<polyline fill="none" stroke="black" points="300,-195.5 300,-241.5"/>
<text text-anchor="middle" x="333" y="-226.3" font-family="Courier,monospace" font-size="14.00">Clause</text>
<polyline fill="none" stroke="black" points="300,-218.5 366,-218.5"/>
<text text-anchor="middle" x="333" y="-203.3" font-family="Courier,monospace" font-size="14.00">10</text>
<polyline fill="none" stroke="black" points="366,-195.5 366,-241.5"/>
<text text-anchor="middle" x="399" y="-226.3" font-family="Courier,monospace" font-size="14.00">Automa</text>
<polyline fill="none" stroke="black" points="366,-218.5 432,-218.5"/>
<text text-anchor="middle" x="399" y="-203.3" font-family="Courier,monospace" font-size="14.00">640</text>
</g>
<!-- M000&#45;&gt;M004 -->
<g id="edge3" class="edge">
<title>M000&#45;&gt;M004</title>
<path fill="none" stroke="black" d="M182.12,-176.51C200.77,-181.73 220.7,-187.32 239.74,-192.65"/>
<polygon fill="black" stroke="black" points="239.02,-196.09 249.6,-195.41 240.91,-189.35 239.02,-196.09"/>
</g>
<!-- M005 -->
<g id="node5" class="node">
<title>M005</title>
<polygon fill="none" stroke="black" points="234,-130.5 234,-176.5 432,-176.5 432,-130.5 234,-130.5"/>
<text text-anchor="middle" x="267" y="-161.3" font-family="Courier,monospace" font-size="14.00">Module</text>
<polyline fill="none" stroke="black" points="234,-153.5 300,-153.5"/>
<text text-anchor="middle" x="267" y="-138.3" font-family="Courier,monospace" font-size="14.00">linear</text>
<polyline fill="none" stroke="black" points="300,-130.5 300,-176.5"/>
<text text-anchor="middle" x="333" y="-161.3" font-family="Courier,monospace" font-size="14.00">Clause</text>
<polyline fill="none" stroke="black" points="300,-153.5 366,-153.5"/>
<text text-anchor="middle" x="333" y="-138.3" font-family="Courier,monospace" font-size="14.00">10</text>
<polyline fill="none" stroke="black" points="366,-130.5 366,-176.5"/>
<text text-anchor="middle" x="399" y="-161.3" font-family="Courier,monospace" font-size="14.00">Automa</text>
<polyline fill="none" stroke="black" points="366,-153.5 432,-153.5"/>
<text text-anchor="middle" x="399" y="-138.3" font-family="Courier,monospace" font-size="14.00">640</text>
</g>
<!-- M000&#45;&gt;M005 -->
<g id="edge4" class="edge">
<title>M000&#45;&gt;M005</title>
<path fill="none" stroke="black" d="M198.05,-153.5C206.59,-153.5 215.25,-153.5 223.86,-153.5"/>
<polygon fill="black" stroke="black" points="223.93,-157 233.93,-153.5 223.93,-150 223.93,-157"/>
</g>
<!-- M006 -->
<g id="node7" class="node">
<title>M006</title>
<polygon fill="none" stroke="black" points="468,-97.5 468,-143.5 666,-143.5 666,-97.5 468,-97.5"/>
<text text-anchor="middle" x="501" y="-128.3" font-family="Courier,monospace" font-size="14.00">Module</text>
<polyline fill="none" stroke="black" points="468,-120.5 534,-120.5"/>
<text text-anchor="middle" x="501" y="-105.3" font-family="Courier,monospace" font-size="14.00">linear</text>
<polyline fill="none" stroke="black" points="534,-97.5 534,-143.5"/>
<text text-anchor="middle" x="567" y="-128.3" font-family="Courier,monospace" font-size="14.00">Clause</text>
<polyline fill="none" stroke="black" points="534,-120.5 600,-120.5"/>
<text text-anchor="middle" x="567" y="-105.3" font-family="Courier,monospace" font-size="14.00">64</text>
<polyline fill="none" stroke="black" points="600,-97.5 600,-143.5"/>
<text text-anchor="middle" x="633" y="-128.3" font-family="Courier,monospace" font-size="14.00">Automa</text>
<polyline fill="none" stroke="black" points="600,-120.5 666,-120.5"/>
<text text-anchor="middle" x="633" y="-105.3" font-family="Courier,monospace" font-size="14.00">1280</text>
</g>
<!-- M002&#45;&gt;M006 -->
<g id="edge9" class="edge">
<title>M002&#45;&gt;M006</title>
<path fill="none" stroke="black" d="M432.05,-102.02C440.59,-103.2 449.25,-104.4 457.86,-105.58"/>
<polygon fill="black" stroke="black" points="457.54,-109.07 467.93,-106.97 458.5,-102.14 457.54,-109.07"/>
</g>
<!-- M003&#45;&gt;M006 -->
<g id="edge10" class="edge">
<title>M003&#45;&gt;M006</title>
<path fill="none" stroke="black" d="M408.23,-46.55C416.31,-49.41 424.37,-52.42 432,-55.5 459.32,-66.53 488.87,-80.61 513.25,-92.85"/>
<polygon fill="black" stroke="black" points="511.82,-96.05 522.32,-97.44 514.98,-89.81 511.82,-96.05"/>
</g>
<!-- M004&#45;&gt;M006 -->
<g id="edge11" class="edge">
<title>M004&#45;&gt;M006</title>
<path fill="none" stroke="black" d="M408.25,-195.5C416.33,-192.63 424.37,-189.6 432,-186.5 459.58,-175.27 489.38,-160.84 513.86,-148.33"/>
<polygon fill="black" stroke="black" points="515.67,-151.33 522.96,-143.64 512.47,-145.11 515.67,-151.33"/>
</g>
<!-- M005&#45;&gt;M006 -->
<g id="edge12" class="edge">
<title>M005&#45;&gt;M006</title>
<path fill="none" stroke="black" d="M432.05,-139.55C440.59,-138.34 449.25,-137.11 457.86,-135.88"/>
<polygon fill="black" stroke="black" points="458.52,-139.32 467.93,-134.45 457.53,-132.39 458.52,-139.32"/>
</g>
<!-- M001 -->
<g id="node6" class="node">
<title>M001</title>
<polygon fill="none" stroke="black" points="0,-65.5 0,-111.5 198,-111.5 198,-65.5 0,-65.5"/>
<text text-anchor="middle" x="33" y="-96.3" font-family="Courier,monospace" font-size="14.00">Module</text>
<polyline fill="none" stroke="black" points="0,-88.5 66,-88.5"/>
<text text-anchor="middle" x="33" y="-73.3" font-family="Courier,monospace" font-size="14.00">linear</text>
<polyline fill="none" stroke="black" points="66,-65.5 66,-111.5"/>
<text text-anchor="middle" x="99" y="-96.3" font-family="Courier,monospace" font-size="14.00">Clause</text>
<polyline fill="none" stroke="black" points="66,-88.5 132,-88.5"/>
<text text-anchor="middle" x="99" y="-73.3" font-family="Courier,monospace" font-size="14.00">32</text>
<polyline fill="none" stroke="black" points="132,-65.5 132,-111.5"/>
<text text-anchor="middle" x="165" y="-96.3" font-family="Courier,monospace" font-size="14.00">Automa</text>
<polyline fill="none" stroke="black" points="132,-88.5 198,-88.5"/>
<text text-anchor="middle" x="165" y="-73.3" font-family="Courier,monospace" font-size="14.00">4096</text>
</g>
<!-- M001&#45;&gt;M002 -->
<g id="edge5" class="edge">
<title>M001&#45;&gt;M002</title>
<path fill="none" stroke="black" d="M198.05,-88.5C206.59,-88.5 215.25,-88.5 223.86,-88.5"/>
<polygon fill="black" stroke="black" points="223.93,-92 233.93,-88.5 223.93,-85 223.93,-92"/>
</g>
<!-- M001&#45;&gt;M003 -->
<g id="edge6" class="edge">
<title>M001&#45;&gt;M003</title>
<path fill="none" stroke="black" d="M182.12,-65.49C200.77,-60.27 220.7,-54.68 239.74,-49.35"/>
<polygon fill="black" stroke="black" points="240.91,-52.65 249.6,-46.59 239.02,-45.91 240.91,-52.65"/>
</g>
<!-- M001&#45;&gt;M004 -->
<g id="edge7" class="edge">
<title>M001&#45;&gt;M004</title>
<path fill="none" stroke="black" d="M183.65,-111.63C188.75,-114.55 193.59,-117.82 198,-121.5 223.37,-142.65 208.54,-165.47 234,-186.5 235.38,-187.64 236.79,-188.73 238.25,-189.79"/>
<polygon fill="black" stroke="black" points="236.64,-192.92 246.93,-195.44 240.45,-187.05 236.64,-192.92"/>
</g>
<!-- M001&#45;&gt;M005 -->
<g id="edge8" class="edge">
<title>M001&#45;&gt;M005</title>
<path fill="none" stroke="black" d="M182.12,-111.51C200.77,-116.73 220.7,-122.32 239.74,-127.65"/>
<polygon fill="black" stroke="black" points="239.02,-131.09 249.6,-130.41 240.91,-124.35 239.02,-131.09"/>
</g>
</g>
</svg>
