<?xml version="1.0" encoding="UTF-8" standalone="no"?>
<!DOCTYPE svg PUBLIC "-//W3C//DTD SVG 1.1//EN"
 "http://www.w3.org/Graphics/SVG/1.1/DTD/svg11.dtd">
<!-- Generated by graphviz version 6.0.2 (20221011.1828)
 -->
<!-- Pages: 1 -->
<svg width="848pt" height="536pt"
 viewBox="0.00 0.00 848.00 536.00" xmlns="http://www.w3.org/2000/svg" xmlns:xlink="http://www.w3.org/1999/xlink">
<g id="graph0" class="graph" transform="scale(1 1) rotate(0) translate(4 532)">
<polygon fill="white" stroke="none" points="-4,4 -4,-532 844,-532 844,4 -4,4"/>
<g id="clust1" class="cluster">
<title>cluster000</title>
<polygon fill="none" stroke="black" stroke-dasharray="5,2" points="8,-8 8,-520 392,-520 392,-8 8,-8"/>
</g>
<g id="clust2" class="cluster">
<title>cluster001</title>
<polygon fill="none" stroke="black" stroke-dasharray="5,2" points="448,-292 448,-520 832,-520 832,-292 448,-292"/>
</g>
<g id="clust3" class="cluster">
<title>cluster002</title>
<polygon fill="none" stroke="black" stroke-dasharray="5,2" points="448,-8 448,-236 832,-236 832,-8 448,-8"/>
</g>
<!-- L000M000 -->
<g id="node1" class="node">
<title>L000M000</title>
<polygon fill="none" stroke="black" points="16,-300.5 16,-369.5 164,-369.5 164,-300.5 16,-300.5"/>
<text text-anchor="middle" x="90" y="-354.3" font-family="Courier,monospace" font-size="14.00">linear</text>
<polyline fill="none" stroke="black" points="16,-346.5 164,-346.5"/>
<text text-anchor="middle" x="36.5" y="-331.3" font-family="Courier,monospace" font-size="14.00">Inp</text>
<polyline fill="none" stroke="black" points="16,-323.5 57,-323.5"/>
<text text-anchor="middle" x="36.5" y="-308.3" font-family="Courier,monospace" font-size="14.00">512</text>
<polyline fill="none" stroke="black" points="57,-300.5 57,-346.5"/>
<text text-anchor="middle" x="90" y="-331.3" font-family="Courier,monospace" font-size="14.00">States</text>
<polyline fill="none" stroke="black" points="57,-323.5 123,-323.5"/>
<text text-anchor="middle" x="90" y="-308.3" font-family="Courier,monospace" font-size="14.00">32768</text>
<polyline fill="none" stroke="black" points="123,-300.5 123,-346.5"/>
<text text-anchor="middle" x="143.5" y="-331.3" font-family="Courier,monospace" font-size="14.00">Out</text>
<polyline fill="none" stroke="black" points="123,-323.5 164,-323.5"/>
<text text-anchor="middle" x="143.5" y="-308.3" font-family="Courier,monospace" font-size="14.00">32</text>
</g>
<!-- L000M002 -->
<g id="node2" class="node">
<title>L000M002</title>
<polygon fill="none" stroke="black" points="236,-16.5 236,-85.5 384,-85.5 384,-16.5 236,-16.5"/>
<text text-anchor="middle" x="310" y="-70.3" font-family="Courier,monospace" font-size="14.00">linear</text>
<polyline fill="none" stroke="black" points="236,-62.5 384,-62.5"/>
<text text-anchor="middle" x="256.5" y="-47.3" font-family="Courier,monospace" font-size="14.00">Inp</text>
<polyline fill="none" stroke="black" points="236,-39.5 277,-39.5"/>
<text text-anchor="middle" x="256.5" y="-24.3" font-family="Courier,monospace" font-size="14.00">64</text>
<polyline fill="none" stroke="black" points="277,-16.5 277,-62.5"/>
<text text-anchor="middle" x="310" y="-47.3" font-family="Courier,monospace" font-size="14.00">States</text>
<polyline fill="none" stroke="black" points="277,-39.5 343,-39.5"/>
<text text-anchor="middle" x="310" y="-24.3" font-family="Courier,monospace" font-size="14.00">2048</text>
<polyline fill="none" stroke="black" points="343,-16.5 343,-62.5"/>
<text text-anchor="middle" x="363.5" y="-47.3" font-family="Courier,monospace" font-size="14.00">Out</text>
<polyline fill="none" stroke="black" points="343,-39.5 384,-39.5"/>
<text text-anchor="middle" x="363.5" y="-24.3" font-family="Courier,monospace" font-size="14.00">16</text>
</g>
<!-- L000M000&#45;&gt;L000M002 -->
<!-- L000M003 -->
<g id="node3" class="node">
<title>L000M003</title>
<polygon fill="none" stroke="black" points="236,-158.5 236,-227.5 384,-227.5 384,-158.5 236,-158.5"/>
<text text-anchor="middle" x="310" y="-212.3" font-family="Courier,monospace" font-size="14.00">linear</text>
<polyline fill="none" stroke="black" points="236,-204.5 384,-204.5"/>
<text text-anchor="middle" x="256.5" y="-189.3" font-family="Courier,monospace" font-size="14.00">Inp</text>
<polyline fill="none" stroke="black" points="236,-181.5 277,-181.5"/>
<text text-anchor="middle" x="256.5" y="-166.3" font-family="Courier,monospace" font-size="14.00">64</text>
<polyline fill="none" stroke="black" points="277,-158.5 277,-204.5"/>
<text text-anchor="middle" x="310" y="-189.3" font-family="Courier,monospace" font-size="14.00">States</text>
<polyline fill="none" stroke="black" points="277,-181.5 343,-181.5"/>
<text text-anchor="middle" x="310" y="-166.3" font-family="Courier,monospace" font-size="14.00">2048</text>
<polyline fill="none" stroke="black" points="343,-158.5 343,-204.5"/>
<text text-anchor="middle" x="363.5" y="-189.3" font-family="Courier,monospace" font-size="14.00">Out</text>
<polyline fill="none" stroke="black" points="343,-181.5 384,-181.5"/>
<text text-anchor="middle" x="363.5" y="-166.3" font-family="Courier,monospace" font-size="14.00">16</text>
</g>
<!-- L000M000&#45;&gt;L000M003 -->
<!-- L000M004 -->
<g id="node4" class="node">
<title>L000M004</title>
<polygon fill="none" stroke="black" points="236,-300.5 236,-369.5 384,-369.5 384,-300.5 236,-300.5"/>
<text text-anchor="middle" x="310" y="-354.3" font-family="Courier,monospace" font-size="14.00">linear</text>
<polyline fill="none" stroke="black" points="236,-346.5 384,-346.5"/>
<text text-anchor="middle" x="256.5" y="-331.3" font-family="Courier,monospace" font-size="14.00">Inp</text>
<polyline fill="none" stroke="black" points="236,-323.5 277,-323.5"/>
<text text-anchor="middle" x="256.5" y="-308.3" font-family="Courier,monospace" font-size="14.00">64</text>
<polyline fill="none" stroke="black" points="277,-300.5 277,-346.5"/>
<text text-anchor="middle" x="310" y="-331.3" font-family="Courier,monospace" font-size="14.00">States</text>
<polyline fill="none" stroke="black" points="277,-323.5 343,-323.5"/>
<text text-anchor="middle" x="310" y="-308.3" font-family="Courier,monospace" font-size="14.00">2048</text>
<polyline fill="none" stroke="black" points="343,-300.5 343,-346.5"/>
<text text-anchor="middle" x="363.5" y="-331.3" font-family="Courier,monospace" font-size="14.00">Out</text>
<polyline fill="none" stroke="black" points="343,-323.5 384,-323.5"/>
<text text-anchor="middle" x="363.5" y="-308.3" font-family="Courier,monospace" font-size="14.00">16</text>
</g>
<!-- L000M000&#45;&gt;L000M004 -->
<!-- L000M005 -->
<g id="node5" class="node">
<title>L000M005</title>
<polygon fill="none" stroke="black" points="236,-442.5 236,-511.5 384,-511.5 384,-442.5 236,-442.5"/>
<text text-anchor="middle" x="310" y="-496.3" font-family="Courier,monospace" font-size="14.00">linear</text>
<polyline fill="none" stroke="black" points="236,-488.5 384,-488.5"/>
<text text-anchor="middle" x="256.5" y="-473.3" font-family="Courier,monospace" font-size="14.00">Inp</text>
<polyline fill="none" stroke="black" points="236,-465.5 277,-465.5"/>
<text text-anchor="middle" x="256.5" y="-450.3" font-family="Courier,monospace" font-size="14.00">64</text>
<polyline fill="none" stroke="black" points="277,-442.5 277,-488.5"/>
<text text-anchor="middle" x="310" y="-473.3" font-family="Courier,monospace" font-size="14.00">States</text>
<polyline fill="none" stroke="black" points="277,-465.5 343,-465.5"/>
<text text-anchor="middle" x="310" y="-450.3" font-family="Courier,monospace" font-size="14.00">2048</text>
<polyline fill="none" stroke="black" points="343,-442.5 343,-488.5"/>
<text text-anchor="middle" x="363.5" y="-473.3" font-family="Courier,monospace" font-size="14.00">Out</text>
<polyline fill="none" stroke="black" points="343,-465.5 384,-465.5"/>
<text text-anchor="middle" x="363.5" y="-450.3" font-family="Courier,monospace" font-size="14.00">16</text>
</g>
<!-- L000M000&#45;&gt;L000M005 -->
<!-- L001M000 -->
<g id="node7" class="node">
<title>L001M000</title>
<polygon fill="none" stroke="black" points="456,-442.5 456,-511.5 604,-511.5 604,-442.5 456,-442.5"/>
<text text-anchor="middle" x="530" y="-496.3" font-family="Courier,monospace" font-size="14.00">linear</text>
<polyline fill="none" stroke="black" points="456,-488.5 604,-488.5"/>
<text text-anchor="middle" x="476.5" y="-473.3" font-family="Courier,monospace" font-size="14.00">Inp</text>
<polyline fill="none" stroke="black" points="456,-465.5 497,-465.5"/>
<text text-anchor="middle" x="476.5" y="-450.3" font-family="Courier,monospace" font-size="14.00">64</text>
<polyline fill="none" stroke="black" points="497,-442.5 497,-488.5"/>
<text text-anchor="middle" x="530" y="-473.3" font-family="Courier,monospace" font-size="14.00">States</text>
<polyline fill="none" stroke="black" points="497,-465.5 563,-465.5"/>
<text text-anchor="middle" x="530" y="-450.3" font-family="Courier,monospace" font-size="14.00">2048</text>
<polyline fill="none" stroke="black" points="563,-442.5 563,-488.5"/>
<text text-anchor="middle" x="583.5" y="-473.3" font-family="Courier,monospace" font-size="14.00">Out</text>
<polyline fill="none" stroke="black" points="563,-465.5 604,-465.5"/>
<text text-anchor="middle" x="583.5" y="-450.3" font-family="Courier,monospace" font-size="14.00">16</text>
</g>
<!-- L000M002&#45;&gt;L001M000 -->
<!-- L001M001 -->
<g id="node8" class="node">
<title>L001M001</title>
<polygon fill="none" stroke="black" points="456,-300.5 456,-369.5 604,-369.5 604,-300.5 456,-300.5"/>
<text text-anchor="middle" x="530" y="-354.3" font-family="Courier,monospace" font-size="14.00">linear</text>
<polyline fill="none" stroke="black" points="456,-346.5 604,-346.5"/>
<text text-anchor="middle" x="476.5" y="-331.3" font-family="Courier,monospace" font-size="14.00">Inp</text>
<polyline fill="none" stroke="black" points="456,-323.5 497,-323.5"/>
<text text-anchor="middle" x="476.5" y="-308.3" font-family="Courier,monospace" font-size="14.00">64</text>
<polyline fill="none" stroke="black" points="497,-300.5 497,-346.5"/>
<text text-anchor="middle" x="530" y="-331.3" font-family="Courier,monospace" font-size="14.00">States</text>
<polyline fill="none" stroke="black" points="497,-323.5 563,-323.5"/>
<text text-anchor="middle" x="530" y="-308.3" font-family="Courier,monospace" font-size="14.00">2048</text>
<polyline fill="none" stroke="black" points="563,-300.5 563,-346.5"/>
<text text-anchor="middle" x="583.5" y="-331.3" font-family="Courier,monospace" font-size="14.00">Out</text>
<polyline fill="none" stroke="black" points="563,-323.5 604,-323.5"/>
<text text-anchor="middle" x="583.5" y="-308.3" font-family="Courier,monospace" font-size="14.00">16</text>
</g>
<!-- L000M002&#45;&gt;L001M001 -->
<!-- L002M000 -->
<g id="node9" class="node">
<title>L002M000</title>
<polygon fill="none" stroke="black" points="456,-158.5 456,-227.5 604,-227.5 604,-158.5 456,-158.5"/>
<text text-anchor="middle" x="530" y="-212.3" font-family="Courier,monospace" font-size="14.00">linear</text>
<polyline fill="none" stroke="black" points="456,-204.5 604,-204.5"/>
<text text-anchor="middle" x="476.5" y="-189.3" font-family="Courier,monospace" font-size="14.00">Inp</text>
<polyline fill="none" stroke="black" points="456,-181.5 497,-181.5"/>
<text text-anchor="middle" x="476.5" y="-166.3" font-family="Courier,monospace" font-size="14.00">64</text>
<polyline fill="none" stroke="black" points="497,-158.5 497,-204.5"/>
<text text-anchor="middle" x="530" y="-189.3" font-family="Courier,monospace" font-size="14.00">States</text>
<polyline fill="none" stroke="black" points="497,-181.5 563,-181.5"/>
<text text-anchor="middle" x="530" y="-166.3" font-family="Courier,monospace" font-size="14.00">2048</text>
<polyline fill="none" stroke="black" points="563,-158.5 563,-204.5"/>
<text text-anchor="middle" x="583.5" y="-189.3" font-family="Courier,monospace" font-size="14.00">Out</text>
<polyline fill="none" stroke="black" points="563,-181.5 604,-181.5"/>
<text text-anchor="middle" x="583.5" y="-166.3" font-family="Courier,monospace" font-size="14.00">16</text>
</g>
<!-- L000M002&#45;&gt;L002M000 -->
<!-- L002M001 -->
<g id="node10" class="node">
<title>L002M001</title>
<polygon fill="none" stroke="black" points="456,-16.5 456,-85.5 604,-85.5 604,-16.5 456,-16.5"/>
<text text-anchor="middle" x="530" y="-70.3" font-family="Courier,monospace" font-size="14.00">linear</text>
<polyline fill="none" stroke="black" points="456,-62.5 604,-62.5"/>
<text text-anchor="middle" x="476.5" y="-47.3" font-family="Courier,monospace" font-size="14.00">Inp</text>
<polyline fill="none" stroke="black" points="456,-39.5 497,-39.5"/>
<text text-anchor="middle" x="476.5" y="-24.3" font-family="Courier,monospace" font-size="14.00">64</text>
<polyline fill="none" stroke="black" points="497,-16.5 497,-62.5"/>
<text text-anchor="middle" x="530" y="-47.3" font-family="Courier,monospace" font-size="14.00">States</text>
<polyline fill="none" stroke="black" points="497,-39.5 563,-39.5"/>
<text text-anchor="middle" x="530" y="-24.3" font-family="Courier,monospace" font-size="14.00">2048</text>
<polyline fill="none" stroke="black" points="563,-16.5 563,-62.5"/>
<text text-anchor="middle" x="583.5" y="-47.3" font-family="Courier,monospace" font-size="14.00">Out</text>
<polyline fill="none" stroke="black" points="563,-39.5 604,-39.5"/>
<text text-anchor="middle" x="583.5" y="-24.3" font-family="Courier,monospace" font-size="14.00">16</text>
</g>
<!-- L000M002&#45;&gt;L002M001 -->
<!-- L000M003&#45;&gt;L001M000 -->
<!-- L000M003&#45;&gt;L001M001 -->
<!-- L000M003&#45;&gt;L002M000 -->
<!-- L000M003&#45;&gt;L002M001 -->
<!-- L000M004&#45;&gt;L001M000 -->
<!-- L000M004&#45;&gt;L001M001 -->
<!-- L000M004&#45;&gt;L002M000 -->
<!-- L000M004&#45;&gt;L002M001 -->
<!-- L000M005&#45;&gt;L001M000 -->
<!-- L000M005&#45;&gt;L001M001 -->
<!-- L000M005&#45;&gt;L002M000 -->
<!-- L000M005&#45;&gt;L002M001 -->
<!-- L000M001 -->
<g id="node6" class="node">
<title>L000M001</title>
<polygon fill="none" stroke="black" points="16,-158.5 16,-227.5 164,-227.5 164,-158.5 16,-158.5"/>
<text text-anchor="middle" x="90" y="-212.3" font-family="Courier,monospace" font-size="14.00">linear</text>
<polyline fill="none" stroke="black" points="16,-204.5 164,-204.5"/>
<text text-anchor="middle" x="36.5" y="-189.3" font-family="Courier,monospace" font-size="14.00">Inp</text>
<polyline fill="none" stroke="black" points="16,-181.5 57,-181.5"/>
<text text-anchor="middle" x="36.5" y="-166.3" font-family="Courier,monospace" font-size="14.00">512</text>
<polyline fill="none" stroke="black" points="57,-158.5 57,-204.5"/>
<text text-anchor="middle" x="90" y="-189.3" font-family="Courier,monospace" font-size="14.00">States</text>
<polyline fill="none" stroke="black" points="57,-181.5 123,-181.5"/>
<text text-anchor="middle" x="90" y="-166.3" font-family="Courier,monospace" font-size="14.00">32768</text>
<polyline fill="none" stroke="black" points="123,-158.5 123,-204.5"/>
<text text-anchor="middle" x="143.5" y="-189.3" font-family="Courier,monospace" font-size="14.00">Out</text>
<polyline fill="none" stroke="black" points="123,-181.5 164,-181.5"/>
<text text-anchor="middle" x="143.5" y="-166.3" font-family="Courier,monospace" font-size="14.00">32</text>
</g>
<!-- L000M001&#45;&gt;L000M002 -->
<!-- L000M001&#45;&gt;L000M003 -->
<!-- L000M001&#45;&gt;L000M004 -->
<!-- L000M001&#45;&gt;L000M005 -->
<!-- L001M002 -->
<g id="node11" class="node">
<title>L001M002</title>
<polygon fill="none" stroke="black" points="676,-371.5 676,-440.5 824,-440.5 824,-371.5 676,-371.5"/>
<text text-anchor="middle" x="750" y="-425.3" font-family="Courier,monospace" font-size="14.00">voting</text>
<polyline fill="none" stroke="black" points="676,-417.5 824,-417.5"/>
<text text-anchor="middle" x="696.5" y="-402.3" font-family="Courier,monospace" font-size="14.00">Inp</text>
<polyline fill="none" stroke="black" points="676,-394.5 717,-394.5"/>
<text text-anchor="middle" x="696.5" y="-379.3" font-family="Courier,monospace" font-size="14.00">32</text>
<polyline fill="none" stroke="black" points="717,-371.5 717,-417.5"/>
<text text-anchor="middle" x="750" y="-402.3" font-family="Courier,monospace" font-size="14.00">States</text>
<polyline fill="none" stroke="black" points="717,-394.5 783,-394.5"/>
<text text-anchor="middle" x="750" y="-379.3" font-family="Courier,monospace" font-size="14.00">0</text>
<polyline fill="none" stroke="black" points="783,-371.5 783,-417.5"/>
<text text-anchor="middle" x="803.5" y="-402.3" font-family="Courier,monospace" font-size="14.00">Out</text>
<polyline fill="none" stroke="black" points="783,-394.5 824,-394.5"/>
<text text-anchor="middle" x="803.5" y="-379.3" font-family="Courier,monospace" font-size="14.00">1</text>
</g>
<!-- L001M000&#45;&gt;L001M002 -->
<!-- L001M001&#45;&gt;L001M002 -->
<!-- L002M002 -->
<g id="node12" class="node">
<title>L002M002</title>
<polygon fill="none" stroke="black" points="676,-87.5 676,-156.5 824,-156.5 824,-87.5 676,-87.5"/>
<text text-anchor="middle" x="750" y="-141.3" font-family="Courier,monospace" font-size="14.00">voting</text>
<polyline fill="none" stroke="black" points="676,-133.5 824,-133.5"/>
<text text-anchor="middle" x="696.5" y="-118.3" font-family="Courier,monospace" font-size="14.00">Inp</text>
<polyline fill="none" stroke="black" points="676,-110.5 717,-110.5"/>
<text text-anchor="middle" x="696.5" y="-95.3" font-family="Courier,monospace" font-size="14.00">32</text>
<polyline fill="none" stroke="black" points="717,-87.5 717,-133.5"/>
<text text-anchor="middle" x="750" y="-118.3" font-family="Courier,monospace" font-size="14.00">States</text>
<polyline fill="none" stroke="black" points="717,-110.5 783,-110.5"/>
<text text-anchor="middle" x="750" y="-95.3" font-family="Courier,monospace" font-size="14.00">0</text>
<polyline fill="none" stroke="black" points="783,-87.5 783,-133.5"/>
<text text-anchor="middle" x="803.5" y="-118.3" font-family="Courier,monospace" font-size="14.00">Out</text>
<polyline fill="none" stroke="black" points="783,-110.5 824,-110.5"/>
<text text-anchor="middle" x="803.5" y="-95.3" font-family="Courier,monospace" font-size="14.00">1</text>
</g>
<!-- L002M000&#45;&gt;L002M002 -->
<!-- L002M001&#45;&gt;L002M002 -->
</g>
</svg>
