<?xml version="1.0" encoding="UTF-8" standalone="no"?>
<!DOCTYPE svg PUBLIC "-//W3C//DTD SVG 1.1//EN"
 "http://www.w3.org/Graphics/SVG/1.1/DTD/svg11.dtd">
<!-- Generated by graphviz version 6.0.2 (20221011.1828)
 -->
<!-- Pages: 1 -->
<svg width="524pt" height="342pt"
 viewBox="0.00 0.00 524.00 342.00" xmlns="http://www.w3.org/2000/svg" xmlns:xlink="http://www.w3.org/1999/xlink">
<g id="graph0" class="graph" transform="scale(1 1) rotate(0) translate(4 338)">
<polygon fill="white" stroke="none" points="-4,4 -4,-338 520,-338 520,4 -4,4"/>
<!-- M000 -->
<g id="node1" class="node">
<title>M000</title>
<polygon fill="none" stroke="black" points="0,-176.5 0,-245.5 148,-245.5 148,-176.5 0,-176.5"/>
<text text-anchor="middle" x="74" y="-230.3" font-family="Courier,monospace" font-size="14.00">linear</text>
<polyline fill="none" stroke="black" points="0,-222.5 148,-222.5"/>
<text text-anchor="middle" x="20.5" y="-207.3" font-family="Courier,monospace" font-size="14.00">Inp</text>
<polyline fill="none" stroke="black" points="0,-199.5 41,-199.5"/>
<text text-anchor="middle" x="20.5" y="-184.3" font-family="Courier,monospace" font-size="14.00">512</text>
<polyline fill="none" stroke="black" points="41,-176.5 41,-222.5"/>
<text text-anchor="middle" x="74" y="-207.3" font-family="Courier,monospace" font-size="14.00">States</text>
<polyline fill="none" stroke="black" points="41,-199.5 107,-199.5"/>
<text text-anchor="middle" x="74" y="-184.3" font-family="Courier,monospace" font-size="14.00">32768</text>
<polyline fill="none" stroke="black" points="107,-176.5 107,-222.5"/>
<text text-anchor="middle" x="127.5" y="-207.3" font-family="Courier,monospace" font-size="14.00">Out</text>
<polyline fill="none" stroke="black" points="107,-199.5 148,-199.5"/>
<text text-anchor="middle" x="127.5" y="-184.3" font-family="Courier,monospace" font-size="14.00">32</text>
</g>
<!-- M002 -->
<g id="node2" class="node">
<title>M002</title>
<polygon fill="none" stroke="black" points="184,-88.5 184,-157.5 332,-157.5 332,-88.5 184,-88.5"/>
<text text-anchor="middle" x="258" y="-142.3" font-family="Courier,monospace" font-size="14.00">linear</text>
<polyline fill="none" stroke="black" points="184,-134.5 332,-134.5"/>
<text text-anchor="middle" x="204.5" y="-119.3" font-family="Courier,monospace" font-size="14.00">Inp</text>
<polyline fill="none" stroke="black" points="184,-111.5 225,-111.5"/>
<text text-anchor="middle" x="204.5" y="-96.3" font-family="Courier,monospace" font-size="14.00">64</text>
<polyline fill="none" stroke="black" points="225,-88.5 225,-134.5"/>
<text text-anchor="middle" x="258" y="-119.3" font-family="Courier,monospace" font-size="14.00">States</text>
<polyline fill="none" stroke="black" points="225,-111.5 291,-111.5"/>
<text text-anchor="middle" x="258" y="-96.3" font-family="Courier,monospace" font-size="14.00">2048</text>
<polyline fill="none" stroke="black" points="291,-88.5 291,-134.5"/>
<text text-anchor="middle" x="311.5" y="-119.3" font-family="Courier,monospace" font-size="14.00">Out</text>
<polyline fill="none" stroke="black" points="291,-111.5 332,-111.5"/>
<text text-anchor="middle" x="311.5" y="-96.3" font-family="Courier,monospace" font-size="14.00">16</text>
</g>
<!-- M000&#45;&gt;M002 -->
<g id="edge1" class="edge">
<title>M000&#45;&gt;M002</title>
<path fill="none" stroke="black" d="M146.41,-176.47C156.24,-171.72 166.4,-166.81 176.39,-161.98"/>
<polygon fill="black" stroke="black" points="178.02,-165.08 185.5,-157.57 174.97,-158.77 178.02,-165.08"/>
</g>
<!-- M003 -->
<g id="node3" class="node">
<title>M003</title>
<polygon fill="none" stroke="black" points="184,-0.5 184,-69.5 332,-69.5 332,-0.5 184,-0.5"/>
<text text-anchor="middle" x="258" y="-54.3" font-family="Courier,monospace" font-size="14.00">linear</text>
<polyline fill="none" stroke="black" points="184,-46.5 332,-46.5"/>
<text text-anchor="middle" x="204.5" y="-31.3" font-family="Courier,monospace" font-size="14.00">Inp</text>
<polyline fill="none" stroke="black" points="184,-23.5 225,-23.5"/>
<text text-anchor="middle" x="204.5" y="-8.3" font-family="Courier,monospace" font-size="14.00">64</text>
<polyline fill="none" stroke="black" points="225,-0.5 225,-46.5"/>
<text text-anchor="middle" x="258" y="-31.3" font-family="Courier,monospace" font-size="14.00">States</text>
<polyline fill="none" stroke="black" points="225,-23.5 291,-23.5"/>
<text text-anchor="middle" x="258" y="-8.3" font-family="Courier,monospace" font-size="14.00">2048</text>
<polyline fill="none" stroke="black" points="291,-0.5 291,-46.5"/>
<text text-anchor="middle" x="311.5" y="-31.3" font-family="Courier,monospace" font-size="14.00">Out</text>
<polyline fill="none" stroke="black" points="291,-23.5 332,-23.5"/>
<text text-anchor="middle" x="311.5" y="-8.3" font-family="Courier,monospace" font-size="14.00">16</text>
</g>
<!-- M000&#45;&gt;M003 -->
<g id="edge2" class="edge">
<title>M000&#45;&gt;M003</title>
<path fill="none" stroke="black" d="M138.82,-176.25C142.11,-173.34 145.21,-170.26 148,-167 175.49,-134.91 156.51,-111.09 184,-79 184.61,-78.29 185.24,-77.58 185.87,-76.89"/>
<polygon fill="black" stroke="black" points="188.48,-79.24 193.18,-69.75 183.58,-74.23 188.48,-79.24"/>
</g>
<!-- M004 -->
<g id="node4" class="node">
<title>M004</title>
<polygon fill="none" stroke="black" points="184,-264.5 184,-333.5 332,-333.5 332,-264.5 184,-264.5"/>
<text text-anchor="middle" x="258" y="-318.3" font-family="Courier,monospace" font-size="14.00">linear</text>
<polyline fill="none" stroke="black" points="184,-310.5 332,-310.5"/>
<text text-anchor="middle" x="204.5" y="-295.3" font-family="Courier,monospace" font-size="14.00">Inp</text>
<polyline fill="none" stroke="black" points="184,-287.5 225,-287.5"/>
<text text-anchor="middle" x="204.5" y="-272.3" font-family="Courier,monospace" font-size="14.00">64</text>
<polyline fill="none" stroke="black" points="225,-264.5 225,-310.5"/>
<text text-anchor="middle" x="258" y="-295.3" font-family="Courier,monospace" font-size="14.00">States</text>
<polyline fill="none" stroke="black" points="225,-287.5 291,-287.5"/>
<text text-anchor="middle" x="258" y="-272.3" font-family="Courier,monospace" font-size="14.00">2048</text>
<polyline fill="none" stroke="black" points="291,-264.5 291,-310.5"/>
<text text-anchor="middle" x="311.5" y="-295.3" font-family="Courier,monospace" font-size="14.00">Out</text>
<polyline fill="none" stroke="black" points="291,-287.5 332,-287.5"/>
<text text-anchor="middle" x="311.5" y="-272.3" font-family="Courier,monospace" font-size="14.00">16</text>
</g>
<!-- M000&#45;&gt;M004 -->
<g id="edge3" class="edge">
<title>M000&#45;&gt;M004</title>
<path fill="none" stroke="black" d="M146.41,-245.53C156.24,-250.28 166.4,-255.19 176.39,-260.02"/>
<polygon fill="black" stroke="black" points="174.97,-263.23 185.5,-264.43 178.02,-256.92 174.97,-263.23"/>
</g>
<!-- M005 -->
<g id="node5" class="node">
<title>M005</title>
<polygon fill="none" stroke="black" points="184,-176.5 184,-245.5 332,-245.5 332,-176.5 184,-176.5"/>
<text text-anchor="middle" x="258" y="-230.3" font-family="Courier,monospace" font-size="14.00">linear</text>
<polyline fill="none" stroke="black" points="184,-222.5 332,-222.5"/>
<text text-anchor="middle" x="204.5" y="-207.3" font-family="Courier,monospace" font-size="14.00">Inp</text>
<polyline fill="none" stroke="black" points="184,-199.5 225,-199.5"/>
<text text-anchor="middle" x="204.5" y="-184.3" font-family="Courier,monospace" font-size="14.00">64</text>
<polyline fill="none" stroke="black" points="225,-176.5 225,-222.5"/>
<text text-anchor="middle" x="258" y="-207.3" font-family="Courier,monospace" font-size="14.00">States</text>
<polyline fill="none" stroke="black" points="225,-199.5 291,-199.5"/>
<text text-anchor="middle" x="258" y="-184.3" font-family="Courier,monospace" font-size="14.00">2048</text>
<polyline fill="none" stroke="black" points="291,-176.5 291,-222.5"/>
<text text-anchor="middle" x="311.5" y="-207.3" font-family="Courier,monospace" font-size="14.00">Out</text>
<polyline fill="none" stroke="black" points="291,-199.5 332,-199.5"/>
<text text-anchor="middle" x="311.5" y="-184.3" font-family="Courier,monospace" font-size="14.00">16</text>
</g>
<!-- M000&#45;&gt;M005 -->
<g id="edge4" class="edge">
<title>M000&#45;&gt;M005</title>
<path fill="none" stroke="black" d="M148.24,-211C156.6,-211 165.16,-211 173.64,-211"/>
<polygon fill="black" stroke="black" points="173.91,-214.5 183.91,-211 173.91,-207.5 173.91,-214.5"/>
</g>
<!-- M006 -->
<g id="node7" class="node">
<title>M006</title>
<polygon fill="none" stroke="black" points="368,-132.5 368,-201.5 516,-201.5 516,-132.5 368,-132.5"/>
<text text-anchor="middle" x="442" y="-186.3" font-family="Courier,monospace" font-size="14.00">linear</text>
<polyline fill="none" stroke="black" points="368,-178.5 516,-178.5"/>
<text text-anchor="middle" x="388.5" y="-163.3" font-family="Courier,monospace" font-size="14.00">Inp</text>
<polyline fill="none" stroke="black" points="368,-155.5 409,-155.5"/>
<text text-anchor="middle" x="388.5" y="-140.3" font-family="Courier,monospace" font-size="14.00">64</text>
<polyline fill="none" stroke="black" points="409,-132.5 409,-178.5"/>
<text text-anchor="middle" x="442" y="-163.3" font-family="Courier,monospace" font-size="14.00">States</text>
<polyline fill="none" stroke="black" points="409,-155.5 475,-155.5"/>
<text text-anchor="middle" x="442" y="-140.3" font-family="Courier,monospace" font-size="14.00">8192</text>
<polyline fill="none" stroke="black" points="475,-132.5 475,-178.5"/>
<text text-anchor="middle" x="495.5" y="-163.3" font-family="Courier,monospace" font-size="14.00">Out</text>
<polyline fill="none" stroke="black" points="475,-155.5 516,-155.5"/>
<text text-anchor="middle" x="495.5" y="-140.3" font-family="Courier,monospace" font-size="14.00">64</text>
</g>
<!-- M002&#45;&gt;M006 -->
<g id="edge9" class="edge">
<title>M002&#45;&gt;M006</title>
<path fill="none" stroke="black" d="M332.24,-140.71C340.69,-142.75 349.35,-144.84 357.92,-146.91"/>
<polygon fill="black" stroke="black" points="357.37,-150.38 367.91,-149.33 359.01,-143.58 357.37,-150.38"/>
</g>
<!-- M003&#45;&gt;M006 -->
<g id="edge10" class="edge">
<title>M003&#45;&gt;M006</title>
<path fill="none" stroke="black" d="M318.02,-69.61C322.8,-72.71 327.51,-75.86 332,-79 352.66,-93.46 374.46,-110.65 393.1,-125.97"/>
<polygon fill="black" stroke="black" points="390.94,-128.73 400.88,-132.42 395.41,-123.34 390.94,-128.73"/>
</g>
<!-- M004&#45;&gt;M006 -->
<g id="edge11" class="edge">
<title>M004&#45;&gt;M006</title>
<path fill="none" stroke="black" d="M318.02,-264.39C322.8,-261.29 327.51,-258.14 332,-255 352.66,-240.54 374.46,-223.35 393.1,-208.03"/>
<polygon fill="black" stroke="black" points="395.41,-210.66 400.88,-201.58 390.94,-205.27 395.41,-210.66"/>
</g>
<!-- M005&#45;&gt;M006 -->
<g id="edge12" class="edge">
<title>M005&#45;&gt;M006</title>
<path fill="none" stroke="black" d="M332.24,-193.29C340.69,-191.25 349.35,-189.16 357.92,-187.09"/>
<polygon fill="black" stroke="black" points="359.01,-190.42 367.91,-184.67 357.37,-183.62 359.01,-190.42"/>
</g>
<!-- M001 -->
<g id="node6" class="node">
<title>M001</title>
<polygon fill="none" stroke="black" points="0,-88.5 0,-157.5 148,-157.5 148,-88.5 0,-88.5"/>
<text text-anchor="middle" x="74" y="-142.3" font-family="Courier,monospace" font-size="14.00">linear</text>
<polyline fill="none" stroke="black" points="0,-134.5 148,-134.5"/>
<text text-anchor="middle" x="20.5" y="-119.3" font-family="Courier,monospace" font-size="14.00">Inp</text>
<polyline fill="none" stroke="black" points="0,-111.5 41,-111.5"/>
<text text-anchor="middle" x="20.5" y="-96.3" font-family="Courier,monospace" font-size="14.00">512</text>
<polyline fill="none" stroke="black" points="41,-88.5 41,-134.5"/>
<text text-anchor="middle" x="74" y="-119.3" font-family="Courier,monospace" font-size="14.00">States</text>
<polyline fill="none" stroke="black" points="41,-111.5 107,-111.5"/>
<text text-anchor="middle" x="74" y="-96.3" font-family="Courier,monospace" font-size="14.00">32768</text>
<polyline fill="none" stroke="black" points="107,-88.5 107,-134.5"/>
<text text-anchor="middle" x="127.5" y="-119.3" font-family="Courier,monospace" font-size="14.00">Out</text>
<polyline fill="none" stroke="black" points="107,-111.5 148,-111.5"/>
<text text-anchor="middle" x="127.5" y="-96.3" font-family="Courier,monospace" font-size="14.00">32</text>
</g>
<!-- M001&#45;&gt;M002 -->
<g id="edge5" class="edge">
<title>M001&#45;&gt;M002</title>
<path fill="none" stroke="black" d="M148.24,-123C156.6,-123 165.16,-123 173.64,-123"/>
<polygon fill="black" stroke="black" points="173.91,-126.5 183.91,-123 173.91,-119.5 173.91,-126.5"/>
</g>
<!-- M001&#45;&gt;M003 -->
<g id="edge6" class="edge">
<title>M001&#45;&gt;M003</title>
<path fill="none" stroke="black" d="M146.41,-88.47C156.24,-83.72 166.4,-78.81 176.39,-73.98"/>
<polygon fill="black" stroke="black" points="178.02,-77.08 185.5,-69.57 174.97,-70.77 178.02,-77.08"/>
</g>
<!-- M001&#45;&gt;M004 -->
<g id="edge7" class="edge">
<title>M001&#45;&gt;M004</title>
<path fill="none" stroke="black" d="M138.82,-157.75C142.11,-160.66 145.21,-163.74 148,-167 175.49,-199.09 156.51,-222.91 184,-255 184.61,-255.71 185.24,-256.42 185.87,-257.11"/>
<polygon fill="black" stroke="black" points="183.58,-259.77 193.18,-264.25 188.48,-254.76 183.58,-259.77"/>
</g>
<!-- M001&#45;&gt;M005 -->
<g id="edge8" class="edge">
<title>M001&#45;&gt;M005</title>
<path fill="none" stroke="black" d="M146.41,-157.53C156.24,-162.28 166.4,-167.19 176.39,-172.02"/>
<polygon fill="black" stroke="black" points="174.97,-175.23 185.5,-176.43 178.02,-168.92 174.97,-175.23"/>
</g>
</g>
</svg>
